<svg width="280" height="182" viewBox="0 0 280 182" fill="none" xmlns="http://www.w3.org/2000/svg">
<g opacity="0.6">
<path opacity="0.0290323" d="M266.27 9.39233H12.8839C6.93888 9.39233 2.00195 14.1757 2.00195 20.1875V170.275C2.00195 176.287 6.88719 181.174 12.8322 181.174C98.1816 177.672 182.73 177.463 266.244 181.174C272.189 181.174 277.048 176.287 277.048 170.275C280.771 124.114 280.435 73.7714 277.048 20.2137C277.048 14.228 272.215 9.39233 266.27 9.39233Z" fill="#1A1A1A"/>
<path opacity="0.0580645" d="M265.991 9.39233H13.0441C7.09915 9.39233 2.26562 14.2802 2.26562 20.2659V169.987C2.26562 175.999 7.09915 180.861 13.0441 180.861C98.2385 177.358 182.606 177.149 265.991 180.861C271.936 180.861 276.743 175.999 276.743 169.987C280.466 123.931 280.13 73.6669 276.743 20.2659C276.743 14.2541 271.936 9.39233 265.991 9.39233Z" fill="#1A1A1A"/>
<path opacity="0.0870968" d="M265.676 9.3916H13.1947C7.24969 9.3916 2.51953 14.3579 2.51953 20.3436V169.699C2.51953 175.685 7.30138 180.546 13.2205 180.546C98.2856 177.044 182.472 176.835 265.702 180.546C271.647 180.546 276.429 175.685 276.429 169.699C280.125 123.774 279.789 73.5616 276.429 20.2913C276.429 14.3056 271.621 9.3916 265.676 9.3916Z" fill="#1A1A1A"/>
<path opacity="0.1161" d="M265.392 9.65308H13.3498C7.43062 9.65308 2.51953 14.4364 2.51953 20.4221V169.385C2.51953 175.345 7.37891 180.207 13.2981 180.207C98.2081 176.73 182.291 176.521 265.366 180.207C271.285 180.207 276.093 175.371 276.093 169.385C279.789 123.565 279.453 73.5878 276.093 20.4483C276.119 14.4626 271.311 9.65308 265.392 9.65308Z" fill="#1A1A1A"/>
<path opacity="0.1452" d="M265.105 9.65308H13.5022C7.58308 9.65308 2.77539 14.541 2.77539 20.4744V169.098C2.77539 175.057 7.58308 179.893 13.5022 179.893C98.2572 176.417 182.185 176.208 265.105 179.893C271.024 179.893 275.806 175.057 275.806 169.098C279.502 123.382 279.166 73.4833 275.806 20.4744C275.806 14.5148 271.024 9.65308 265.105 9.65308Z" fill="#1A1A1A"/>
<path opacity="0.1742" d="M264.823 9.91431H13.6596C7.76627 9.91431 3.03613 14.6192 3.03613 20.5527V168.784C3.03613 174.717 7.79212 179.553 13.6854 179.553C98.2853 176.077 182.058 175.868 264.823 179.553C270.716 179.553 275.498 174.744 275.498 168.784C279.194 123.199 278.832 73.4831 275.498 20.605C275.498 14.6715 270.716 9.91431 264.823 9.91431Z" fill="#1A1A1A"/>
<path opacity="0.2032" d="M264.538 9.91431H13.8147C7.92136 9.91431 3.03613 14.6976 3.03613 20.6311V168.496C3.03613 174.43 7.86967 179.239 13.763 179.239C98.2078 175.789 181.877 175.58 264.513 179.239C270.406 179.239 275.188 174.43 275.188 168.496C278.858 123.016 278.548 73.4047 275.188 20.6572C275.188 14.6976 270.432 9.91431 264.538 9.91431Z" fill="#1A1A1A"/>
<path opacity="0.2323" d="M264.254 9.91431H13.9955C8.10217 9.91431 3.32031 14.7761 3.32031 20.7095V168.183C3.32031 174.09 8.10217 178.9 13.9955 178.9C98.311 175.449 181.774 175.24 264.28 178.9C270.173 178.9 274.929 174.116 274.929 168.183C278.599 122.833 278.263 73.274 274.929 20.6572C274.877 14.7499 270.121 9.91431 264.254 9.91431Z" fill="#1A1A1A"/>
<path opacity="0.2613" d="M263.944 10.1753H14.1245C8.25704 10.1753 3.55273 14.8802 3.55273 20.7614V167.869C3.55273 173.776 8.28288 178.559 14.1503 178.559C98.3108 175.109 181.618 174.926 263.969 178.559C269.837 178.559 274.593 173.776 274.593 167.869C278.263 122.623 277.927 73.2736 274.593 20.7875C274.593 14.9064 269.837 10.1753 263.944 10.1753Z" fill="#1A1A1A"/>
<path opacity="0.2903" d="M263.659 10.1753H14.2796C8.41212 10.1753 3.55273 14.9586 3.55273 20.8398V167.581C3.55273 173.462 8.36044 178.22 14.2279 178.22C98.2332 174.795 181.437 174.586 263.633 178.22C269.501 178.22 274.257 173.462 274.257 167.581C277.927 122.44 277.591 73.169 274.257 20.8398C274.257 14.9586 269.527 10.1753 263.659 10.1753Z" fill="#1A1A1A"/>
<path opacity="0.3194" d="M263.374 10.1753H14.434C8.59238 10.1753 3.81055 15.037 3.81055 20.9182V167.294C3.81055 173.149 8.56654 177.906 14.434 177.906C98.2843 174.482 181.333 174.273 263.374 177.906C269.216 177.906 273.972 173.149 273.972 167.294C277.616 122.283 277.306 73.0906 273.972 20.8659C273.972 14.9848 269.216 10.1753 263.374 10.1753Z" fill="#1A1A1A"/>
<path opacity="0.3484" d="M263.09 10.437H14.5894C8.74778 10.437 4.06934 15.1419 4.06934 20.997V166.98C4.06934 172.835 8.77365 177.566 14.6153 177.566C98.3105 174.142 181.204 173.959 263.09 177.566C268.932 177.566 273.662 172.809 273.662 166.98C277.307 122.074 276.971 73.091 273.662 21.0231C273.662 15.1681 268.932 10.437 263.09 10.437Z" fill="#1A1A1A"/>
<path opacity="0.3774" d="M262.806 10.437H14.7709C8.92925 10.437 4.0957 15.2203 4.0957 21.0492V166.667C4.0957 172.496 8.87754 177.227 14.7191 177.227C98.2851 173.829 181.05 173.62 262.806 177.227C268.648 177.227 273.378 172.496 273.378 166.667C277.023 121.891 276.687 72.9603 273.378 21.0231C273.352 15.1942 268.622 10.437 262.806 10.437Z" fill="#1A1A1A"/>
<path opacity="0.4065" d="M262.521 10.6985H14.9253C9.10952 10.6985 4.35352 15.2989 4.35352 21.1277V166.379C4.35352 172.208 9.08368 176.913 14.8994 176.913C98.3103 173.515 180.894 173.306 262.521 176.913C268.337 176.913 273.067 172.182 273.067 166.379C276.712 121.709 276.376 73.0126 273.067 21.18C273.041 15.3511 268.337 10.6985 262.521 10.6985Z" fill="#1A1A1A"/>
<path opacity="0.4355" d="M262.208 10.6985H15.0514C9.23561 10.6985 4.58301 15.4034 4.58301 21.2061V166.092C4.58301 171.895 9.26145 176.599 15.0772 176.599C98.333 173.201 180.762 173.018 262.234 176.599C268.05 176.599 272.754 171.895 272.754 166.092C276.373 121.526 276.037 72.9081 272.754 21.2323C272.728 15.4034 268.024 10.6985 262.208 10.6985Z" fill="#1A1A1A"/>
<path opacity="0.4645" d="M261.928 10.6985H15.2107C9.42076 10.6985 4.8457 15.4818 4.8457 21.2584V165.752C4.8457 171.555 9.47247 176.233 15.2882 176.233C98.3889 172.862 180.662 172.653 261.98 176.233C267.77 176.233 272.474 171.529 272.474 165.752C276.093 121.317 275.757 72.7512 272.474 21.2061C272.448 15.4295 267.718 10.6985 261.928 10.6985Z" fill="#1A1A1A"/>
<path opacity="0.4935" d="M261.644 10.9597H15.3657C9.57584 10.9597 4.8457 15.5601 4.8457 21.3367V165.464C4.8457 171.241 9.57585 175.92 15.3399 175.92C98.2855 172.548 180.456 172.339 261.618 175.92C267.408 175.92 272.112 171.241 272.112 165.464C275.731 121.133 275.395 72.8034 272.112 21.389C272.112 15.6124 267.434 10.9597 261.644 10.9597Z" fill="#1A1A1A"/>
<path opacity="0.5226" d="M261.358 10.9597H15.5456C9.78152 10.9597 5.12891 15.6385 5.12891 21.4151V165.177C5.12891 170.927 9.80736 175.606 15.5714 175.606C98.3878 172.234 180.351 172.051 261.384 175.606C267.148 175.606 271.827 170.927 271.827 165.177C275.445 120.95 275.109 72.6988 271.827 21.4151C271.827 15.6385 267.122 10.9597 261.358 10.9597Z" fill="#1A1A1A"/>
<path opacity="0.5516" d="M261.074 10.9597H15.701C9.93691 10.9597 5.3877 15.7431 5.3877 21.4935V164.863C5.3877 170.614 10.0145 175.266 15.7785 175.266C98.4398 171.92 180.248 171.711 261.126 175.266C266.89 175.266 271.543 170.614 271.543 164.863C275.135 120.768 274.799 72.5681 271.543 21.4151C271.517 15.6908 266.838 10.9597 261.074 10.9597Z" fill="#1A1A1A"/>
<path opacity="0.5806" d="M260.79 11.2212H15.8561C10.092 11.2212 5.3877 15.8216 5.3877 21.5459V164.55C5.3877 170.274 10.092 174.927 15.8302 174.927C98.3364 171.581 180.041 171.372 260.79 174.927C266.554 174.927 271.206 170.274 271.206 164.55C274.799 120.558 274.489 72.5682 271.206 21.572C271.206 15.8477 266.528 11.2212 260.79 11.2212Z" fill="#1A1A1A"/>
<path opacity="0.6097" d="M260.481 11.2212H15.987C10.2488 11.2212 5.62207 15.9 5.62207 21.6243V164.262C5.62207 169.986 10.2747 174.613 16.0129 174.613C98.364 171.267 179.914 171.084 260.507 174.613C266.246 174.613 270.898 169.986 270.898 164.262C274.491 120.402 274.155 72.4898 270.898 21.5982C270.898 15.8738 266.246 11.2212 260.481 11.2212Z" fill="#1A1A1A"/>
<path opacity="0.6387" d="M260.197 11.4822H16.1419C10.4037 11.4822 5.85449 16.0041 5.85449 21.7023V163.974C5.85449 169.672 10.4554 174.299 16.1936 174.299C98.4155 170.979 179.784 170.77 260.223 174.299C265.961 174.299 270.588 169.672 270.588 163.974C274.181 120.218 273.845 72.5155 270.588 21.7546C270.588 16.0564 265.935 11.4822 260.197 11.4822Z" fill="#1A1A1A"/>
<path opacity="0.6677" d="M259.914 11.4822H16.3244C10.612 11.4822 5.88184 16.0826 5.88184 21.7807V163.66C5.88184 169.359 10.5603 173.959 16.2726 173.959C98.3394 170.639 179.605 170.456 259.888 173.959C265.601 173.959 270.253 169.359 270.253 163.66C273.82 120.009 273.51 72.3849 270.253 21.7807C270.279 16.0826 265.626 11.4822 259.914 11.4822Z" fill="#1A1A1A"/>
<path opacity="0.6968" d="M259.627 11.4822H16.4768C10.7645 11.4822 6.1377 16.161 6.1377 21.833V163.347C6.1377 169.019 10.7645 173.619 16.4768 173.619C98.3885 170.3 179.473 170.117 259.627 173.619C265.339 173.619 269.966 169.019 269.966 163.347C273.533 119.826 273.197 72.2803 269.966 21.7807C269.966 16.1348 265.339 11.4822 259.627 11.4822Z" fill="#1A1A1A"/>
<path opacity="0.7258" d="M259.344 11.7437H16.6332C10.9208 11.7437 6.39746 16.2656 6.39746 21.9115V163.059C6.39746 168.705 10.9725 173.306 16.6849 173.306C98.4415 170.012 179.371 169.803 259.37 173.306C265.082 173.306 269.683 168.731 269.683 163.059C273.25 119.643 272.914 72.3065 269.683 21.9638C269.657 16.2917 265.031 11.7437 259.344 11.7437Z" fill="#1A1A1A"/>
<path opacity="0.7548" d="M259.033 11.7437H16.7619C11.0754 11.7437 6.37109 16.344 6.37109 21.9899V162.772C6.37109 168.418 11.0237 172.992 16.7102 172.992C98.3117 169.699 179.138 169.516 259.008 172.992C264.694 172.992 269.321 168.418 269.321 162.772C272.888 119.486 272.552 72.202 269.321 21.9899C269.347 16.3179 264.746 11.7437 259.033 11.7437Z" fill="#1A1A1A"/>
<path opacity="0.7839" d="M258.749 11.7437H16.9173C11.2308 11.7437 6.62988 16.4224 6.62988 22.0684V162.458C6.62988 168.078 11.2308 172.652 16.9173 172.652C98.3896 169.359 179.035 169.176 258.749 172.652C264.436 172.652 269.037 168.078 269.037 162.458C272.578 119.277 272.268 72.0974 269.037 21.9899C269.037 16.3702 264.436 11.7437 258.749 11.7437Z" fill="#1A1A1A"/>
<path opacity="0.8129" d="M258.466 12.0051H17.0991C11.4384 12.0051 6.91504 16.5009 6.91504 22.1207V162.145C6.91504 167.764 11.4643 172.312 17.1249 172.312C98.4421 169.045 178.932 168.836 258.492 172.312C264.152 172.312 268.753 167.764 268.753 162.145C272.294 119.068 271.958 72.0975 268.753 22.1469C268.753 16.5271 264.152 12.0051 258.466 12.0051Z" fill="#1A1A1A"/>
<path opacity="0.8419" d="M258.182 12.0051H17.2542C11.5935 12.0051 6.91504 16.6055 6.91504 22.1991V161.857C6.91504 167.451 11.5418 171.999 17.2025 171.999C98.3646 168.731 178.751 168.549 258.156 171.999C263.816 171.999 268.417 167.451 268.417 161.857C271.958 118.912 271.622 71.993 268.417 22.173C268.417 16.5794 263.842 12.0051 258.182 12.0051Z" fill="#1A1A1A"/>
<path opacity="0.871" d="M257.896 12.2666H17.4076C11.7469 12.2666 7.17188 16.684 7.17188 22.2777V161.543C7.17188 167.137 11.7469 171.659 17.4076 171.659C98.4146 168.392 178.62 168.209 257.896 171.659C263.556 171.659 268.131 167.137 268.131 161.543C271.672 118.703 271.336 71.993 268.131 22.3299C268.131 16.7363 263.53 12.2666 257.896 12.2666Z" fill="#1A1A1A"/>
<path opacity="0.9" d="M257.612 12.2666H17.563C11.9282 12.2666 7.43066 16.7624 7.43066 22.3299V161.256C7.43066 166.823 11.954 171.345 17.5889 171.345C98.4408 168.104 178.491 167.895 257.612 171.345C263.246 171.345 267.821 166.823 267.821 161.256C271.337 118.546 271.027 71.9146 267.821 22.3561C267.821 16.7886 263.246 12.2666 257.612 12.2666Z" fill="#1A1A1A"/>
</g>
<path d="M3.31957 169.169C5.3061 171.155 8.12906 172.41 11.1611 172.41C53.9498 172.41 96.7124 172.41 139.501 172.41C182.29 172.41 225.052 172.41 267.841 172.41C270.847 172.41 273.539 171.129 275.5 169.169C277.486 167.182 278.636 164.411 278.636 161.406C278.636 136.339 278.636 111.246 278.636 86.1789C278.636 61.1121 278.636 36.0192 278.636 10.9524C278.636 7.94649 277.46 5.28034 275.5 3.31996C273.513 1.33343 270.847 0.209473 267.841 0.209473C225.052 0.209473 182.29 0.209473 139.501 0.209473C96.7124 0.209473 53.9498 0.209473 11.1611 0.209473C8.15519 0.209473 5.3061 1.35957 3.31957 3.31996C1.33305 5.30648 0 7.94649 0 10.9524C0 36.0192 0 61.1121 0 86.1789C0 111.246 0 136.339 0 161.406C0 164.411 1.33305 167.182 3.31957 169.169Z" fill="url(#paint0_radial)"/>
<path opacity="0.2" d="M267.817 0.000244141H11.1368C5.09881 0.000244141 0.210938 4.88812 0.210938 10.9261V161.405C0.210938 167.443 5.09881 172.331 11.1368 172.331H267.817C273.855 172.331 278.743 167.443 278.743 161.405V10.9261C278.743 4.88812 273.855 0.000244141 267.817 0.000244141ZM276.861 161.379C276.861 166.372 272.809 170.423 267.817 170.423H11.1368C6.14435 170.423 2.0929 166.372 2.0929 161.379V10.9C2.0929 5.90753 6.14435 1.85607 11.1368 1.85607H267.817C272.809 1.85607 276.861 5.90753 276.861 10.9V161.379Z" fill="#1A1A1A"/>
<path d="M129.517 125.962C129.517 122.747 130.824 121.126 133.411 121.126C135.999 121.126 137.306 122.747 137.306 125.962C137.306 129.177 135.999 130.798 133.411 130.798C130.824 130.798 129.517 129.177 129.517 125.962ZM134.535 128.21C134.77 127.766 134.875 127.008 134.875 125.962C134.875 124.917 134.77 124.159 134.535 123.714C134.3 123.27 133.934 123.035 133.411 123.035C132.888 123.035 132.523 123.27 132.287 123.714C132.052 124.159 131.947 124.917 131.947 125.962C131.947 127.008 132.052 127.766 132.287 128.21C132.523 128.654 132.888 128.89 133.411 128.89C133.934 128.89 134.3 128.68 134.535 128.21Z" fill="black"/>
<path d="M143.186 121.257V130.641H140.834V123.662C140.102 124.315 139.37 124.733 138.612 124.864L138.377 122.852C138.874 122.799 139.396 122.59 139.998 122.276C140.599 121.937 141.017 121.623 141.252 121.283H143.186V121.257Z" fill="black"/>
<path d="M146.716 131.66H144.468L148.467 120.525H150.715L146.716 131.66Z" fill="black"/>
<path d="M151.578 129.099C153.172 128.105 154.296 127.243 155.028 126.485C155.734 125.727 156.099 124.995 156.099 124.315C156.099 123.923 155.995 123.636 155.76 123.4C155.551 123.165 155.237 123.061 154.819 123.061C154.374 123.061 154.035 123.218 153.773 123.557C153.512 123.897 153.381 124.368 153.381 124.995L151.29 124.341C151.316 123.322 151.656 122.538 152.336 121.989C153.015 121.44 153.904 121.153 154.976 121.153C155.76 121.153 156.413 121.309 156.962 121.597C157.485 121.884 157.877 122.25 158.138 122.721C158.4 123.165 158.53 123.662 158.53 124.185C158.53 125.073 158.191 125.884 157.537 126.616C156.884 127.347 155.89 128.105 154.531 128.89V128.916C155.159 128.89 155.786 128.863 156.413 128.863H158.609V130.719H151.551V129.099H151.578Z" fill="black"/>
<path d="M164.412 121.257V130.641H162.06V123.662C161.328 124.315 160.596 124.733 159.838 124.864L159.603 122.852C160.099 122.799 160.622 122.59 161.223 122.276C161.824 121.937 162.243 121.623 162.478 121.283H164.412V121.257Z" fill="black"/>
<path d="M116.446 125.335H115.584L114.564 122.486H115.349L115.871 124.211L116.028 124.786L116.185 124.237L116.708 122.512H117.466L116.446 125.335Z" fill="black"/>
<path d="M119.137 124.681H118.144L117.935 125.334H117.177L118.17 122.485H119.059L120.052 125.334H119.294L119.137 124.681ZM118.98 124.184L118.771 123.505L118.641 123.06L118.536 123.505L118.327 124.184H118.98Z" fill="black"/>
<path d="M122.615 124.759V125.334H120.445V122.485H121.177V124.759H122.615Z" fill="black"/>
<path d="M123.791 125.334H123.06V122.485H123.791V125.334Z" fill="black"/>
<path d="M126.666 122.851C126.901 123.087 127.032 123.452 127.032 123.923C127.032 124.393 126.901 124.733 126.666 124.995C126.431 125.256 126.091 125.361 125.647 125.361H124.444V122.485H125.647C126.065 122.485 126.405 122.59 126.666 122.851ZM126.091 124.55C126.196 124.393 126.248 124.184 126.248 123.897C126.248 123.609 126.196 123.4 126.091 123.243C125.987 123.087 125.804 123.034 125.568 123.034H125.176V124.759H125.568C125.804 124.759 125.96 124.707 126.091 124.55Z" fill="black"/>
<path d="M117.806 127.373H116.865V129.647H116.133V127.373H115.192V126.798H117.806V127.373V127.373Z" fill="black"/>
<path d="M120.813 126.798V129.647H120.081V128.497H118.983V129.647H118.251V126.798H118.983V127.922H120.081V126.798H120.813Z" fill="black"/>
<path d="M122.641 128.627H122.197V129.673H121.465V126.824H122.824C123.164 126.824 123.425 126.902 123.634 127.059C123.817 127.216 123.922 127.451 123.922 127.739C123.922 127.948 123.87 128.131 123.791 128.261C123.687 128.392 123.556 128.497 123.373 128.575L124.105 129.699H123.295L122.641 128.627ZM122.197 128.078H122.693C122.85 128.078 122.955 128.052 123.033 128C123.112 127.948 123.138 127.843 123.138 127.712C123.138 127.582 123.112 127.503 123.033 127.451C122.955 127.399 122.85 127.373 122.693 127.373H122.197V128.078Z" fill="black"/>
<path d="M126.928 128.497C126.928 128.889 126.823 129.203 126.614 129.412C126.405 129.621 126.091 129.725 125.647 129.725C125.229 129.725 124.915 129.621 124.68 129.412C124.471 129.203 124.366 128.915 124.366 128.497V126.798H125.124V128.497C125.124 128.706 125.176 128.863 125.255 128.967C125.333 129.072 125.464 129.124 125.647 129.124C126.013 129.124 126.196 128.915 126.196 128.523V126.824H126.928V128.497V128.497Z" fill="black"/>
<path d="M129.517 125.388C129.517 122.173 130.824 120.552 133.411 120.552C135.999 120.552 137.306 122.173 137.306 125.388C137.306 128.603 135.999 130.223 133.411 130.223C130.824 130.223 129.517 128.629 129.517 125.388ZM134.535 127.636C134.77 127.191 134.875 126.433 134.875 125.388C134.875 124.342 134.77 123.584 134.535 123.14C134.3 122.696 133.934 122.46 133.411 122.46C132.888 122.46 132.523 122.696 132.287 123.14C132.052 123.584 131.947 124.342 131.947 125.388C131.947 126.433 132.052 127.191 132.287 127.636C132.523 128.08 132.888 128.315 133.411 128.315C133.934 128.315 134.3 128.106 134.535 127.636Z" fill="white"/>
<path d="M143.186 120.708V130.092H140.834V123.113C140.102 123.767 139.37 124.185 138.612 124.316L138.377 122.303C138.874 122.251 139.396 122.042 139.998 121.728C140.599 121.388 141.017 121.074 141.252 120.735H143.186V120.708Z" fill="white"/>
<path d="M146.716 131.086H144.468L148.467 119.951H150.715L146.716 131.086Z" fill="white"/>
<path d="M151.578 128.524C153.172 127.531 154.296 126.668 155.028 125.91C155.734 125.152 156.099 124.42 156.099 123.741C156.099 123.349 155.995 123.061 155.76 122.826C155.551 122.591 155.237 122.486 154.819 122.486C154.374 122.486 154.035 122.643 153.773 122.983C153.512 123.322 153.381 123.793 153.381 124.42L151.29 123.767C151.316 122.747 151.656 121.963 152.336 121.414C153.015 120.865 153.904 120.578 154.976 120.578C155.76 120.578 156.413 120.735 156.962 121.022C157.485 121.31 157.877 121.676 158.138 122.146C158.4 122.617 158.53 123.087 158.53 123.61C158.53 124.499 158.191 125.309 157.537 126.041C156.884 126.773 155.89 127.531 154.531 128.315V128.341C155.159 128.315 155.786 128.289 156.413 128.289H158.609V130.145H151.551V128.524H151.578Z" fill="white"/>
<path d="M164.412 120.708V130.092H162.06V123.113C161.328 123.767 160.596 124.185 159.838 124.316L159.603 122.303C160.099 122.251 160.622 122.042 161.223 121.728C161.824 121.388 162.243 121.074 162.478 120.735H164.412V120.708Z" fill="white"/>
<path d="M116.446 124.76H115.584L114.564 121.911H115.349L115.871 123.637L116.028 124.212L116.185 123.663L116.708 121.938H117.466L116.446 124.76Z" fill="white"/>
<path d="M119.137 124.133H118.144L117.935 124.786H117.177L118.17 121.937H119.059L120.052 124.786H119.294L119.137 124.133ZM118.98 123.61L118.771 122.93L118.641 122.486L118.536 122.93L118.327 123.61H118.98Z" fill="white"/>
<path d="M122.615 124.185V124.76H120.445V121.911H121.177V124.185H122.615Z" fill="white"/>
<path d="M123.791 124.76H123.06V121.911H123.791V124.76Z" fill="white"/>
<path d="M126.666 122.277C126.901 122.512 127.032 122.878 127.032 123.348C127.032 123.819 126.901 124.159 126.666 124.42C126.431 124.681 126.091 124.786 125.647 124.786H124.444V121.937H125.647C126.065 121.911 126.405 122.041 126.666 122.277ZM126.091 123.976C126.196 123.819 126.248 123.61 126.248 123.322C126.248 123.035 126.196 122.826 126.091 122.669C125.987 122.512 125.804 122.46 125.568 122.46H125.176V124.185H125.568C125.804 124.211 125.96 124.133 126.091 123.976Z" fill="white"/>
<path d="M117.806 126.825H116.865V129.099H116.133V126.825H115.192V126.25H117.806V126.825V126.825Z" fill="white"/>
<path d="M120.813 126.25V129.099H120.081V127.949H118.983V129.099H118.251V126.25H118.983V127.374H120.081V126.25H120.813Z" fill="white"/>
<path d="M122.641 128.053H122.197V129.099H121.465V126.25H122.824C123.164 126.25 123.425 126.328 123.634 126.485C123.817 126.642 123.922 126.877 123.922 127.165C123.922 127.374 123.87 127.557 123.791 127.687C123.687 127.818 123.556 127.923 123.373 128.001L124.105 129.125H123.295L122.641 128.053ZM122.197 127.531H122.693C122.85 127.531 122.955 127.504 123.033 127.452C123.112 127.4 123.138 127.295 123.138 127.165C123.138 127.034 123.112 126.955 123.033 126.903C122.955 126.851 122.85 126.825 122.693 126.825H122.197V127.531Z" fill="white"/>
<path d="M126.928 127.923C126.928 128.315 126.823 128.628 126.614 128.837C126.405 129.047 126.091 129.151 125.647 129.151C125.229 129.151 124.915 129.047 124.68 128.837C124.471 128.628 124.366 128.341 124.366 127.923V126.224H125.124V127.923C125.124 128.132 125.176 128.289 125.255 128.393C125.333 128.498 125.464 128.55 125.647 128.55C126.013 128.55 126.196 128.341 126.196 127.949V126.25H126.928V127.923V127.923Z" fill="white"/>
<path opacity="0.3" d="M199.673 0.000244141H11.1622C5.1242 0.000244141 0.236328 4.88812 0.236328 10.9261V161.405C0.236328 167.443 5.1242 172.331 11.1622 172.331H108.946L199.673 0.000244141Z" fill="url(#paint1_linear)"/>
<path opacity="0.7" d="M57.6083 53.166H24.151C22.3998 53.166 20.9883 54.5775 20.9883 56.3288V77.0827C20.9883 78.834 22.3998 80.2455 24.151 80.2455H57.6083C59.3596 80.2455 60.771 78.834 60.771 77.0827V56.3549C60.771 54.6036 59.3596 53.166 57.6083 53.166Z" fill="black"/>
<path d="M25.1716 60.7463C25.1716 58.1063 27.3149 55.963 29.9549 55.963H34.7383V53.4014H24.0476C22.427 53.4014 21.1201 54.7083 21.1201 56.3289V62.2623H25.1716V60.7463Z" fill="url(#paint2_linear)"/>
<path d="M56.4046 72.6916C56.4046 75.3316 54.2612 77.4749 51.6212 77.4749H46.8379V80.0365H57.5285C59.1491 80.0365 60.4561 78.7296 60.4561 77.109V71.1755H56.4046V72.6916V72.6916Z" fill="url(#paint3_linear)"/>
<path d="M29.953 77.4749C27.313 77.4749 25.1696 75.3316 25.1696 72.6916V71.1755H21.1182V77.109C21.1182 78.7296 22.4251 80.0365 24.0457 80.0365H34.7363V77.4749H29.953V77.4749Z" fill="url(#paint4_linear)"/>
<path d="M51.5959 55.9624C54.2358 55.9624 56.3792 58.1058 56.3792 60.7458V62.2618H60.4306V56.3545C60.4306 54.7339 59.1237 53.427 57.5031 53.427H46.8125V55.9886H51.5959V55.9624Z" fill="url(#paint5_linear)"/>
<path d="M34.7363 70.9401V62.4973H25.3003H21.1182V70.9401H25.3003H34.7363Z" fill="url(#paint6_linear)"/>
<path d="M46.8379 62.4973V70.9401H56.2739H60.4299V62.4973H56.2739H46.8379Z" fill="url(#paint7_linear)"/>
<path d="M34.9717 80.0362H46.5771V77.5008L40.7744 71.2537L34.9717 77.5008V80.0362Z" fill="url(#paint8_linear)"/>
<path d="M40.7744 62.2098L46.5771 55.9627V53.4011H34.9717V55.9627L40.7744 62.2098Z" fill="url(#paint9_linear)"/>
<path d="M29.9534 56.2241C27.4441 56.2241 25.4053 58.2629 25.4053 60.7722V62.2882H34.8413C34.9197 62.2882 34.972 62.3405 34.972 62.4189V71.0969C34.972 71.1753 34.9197 71.2276 34.8413 71.2276H25.4053V72.7436C25.4053 75.2529 27.4441 77.2917 29.9534 77.2917H34.8674L40.6963 71.0446C40.7486 70.9924 40.827 70.9924 40.8793 71.0446L46.7081 77.2917H51.6222C54.1315 77.2917 56.1703 75.2529 56.1703 72.7436V71.2276H46.7343C46.6559 71.2276 46.6036 71.1753 46.6036 71.0969V62.4189C46.6036 62.3405 46.6559 62.2882 46.7343 62.2882H56.1703V60.7722C56.1703 58.2629 54.1315 56.2241 51.6222 56.2241H46.7081L40.8793 62.4712C40.8531 62.4974 40.827 62.4974 40.8008 62.4974C40.7747 62.4974 40.7224 62.4712 40.7224 62.4712L34.8936 56.2241H29.9534Z" fill="url(#paint10_linear)"/>
<path d="M40.8788 62.4714C40.8264 62.5238 40.7477 62.5238 40.6953 62.4714C40.7215 62.4976 40.7477 62.4976 40.7739 62.4976C40.8263 62.4976 40.8526 62.4976 40.8788 62.4714Z" fill="url(#paint11_linear)"/>
<path d="M221.001 140.286C221.001 140.338 221.027 140.364 221.027 140.416C221.027 140.39 221.027 140.39 221.027 140.364C221.027 140.338 221.001 140.312 221.001 140.286ZM223.405 146.454C223.536 146.69 223.719 146.925 223.902 147.186L223.928 147.212C223.928 147.212 223.928 147.212 223.928 147.239C223.824 147.082 223.719 146.925 223.615 146.768C223.536 146.664 223.458 146.533 223.405 146.454ZM228.084 121.963C228.006 122.015 227.927 122.093 227.849 122.146C228.058 121.989 228.267 121.832 228.555 121.623C228.712 121.492 228.921 121.361 229.13 121.205C228.685 121.492 228.398 121.701 228.11 121.91C228.11 121.937 228.11 121.937 228.084 121.963ZM227.823 122.172L227.849 122.146C227.849 122.146 227.823 122.146 227.823 122.172ZM229.156 121.231L229.313 121.126L229.287 121.152L229.156 121.231ZM223.092 127.609C222.909 127.974 222.647 128.576 222.7 129.308C222.7 129.438 222.726 129.595 222.752 129.726C222.804 129.673 222.857 129.621 222.909 129.569C223.275 129.229 223.667 128.889 224.111 128.576C224.268 128.471 224.399 128.367 224.556 128.262C224.529 128.184 224.477 128.105 224.451 128.027C224.216 127.399 224.19 126.72 224.399 126.014C223.98 126.406 223.588 126.798 223.275 127.243C223.275 127.269 223.249 127.269 223.249 127.295C223.222 127.321 223.196 127.347 223.196 127.373L223.066 127.609L223.039 127.661C223.092 127.582 223.118 127.504 223.17 127.426C223.17 127.504 223.144 127.53 223.092 127.609ZM222.517 136.443C222.569 136.365 222.647 136.313 222.726 136.234C221.994 135.45 221.497 134.614 221.288 133.673C221.262 133.699 221.262 133.725 221.236 133.777C221.157 133.908 221.105 134.065 221.027 134.195C220.948 134.378 220.896 134.561 220.818 134.744C220.765 134.901 220.713 135.084 220.687 135.267C220.687 135.293 220.687 135.293 220.687 135.319L220.661 135.711L220.635 136.365L220.661 135.529C220.661 135.555 220.661 135.581 220.661 135.607C220.661 135.738 220.661 135.868 220.687 135.973C220.765 136.679 221.001 137.332 221.393 137.959C221.471 137.803 221.55 137.646 221.654 137.489C221.759 137.306 221.889 137.149 222.02 136.992C222.203 136.783 222.36 136.626 222.517 136.443ZM227.013 139.057C226.542 138.848 226.072 138.613 225.653 138.378C225.34 138.195 225.026 138.012 224.738 137.829C224.66 137.881 224.582 137.933 224.503 137.986C224.268 138.169 224.033 138.351 223.824 138.534C223.615 138.717 223.432 138.9 223.249 139.083C223.118 139.24 222.961 139.371 222.857 139.528C223.615 140.181 224.529 140.782 225.575 141.331C225.889 141.488 226.228 141.671 226.568 141.828C226.673 141.749 226.803 141.671 226.908 141.619C227.065 141.514 227.248 141.436 227.405 141.331C227.561 141.253 227.692 141.174 227.849 141.096C228.006 141.018 228.163 140.939 228.319 140.861C228.424 140.809 228.555 140.756 228.659 140.704C228.764 140.652 228.895 140.599 228.999 140.547C229.104 140.495 229.208 140.443 229.339 140.416C229.443 140.364 229.548 140.338 229.653 140.286C229.705 140.26 229.757 140.233 229.809 140.207C229.653 140.155 229.496 140.103 229.339 140.05C228.921 139.894 228.529 139.763 228.136 139.606C227.771 139.397 227.378 139.24 227.013 139.057ZM222.935 127.896C222.647 128.445 222.517 128.706 222.308 129.125C222.281 129.151 222.281 129.203 222.255 129.229C222.412 128.942 222.595 128.55 222.935 127.896C222.935 127.896 222.909 127.922 222.935 127.896ZM220.661 136.731C220.661 137.358 220.687 137.776 220.713 138.169C220.713 138.221 220.713 138.273 220.713 138.325C220.713 138.325 220.713 138.325 220.713 138.351C220.713 138.43 220.739 138.482 220.739 138.561C220.713 138.169 220.687 137.75 220.661 137.097C220.661 136.966 220.661 136.862 220.661 136.731ZM227.457 122.904C227.588 122.825 227.744 122.747 227.875 122.668C229.208 121.963 230.776 121.388 232.423 120.917C237.834 119.401 244.264 119.114 246.564 119.845C246.59 119.845 246.616 119.872 246.643 119.872C246.669 119.872 246.695 119.898 246.721 119.898L246.224 119.689L245.858 119.532C245.519 119.401 245.336 119.323 245.1 119.244C245.074 119.244 245.048 119.218 245.022 119.218C244.943 119.192 244.865 119.166 244.787 119.14C244.63 119.087 244.421 119.035 244.159 118.957C243.898 118.878 243.767 118.852 243.558 118.8C243.401 118.774 243.192 118.721 242.879 118.643L242.486 118.565H242.46C242.46 118.565 242.46 118.565 242.434 118.565C240.395 118.251 234.018 118.486 229.548 120.943C229.47 120.996 229.365 121.048 229.287 121.074C229.26 121.1 229.234 121.1 229.208 121.126C228.372 121.727 227.771 122.329 227.457 122.904ZM222.987 127.792L222.909 127.896L222.935 127.87C222.961 127.844 222.987 127.818 222.987 127.792ZM221.393 131.66L221.314 131.895L221.55 131.137L221.393 131.66ZM231.038 147.448C231.09 147.422 231.142 147.395 231.195 147.369C230.646 147.212 230.123 147.056 229.6 146.873C228.45 146.481 227.378 146.062 226.411 145.592C226.307 145.723 226.202 145.853 226.098 145.958C226.019 146.088 225.941 146.193 225.862 146.324C225.784 146.454 225.706 146.585 225.653 146.716C225.601 146.846 225.549 146.977 225.523 147.082C225.523 147.108 225.523 147.134 225.496 147.134C226.594 147.761 227.875 148.336 229.26 148.833C229.313 148.781 229.365 148.702 229.417 148.65C229.548 148.519 229.679 148.389 229.835 148.258C229.992 148.127 230.201 147.97 230.384 147.84C230.593 147.735 230.803 147.605 231.038 147.448ZM226.647 123.139C226.62 123.165 226.62 123.165 226.594 123.191C226.49 123.296 226.359 123.426 226.228 123.557C226.15 123.636 226.072 123.714 225.993 123.792C226.124 123.662 226.255 123.531 226.385 123.4C226.49 123.296 226.594 123.217 226.647 123.139ZM229.313 152.074C229.26 152.022 229.234 151.996 229.182 151.943C229.13 151.865 229.051 151.787 228.999 151.708C228.921 151.604 228.868 151.499 228.816 151.395C228.764 151.264 228.712 151.159 228.659 151.029C228.633 150.95 228.607 150.872 228.607 150.793C227.535 150.323 226.568 149.774 225.758 149.147C225.784 149.225 225.836 149.277 225.862 149.356C225.915 149.434 225.967 149.539 226.045 149.617C226.202 149.852 226.385 150.062 226.62 150.297C226.647 150.349 226.699 150.375 226.725 150.427L227.143 150.793L227.274 150.898L227.378 150.976L227.248 150.872C227.117 150.767 226.986 150.637 226.856 150.532C226.908 150.584 226.96 150.61 227.013 150.663C227.666 151.212 228.45 151.682 229.313 152.074ZM234.88 152.754C233.547 152.466 232.24 152.126 231.012 151.734C231.012 151.839 231.012 151.917 231.038 152.022C231.038 152.074 231.064 152.1 231.064 152.153C231.064 152.205 231.09 152.257 231.116 152.283C231.169 152.388 231.221 152.519 231.273 152.623C231.352 152.728 231.43 152.858 231.534 152.963C232.737 153.381 234.044 153.695 235.351 153.956C235.325 153.93 235.272 153.904 235.246 153.852C235.194 153.799 235.142 153.747 235.089 153.695C235.037 153.616 234.985 153.564 234.959 153.486C234.906 153.381 234.854 153.25 234.854 153.146C234.854 153.067 234.854 152.963 234.88 152.884C234.828 152.858 234.854 152.806 234.88 152.754ZM227.405 125.125C227.509 125.335 227.64 125.544 227.823 125.753C227.927 125.883 228.058 126.04 228.189 126.171C228.241 126.223 228.319 126.302 228.398 126.354C229.051 126.093 229.757 125.857 230.463 125.648C231.639 125.282 232.868 124.969 234.122 124.681C234.828 124.524 235.56 124.367 236.292 124.263C236.919 124.158 237.572 124.054 238.2 123.949C238.906 123.845 239.585 123.766 240.265 123.688C240.918 123.609 241.572 123.557 242.199 123.505C242.931 123.453 243.637 123.4 244.316 123.374C247.688 123.217 250.511 123.4 252.001 123.845C251.844 123.662 251.687 123.479 251.53 123.322C251.504 123.296 251.452 123.243 251.426 123.217C251.269 123.06 251.086 122.878 250.929 122.721L250.903 122.695L250.877 122.668C250.354 122.224 249.648 121.675 249.1 121.257C247.819 120.734 243.506 120.577 238.723 121.152C237.52 121.283 236.292 121.492 235.063 121.727C232.214 122.276 229.417 123.113 227.143 124.263C227.169 124.55 227.248 124.864 227.405 125.152C227.405 125.099 227.405 125.125 227.405 125.125ZM244.081 149.46C243.663 149.434 243.245 149.408 242.826 149.382C241.18 149.251 239.481 149.068 237.729 148.781C236.867 148.65 236.004 148.493 235.142 148.31C234.723 148.467 234.331 148.624 233.965 148.781C233.547 148.964 233.181 149.173 232.841 149.356C232.632 149.486 232.449 149.617 232.266 149.748C232.92 149.931 233.573 150.088 234.227 150.218C235.429 150.48 236.658 150.689 237.86 150.872C237.938 150.846 238.017 150.82 238.121 150.793C238.749 150.584 239.454 150.401 240.212 150.244C240.605 150.166 240.997 150.088 241.415 150.009C241.729 149.957 242.042 149.905 242.356 149.879C242.643 149.852 242.905 149.8 243.192 149.774C243.48 149.748 243.741 149.722 244.029 149.696C244.238 149.669 244.473 149.669 244.682 149.643C244.97 149.617 245.257 149.617 245.545 149.617C245.728 149.617 245.911 149.617 246.094 149.617C246.355 149.617 246.616 149.617 246.878 149.617C247.087 149.617 247.296 149.617 247.505 149.643C247.714 149.643 247.897 149.669 248.106 149.669C248.289 149.669 248.472 149.696 248.655 149.722C248.734 149.722 248.786 149.722 248.864 149.748C248.89 149.748 248.89 149.722 248.917 149.722L248.943 149.696C248.995 149.643 249.073 149.565 249.126 149.513C248.969 149.513 248.786 149.539 248.603 149.539C247.322 149.565 245.754 149.565 244.081 149.46ZM221.785 141.985C221.785 142.115 221.759 142.272 221.785 142.429C221.785 142.664 221.811 142.9 221.863 143.135C221.889 143.266 221.916 143.396 221.968 143.527V143.553C221.968 143.553 221.968 143.553 221.968 143.579C221.968 143.605 221.994 143.631 221.994 143.658C222.334 144.442 222.883 145.174 223.641 145.827C223.641 145.696 223.641 145.592 223.667 145.461C223.693 145.33 223.693 145.2 223.745 145.069C223.771 144.965 223.797 144.834 223.85 144.729C223.902 144.599 223.954 144.468 224.033 144.337C224.059 144.311 224.085 144.259 224.085 144.233C223.118 143.553 222.334 142.821 221.785 141.985ZM222.438 144.677C222.491 144.782 222.543 144.912 222.621 145.043C222.647 145.069 222.647 145.121 222.674 145.147C222.517 144.834 222.334 144.416 222.046 143.762C222.203 144.154 222.308 144.416 222.438 144.677ZM224.373 147.84C224.373 147.84 224.346 147.84 224.373 147.84C224.346 147.84 224.346 147.84 224.373 147.84ZM224.373 147.866C224.373 147.866 224.399 147.918 224.425 147.944C224.425 147.918 224.399 147.892 224.373 147.866ZM251.766 143.292C251.452 143.292 251.112 143.292 250.799 143.292C250.223 143.292 249.622 143.292 248.995 143.266C248.211 143.239 247.401 143.213 246.564 143.161C245.414 143.083 244.186 142.978 242.957 142.847C242.121 142.769 241.258 142.638 240.395 142.534C239.847 142.455 239.271 142.377 238.696 142.272C238.278 142.194 237.834 142.142 237.416 142.063C237.102 142.011 236.788 141.959 236.475 141.88C235.952 141.776 235.429 141.671 234.906 141.567C234.802 141.54 234.723 141.514 234.619 141.514C234.567 141.514 234.514 141.54 234.488 141.54C234.305 141.593 234.122 141.645 233.965 141.697C233.73 141.776 233.521 141.828 233.312 141.906C233.181 141.932 233.077 141.985 232.946 142.011C232.841 142.037 232.763 142.063 232.658 142.115C232.554 142.142 232.475 142.168 232.371 142.22C232.266 142.246 232.188 142.272 232.11 142.325C232.031 142.351 231.953 142.377 231.874 142.403C231.77 142.429 231.691 142.481 231.587 142.507C231.482 142.534 231.404 142.586 231.299 142.612C231.195 142.638 231.09 142.69 231.012 142.717C230.933 142.743 230.855 142.795 230.776 142.821C230.672 142.873 230.541 142.926 230.437 142.952C230.332 143.004 230.254 143.03 230.149 143.083C230.097 143.109 230.071 143.109 230.018 143.135C230.175 143.187 230.358 143.239 230.541 143.292C231.038 143.448 231.534 143.579 232.031 143.71C232.502 143.841 232.972 143.945 233.443 144.076C233.939 144.18 234.41 144.311 234.906 144.416C235.481 144.546 236.056 144.651 236.632 144.755C237.024 144.834 237.442 144.912 237.834 144.965C237.886 144.965 237.938 144.938 237.991 144.938C238.174 144.886 238.357 144.86 238.54 144.808C238.723 144.755 238.906 144.729 239.088 144.703C239.271 144.677 239.454 144.625 239.637 144.599C239.794 144.572 239.951 144.546 240.108 144.52C240.265 144.494 240.395 144.468 240.552 144.442C240.683 144.416 240.787 144.389 240.918 144.389C241.075 144.363 241.232 144.337 241.389 144.311C241.546 144.285 241.728 144.259 241.885 144.233C242.042 144.206 242.199 144.18 242.382 144.154C242.565 144.128 242.722 144.102 242.905 144.076C243.062 144.05 243.218 144.024 243.401 144.024C243.584 143.997 243.793 143.971 243.976 143.971C244.185 143.945 244.395 143.919 244.604 143.919C244.813 143.893 244.996 143.893 245.205 143.867C245.388 143.841 245.571 143.841 245.754 143.814C245.989 143.788 246.198 143.788 246.407 143.762C246.616 143.762 246.852 143.736 247.061 143.736C247.27 143.736 247.505 143.71 247.714 143.71C247.923 143.71 248.132 143.71 248.342 143.684C248.577 143.684 248.812 143.684 249.047 143.684C249.256 143.684 249.465 143.684 249.675 143.684C249.91 143.684 250.145 143.684 250.38 143.71C250.589 143.71 250.799 143.736 251.008 143.736C251.243 143.762 251.478 143.762 251.713 143.788C251.949 143.814 252.21 143.841 252.445 143.867C252.681 143.893 252.89 143.919 253.125 143.945C253.203 143.945 253.308 143.971 253.308 143.997V144.024L253.36 143.919C253.36 143.919 253.36 143.945 253.386 143.919C253.386 143.919 253.386 143.919 253.412 143.919C253.412 143.919 253.412 143.893 253.439 143.893C253.465 143.841 253.491 143.814 253.491 143.762C253.491 143.762 253.491 143.736 253.517 143.736C253.543 143.71 253.543 143.684 253.569 143.658C253.595 143.605 253.622 143.579 253.622 143.527V143.501C253.648 143.475 253.648 143.422 253.674 143.396C253.674 143.37 253.7 143.37 253.7 143.344C253.726 143.318 253.726 143.292 253.752 143.239C253.752 143.239 253.752 143.213 253.778 143.213C253.491 143.239 253.177 143.266 252.837 143.266C252.471 143.292 252.132 143.292 251.766 143.292ZM225.314 124.524C225.314 124.524 225.287 124.55 225.261 124.576C225.235 124.603 225.209 124.629 225.183 124.655C225.209 124.629 225.235 124.603 225.261 124.576C225.261 124.576 225.287 124.55 225.314 124.524ZM247.244 125.413C246.669 125.413 246.068 125.439 245.466 125.465C244.944 125.491 244.421 125.517 243.898 125.57C243.428 125.596 242.931 125.648 242.434 125.7C241.99 125.753 241.519 125.805 241.049 125.857C240.578 125.91 240.108 125.962 239.637 126.04C239.167 126.093 238.696 126.171 238.226 126.249C237.703 126.328 237.154 126.432 236.632 126.511C236.083 126.615 235.534 126.72 234.985 126.851C234.488 126.955 233.991 127.06 233.521 127.19C232.58 127.426 231.665 127.661 230.75 127.948C230.776 127.948 230.803 127.975 230.803 127.975C231.012 128.079 231.247 128.184 231.482 128.288C231.639 128.367 231.796 128.419 231.953 128.497C232.162 128.576 232.397 128.68 232.606 128.759C232.789 128.837 232.998 128.915 233.207 128.994C233.416 129.072 233.626 129.125 233.835 129.203C234.018 129.255 234.174 129.308 234.357 129.386C234.54 129.438 234.723 129.491 234.88 129.543C235.037 129.595 235.22 129.647 235.403 129.7C235.56 129.752 235.691 129.778 235.847 129.83C235.978 129.856 236.135 129.909 236.266 129.935C236.396 129.961 236.527 130.013 236.658 130.039C236.788 130.066 236.919 130.118 237.076 130.144C237.128 130.17 237.207 130.17 237.259 130.196C237.363 130.222 237.494 130.249 237.599 130.275C237.703 130.301 237.782 130.327 237.886 130.353C237.912 130.353 237.965 130.379 237.991 130.379C238.2 130.353 238.409 130.301 238.618 130.275C239.062 130.196 239.507 130.118 239.977 130.066C240.291 130.013 240.605 129.961 240.944 129.935C241.232 129.883 241.519 129.856 241.807 129.83C242.121 129.778 242.434 129.752 242.774 129.726C243.14 129.673 243.532 129.647 243.898 129.621C244.212 129.595 244.551 129.569 244.865 129.543C245.205 129.517 245.545 129.491 245.858 129.464C246.224 129.438 246.564 129.412 246.904 129.412C247.27 129.386 247.662 129.386 248.028 129.36C248.472 129.36 248.89 129.334 249.309 129.334C249.831 129.334 250.328 129.281 250.825 129.281C252.471 129.334 253.935 129.674 255.085 129.674C255.059 129.595 255.033 129.569 255.033 129.491C255.007 129.412 254.981 129.334 254.955 129.229C254.928 129.151 254.902 129.072 254.876 128.994C254.85 128.915 254.824 128.811 254.798 128.733C254.772 128.654 254.745 128.576 254.719 128.497C254.693 128.419 254.667 128.34 254.615 128.236C254.589 128.157 254.562 128.079 254.51 128.001C254.484 127.922 254.432 127.844 254.406 127.739C254.38 127.661 254.327 127.582 254.301 127.504C254.275 127.426 254.223 127.347 254.197 127.269C254.17 127.19 254.118 127.112 254.092 127.06C254.066 126.981 254.014 126.903 253.987 126.824C253.961 126.746 253.909 126.694 253.883 126.615C253.831 126.537 253.804 126.458 253.752 126.38C253.726 126.302 253.674 126.249 253.622 126.171C253.595 126.119 253.569 126.066 253.517 126.014C252.158 125.544 249.936 125.361 247.244 125.413ZM255.085 129.543C255.059 129.543 255.059 129.543 255.085 129.543C255.059 129.543 255.059 129.569 255.085 129.543C255.085 129.543 255.059 129.569 255.085 129.543ZM226.777 123.034C226.751 123.06 226.699 123.087 226.673 123.139L226.777 123.034ZM255.634 135.607C255.503 135.633 255.347 135.659 255.216 135.685C255.138 135.685 255.059 135.711 254.981 135.711C254.955 135.711 254.902 135.711 254.876 135.738C254.693 135.764 254.536 135.79 254.353 135.79C254.118 135.816 253.883 135.842 253.648 135.868C253.465 135.894 253.256 135.894 253.073 135.921C252.863 135.947 252.628 135.947 252.419 135.973C252.184 135.973 251.949 135.999 251.713 135.999C251.504 135.999 251.321 135.999 251.112 136.025C250.929 136.025 250.772 136.025 250.589 136.025C250.38 136.025 250.197 136.025 249.988 136.025C249.831 136.025 249.701 136.025 249.544 136.025C249.413 136.025 249.283 136.025 249.178 136.025C249.047 136.025 248.943 136.025 248.812 136.025C248.681 136.025 248.525 136.025 248.394 135.999C248.289 135.999 248.159 135.999 248.054 135.999C247.949 135.999 247.871 135.999 247.766 135.973C247.61 135.973 247.479 135.947 247.322 135.947C247.191 135.947 247.061 135.921 246.956 135.921C246.852 135.921 246.747 135.894 246.616 135.894C246.512 135.894 246.433 135.894 246.329 135.868C246.198 135.868 246.094 135.842 245.963 135.842C245.78 135.842 245.623 135.816 245.44 135.79C245.257 135.764 245.074 135.764 244.891 135.738C244.656 135.711 244.421 135.685 244.212 135.659C243.663 135.607 243.088 135.529 242.539 135.45C242.304 135.424 242.068 135.398 241.833 135.346C241.65 135.319 241.441 135.293 241.258 135.267C241.127 135.241 241.023 135.241 240.892 135.215C240.761 135.189 240.657 135.189 240.526 135.163C240.422 135.136 240.317 135.136 240.239 135.11C240.134 135.084 240.029 135.084 239.925 135.058C239.82 135.032 239.742 135.032 239.637 135.006C239.533 134.98 239.454 134.98 239.35 134.953C239.245 134.927 239.167 134.927 239.062 134.901C238.958 134.875 238.853 134.875 238.775 134.849C238.696 134.823 238.592 134.823 238.513 134.797C238.409 134.77 238.33 134.771 238.226 134.744C238.095 134.718 237.991 134.692 237.86 134.666C237.782 134.64 237.677 134.64 237.599 134.614C237.468 134.588 237.337 134.561 237.207 134.535C237.128 134.509 237.076 134.509 236.997 134.483C236.841 134.457 236.71 134.431 236.579 134.378C236.449 134.352 236.344 134.326 236.213 134.3C236.083 134.274 235.978 134.248 235.847 134.222C235.717 134.195 235.612 134.169 235.481 134.143C235.272 134.091 235.089 134.039 234.88 133.986C234.802 133.96 234.723 133.934 234.645 133.908C234.619 133.908 234.593 133.934 234.567 133.934C234.279 134.013 233.965 134.091 233.678 134.143C232.789 134.378 231.927 134.614 231.09 134.901C230.698 135.032 230.306 135.163 229.914 135.293C230.123 135.372 230.358 135.476 230.593 135.555C230.855 135.659 231.116 135.764 231.404 135.842C231.717 135.947 232.057 136.077 232.371 136.182C232.58 136.26 232.815 136.313 233.024 136.391C233.286 136.469 233.547 136.548 233.782 136.626C234.018 136.705 234.253 136.757 234.488 136.835C234.697 136.888 234.906 136.94 235.115 137.018C235.298 137.071 235.508 137.123 235.69 137.175C235.873 137.228 236.083 137.28 236.266 137.332C236.475 137.384 236.71 137.437 236.919 137.489C237.102 137.541 237.285 137.567 237.468 137.62C237.625 137.646 237.808 137.698 237.991 137.724C238.043 137.75 238.121 137.75 238.174 137.776H238.2C238.278 137.75 238.383 137.75 238.461 137.724C238.54 137.698 238.618 137.698 238.696 137.672C238.775 137.646 238.879 137.646 238.958 137.62C239.036 137.62 239.089 137.593 239.167 137.593C239.298 137.567 239.402 137.541 239.533 137.541C239.611 137.515 239.69 137.515 239.794 137.489C239.899 137.463 239.977 137.463 240.082 137.437C240.186 137.41 240.291 137.41 240.369 137.384C240.474 137.358 240.605 137.358 240.709 137.332C240.761 137.332 240.84 137.306 240.892 137.306C241.023 137.28 241.18 137.254 241.31 137.254C241.441 137.228 241.572 137.201 241.702 137.201C241.833 137.175 241.938 137.175 242.068 137.149C242.199 137.123 242.356 137.123 242.486 137.097C242.617 137.071 242.748 137.071 242.879 137.045C243.035 137.018 243.192 137.018 243.323 136.992C243.532 136.966 243.715 136.94 243.924 136.914C244.133 136.888 244.342 136.862 244.551 136.862C244.734 136.835 244.917 136.835 245.127 136.809C245.336 136.783 245.545 136.783 245.754 136.757C245.989 136.731 246.25 136.731 246.486 136.705C246.721 136.679 246.956 136.679 247.191 136.652C247.453 136.626 247.74 136.626 248.002 136.626C248.237 136.626 248.446 136.6 248.681 136.6C248.943 136.6 249.204 136.6 249.465 136.574C249.727 136.574 249.988 136.574 250.25 136.574C250.537 136.574 250.825 136.574 251.112 136.574C251.426 136.574 251.74 136.6 252.027 136.6C252.367 136.626 252.68 136.626 252.994 136.652C253.36 136.679 253.726 136.679 254.092 136.705C254.615 136.757 255.111 136.862 255.582 136.862C255.582 136.862 255.582 136.862 255.582 136.835C255.582 136.783 255.582 136.757 255.608 136.705C255.608 136.705 255.608 136.705 255.608 136.679C255.608 136.652 255.608 136.652 255.608 136.626V136.6C255.608 136.574 255.608 136.548 255.608 136.548L255.477 136.522C255.477 136.496 255.373 136.47 255.373 136.443L255.503 136.417L255.556 136.391L255.582 136.365C255.582 136.365 255.608 136.365 255.608 136.339C255.608 136.313 255.608 136.313 255.608 136.287V136.26C255.608 136.234 255.608 136.208 255.608 136.156C255.608 136.13 255.608 136.104 255.608 136.077C255.608 136.077 255.608 136.077 255.608 136.051C255.608 136.025 255.608 135.973 255.608 135.947V135.921C255.608 135.894 255.608 135.842 255.608 135.816C255.608 135.816 255.608 135.816 255.608 135.79C255.608 135.764 255.608 135.738 255.608 135.711C255.608 135.685 255.608 135.633 255.608 135.607C255.66 135.607 255.66 135.607 255.634 135.607ZM223.51 131.294C223.588 131.372 223.641 131.477 223.719 131.555C223.98 131.869 224.294 132.157 224.634 132.444C224.948 132.706 225.287 132.941 225.653 133.202C225.941 133.385 226.228 133.568 226.542 133.751C227.588 133.254 228.738 132.784 229.966 132.366C229.94 132.366 229.914 132.34 229.888 132.34C229.626 132.235 229.391 132.131 229.156 132C228.947 131.895 228.764 131.817 228.555 131.712C228.319 131.608 228.11 131.477 227.901 131.373C227.64 131.216 227.405 131.085 227.169 130.928C226.96 130.797 226.751 130.667 226.568 130.51C226.307 130.301 226.045 130.118 225.836 129.909C225.836 129.909 225.836 129.909 225.81 129.909C225.209 130.222 224.66 130.536 224.137 130.876C223.902 130.98 223.719 131.137 223.51 131.294Z" fill="#FFCC4E"/>
<path d="M257.568 137.855C257.568 137.881 257.568 137.907 257.568 137.907C257.568 137.986 257.568 138.038 257.542 138.116C257.516 138.299 257.516 138.482 257.49 138.665C257.464 139.005 257.412 139.345 257.359 139.658C257.333 139.815 257.307 139.946 257.307 140.077C257.281 140.181 257.255 140.312 257.229 140.443C257.176 140.652 257.124 140.887 257.072 141.122C256.993 141.41 256.915 141.697 256.837 141.985C256.81 142.089 256.784 142.168 256.758 142.272C256.758 142.298 256.758 142.298 256.758 142.325C256.758 142.325 256.758 142.325 256.758 142.351C256.758 142.351 256.758 142.377 256.732 142.377C256.706 142.429 256.627 142.508 256.575 142.534C256.549 142.56 256.523 142.586 256.497 142.586C256.497 142.586 256.497 142.586 256.471 142.586C256.366 142.638 256.262 142.691 256.105 142.743C256 142.769 255.869 142.821 255.739 142.847C255.608 142.873 255.451 142.926 255.321 142.952C255.164 142.978 255.007 143.004 254.85 143.03C254.693 143.056 254.51 143.083 254.327 143.109C254.144 143.135 253.961 143.161 253.752 143.161H253.726C253.439 143.187 253.125 143.213 252.785 143.213C252.471 143.239 252.132 143.239 251.766 143.239C251.452 143.239 251.112 143.239 250.799 143.239C250.224 143.239 249.622 143.239 248.995 143.213C248.211 143.187 247.401 143.161 246.564 143.109C245.414 143.03 244.186 142.926 242.957 142.795C242.121 142.717 241.258 142.586 240.395 142.481C239.847 142.403 239.271 142.325 238.696 142.22C238.278 142.142 237.834 142.089 237.416 142.011C237.102 141.959 236.788 141.906 236.475 141.828C235.952 141.723 235.429 141.619 234.906 141.514C234.802 141.488 234.723 141.462 234.619 141.462C234.357 141.41 234.122 141.357 233.861 141.279C233.495 141.201 233.129 141.096 232.763 140.992C232.345 140.887 231.953 140.782 231.535 140.652C231.142 140.547 230.75 140.416 230.358 140.286C230.175 140.233 229.966 140.155 229.783 140.103C229.626 140.051 229.47 139.998 229.313 139.946C228.895 139.789 228.502 139.658 228.11 139.502C227.718 139.345 227.326 139.188 226.96 139.005C226.49 138.796 226.019 138.561 225.601 138.325C225.287 138.142 224.974 137.959 224.686 137.776C224.503 137.646 224.32 137.541 224.137 137.411C223.588 137.018 223.118 136.626 222.7 136.182C221.968 135.398 221.471 134.561 221.262 133.62C221.158 133.098 221.131 132.549 221.236 131.974C221.236 131.948 221.236 131.948 221.236 131.921L221.262 131.817L221.34 131.582L221.497 131.059L221.55 130.928L221.654 130.562L222.177 129.255C222.203 129.229 222.203 129.177 222.229 129.151C222.386 128.837 222.569 128.445 222.883 127.818V127.792L222.909 127.765C222.935 127.739 222.935 127.713 222.961 127.687L223.013 127.582C223.066 127.504 223.092 127.426 223.144 127.347C223.118 127.399 223.092 127.452 223.066 127.504C222.883 127.87 222.621 128.471 222.674 129.203C222.674 129.334 222.7 129.491 222.726 129.621C222.83 130.17 223.092 130.693 223.484 131.19C223.562 131.268 223.615 131.373 223.693 131.451C223.954 131.765 224.268 132.052 224.608 132.34C224.921 132.601 225.261 132.836 225.627 133.098C225.915 133.281 226.202 133.464 226.516 133.647C226.516 133.647 226.516 133.647 226.542 133.647C226.777 133.777 227.039 133.934 227.3 134.065C227.588 134.222 227.875 134.352 228.163 134.483C228.424 134.614 228.685 134.718 228.947 134.849C229.208 134.954 229.496 135.084 229.757 135.189C229.783 135.215 229.835 135.215 229.862 135.241C230.071 135.319 230.306 135.424 230.541 135.502C230.803 135.607 231.064 135.712 231.352 135.79C231.665 135.895 232.005 136.025 232.319 136.13C232.528 136.208 232.763 136.26 232.972 136.339C233.234 136.417 233.495 136.496 233.73 136.574C233.965 136.653 234.201 136.705 234.436 136.783C234.645 136.835 234.854 136.888 235.063 136.966C235.246 137.018 235.455 137.071 235.638 137.123C235.821 137.175 236.03 137.228 236.213 137.28C236.422 137.332 236.658 137.384 236.867 137.437C237.05 137.489 237.233 137.515 237.416 137.567C237.572 137.593 237.755 137.646 237.938 137.672C237.991 137.698 238.069 137.698 238.121 137.724C238.226 137.75 238.33 137.776 238.435 137.803C238.618 137.855 238.827 137.881 239.01 137.933C239.324 137.986 239.611 138.064 239.925 138.116C240.108 138.142 240.291 138.195 240.5 138.221C240.814 138.273 241.153 138.325 241.467 138.378C241.807 138.43 242.147 138.482 242.487 138.534C243.035 138.613 243.558 138.691 244.107 138.77C244.525 138.822 244.97 138.874 245.388 138.927C245.702 138.953 246.015 139.005 246.329 139.031C246.512 139.057 246.695 139.057 246.878 139.083C247.113 139.11 247.374 139.136 247.61 139.136C247.897 139.162 248.185 139.162 248.446 139.188C248.838 139.214 249.204 139.24 249.57 139.24C249.831 139.24 250.067 139.266 250.328 139.266C250.642 139.266 250.929 139.266 251.217 139.266C251.583 139.266 251.949 139.266 252.288 139.24C252.576 139.24 252.837 139.214 253.099 139.188C253.308 139.162 253.491 139.162 253.7 139.136C253.935 139.11 254.144 139.083 254.353 139.057C254.589 139.031 254.824 138.979 255.059 138.953C255.19 138.927 255.294 138.9 255.425 138.874C255.582 138.848 255.765 138.796 255.922 138.744C256.131 138.691 256.314 138.613 256.471 138.561C256.549 138.534 256.601 138.508 256.68 138.482C256.784 138.43 256.863 138.378 256.967 138.352C257.046 138.299 257.124 138.273 257.202 138.221C257.255 138.169 257.333 138.142 257.385 138.09C257.438 138.038 257.49 138.012 257.516 137.959C257.516 137.907 257.542 137.881 257.568 137.855L257.542 137.959C257.568 137.907 257.568 137.881 257.568 137.855ZM235.325 153.956C234.018 153.695 232.737 153.381 231.508 152.963C230.724 152.702 229.992 152.414 229.313 152.074C228.45 151.656 227.666 151.212 227.039 150.689C226.986 150.637 226.934 150.61 226.882 150.558C227.013 150.663 227.143 150.793 227.274 150.898L227.405 151.003C227.483 151.081 227.561 151.133 227.64 151.186C227.718 151.238 227.797 151.316 227.875 151.368C228.058 151.499 228.215 151.63 228.372 151.734C228.476 151.813 228.607 151.891 228.712 151.97C228.764 151.996 228.79 152.022 228.842 152.048C228.868 152.074 228.921 152.1 228.947 152.127C228.973 152.153 229.025 152.179 229.051 152.205L229.26 152.336L230.045 152.806C230.228 152.911 230.437 153.015 230.672 153.12C230.75 153.172 230.829 153.198 230.933 153.25C230.933 153.25 230.959 153.25 230.959 153.277C230.959 153.277 230.959 153.277 230.986 153.277C231.221 153.407 231.456 153.512 231.691 153.616C231.744 153.643 231.796 153.669 231.848 153.695C231.927 153.721 232.005 153.747 232.057 153.773C232.972 154.139 233.861 154.401 234.723 154.61C236.083 154.923 237.311 155.08 238.278 155.159C239.167 155.211 239.82 155.211 240.186 155.185L240.212 155.159C240.212 155.159 240.212 155.132 240.239 155.132C240.265 155.132 240.291 155.159 240.343 155.159C240.448 155.159 240.578 155.028 240.683 155.028C240.892 155.002 241.049 155.132 241.18 154.871V154.976C241.284 154.976 241.389 155.002 241.519 155.002L241.546 155.028C241.572 155.028 241.572 155.028 241.598 155.028H241.624C241.65 155.028 241.676 155.028 241.702 155.028C242.016 154.976 242.434 154.923 242.931 154.819H242.957C243.088 154.793 243.218 154.766 243.349 154.74C243.48 154.714 243.61 154.688 243.741 154.636C243.767 154.636 243.793 154.61 243.82 154.61H243.846C243.872 154.61 243.872 154.61 243.898 154.61C243.95 154.61 243.976 154.584 244.029 154.584H244.055C244.159 154.557 244.264 154.531 244.342 154.505C244.395 154.479 244.421 154.479 244.473 154.479C244.525 154.453 244.578 154.453 244.63 154.427C244.682 154.401 244.708 154.401 244.761 154.374C242.852 154.793 239.062 154.688 235.325 153.956ZM224.582 128.262C224.712 128.523 224.843 128.759 225.026 129.02C225.235 129.308 225.496 129.595 225.81 129.856C225.81 129.856 225.81 129.856 225.836 129.856C226.072 130.066 226.307 130.275 226.568 130.458C226.751 130.588 226.96 130.745 227.169 130.876C227.405 131.033 227.64 131.163 227.901 131.32C228.11 131.451 228.319 131.556 228.555 131.66C228.738 131.765 228.947 131.843 229.156 131.948C229.391 132.052 229.626 132.183 229.888 132.287C229.914 132.287 229.94 132.314 229.966 132.314C230.175 132.392 230.358 132.47 230.567 132.575C230.829 132.679 231.09 132.784 231.378 132.889C231.561 132.967 231.77 133.019 231.953 133.098C232.188 133.176 232.423 133.255 232.658 133.333C232.868 133.411 233.103 133.464 233.312 133.542C233.495 133.594 233.704 133.647 233.887 133.725C234.044 133.777 234.227 133.83 234.384 133.882C234.462 133.908 234.514 133.934 234.593 133.934C234.671 133.96 234.749 133.986 234.828 134.013C235.011 134.065 235.22 134.117 235.429 134.169C235.56 134.195 235.664 134.222 235.795 134.248C235.926 134.274 236.03 134.3 236.161 134.326C236.292 134.352 236.396 134.378 236.527 134.405C236.658 134.431 236.814 134.483 236.945 134.509C237.024 134.535 237.076 134.535 237.154 134.561C237.285 134.588 237.416 134.614 237.546 134.64C237.625 134.666 237.729 134.666 237.808 134.692C237.938 134.718 238.043 134.744 238.174 134.771C238.278 134.797 238.357 134.797 238.461 134.823C238.54 134.849 238.644 134.849 238.723 134.875C238.827 134.901 238.906 134.901 239.01 134.927C239.115 134.954 239.193 134.954 239.298 134.98C239.402 135.006 239.481 135.006 239.585 135.032C239.69 135.058 239.768 135.058 239.873 135.084C239.977 135.11 240.082 135.11 240.186 135.136C240.291 135.163 240.395 135.163 240.474 135.189C240.605 135.215 240.709 135.215 240.84 135.241C240.97 135.267 241.075 135.267 241.206 135.293C241.389 135.319 241.598 135.346 241.781 135.372C242.016 135.398 242.251 135.424 242.487 135.476C243.035 135.555 243.61 135.607 244.159 135.685C244.395 135.712 244.63 135.738 244.839 135.764C245.022 135.79 245.205 135.79 245.388 135.816C245.571 135.842 245.728 135.842 245.911 135.868C246.041 135.868 246.146 135.895 246.277 135.895C246.381 135.895 246.46 135.921 246.564 135.921C246.669 135.921 246.773 135.947 246.904 135.947C247.035 135.947 247.165 135.973 247.27 135.973C247.427 135.973 247.557 135.999 247.714 135.999C247.819 135.999 247.897 135.999 248.002 136.025C248.132 136.025 248.237 136.025 248.342 136.025C248.472 136.025 248.629 136.025 248.76 136.051C248.89 136.051 248.995 136.051 249.126 136.051C249.256 136.051 249.387 136.051 249.492 136.051C249.648 136.051 249.805 136.051 249.936 136.051C250.145 136.051 250.328 136.051 250.537 136.051C250.72 136.051 250.877 136.051 251.06 136.051C251.269 136.051 251.478 136.051 251.661 136.025C251.896 136.025 252.132 135.999 252.367 135.999C252.602 135.999 252.811 135.973 253.02 135.947C253.229 135.921 253.412 135.921 253.595 135.895C253.831 135.868 254.066 135.842 254.301 135.816C254.484 135.79 254.641 135.764 254.824 135.764C254.85 135.764 254.902 135.764 254.928 135.738C255.007 135.738 255.085 135.712 255.164 135.712C255.32 135.685 255.451 135.659 255.582 135.633C255.608 135.633 255.634 135.633 255.634 135.633C255.791 135.607 255.922 135.581 256.052 135.555C256.131 135.529 256.235 135.502 256.314 135.502C256.418 135.476 256.523 135.45 256.601 135.424C256.732 135.372 256.837 135.346 256.915 135.293C256.941 135.267 256.967 135.267 256.993 135.241C257.072 135.215 257.124 135.163 257.176 135.136C257.255 135.084 257.307 135.032 257.333 135.006C257.359 134.98 257.359 134.954 257.385 134.954C257.412 134.927 257.412 134.875 257.438 134.849C257.438 134.797 257.438 134.771 257.438 134.718C257.438 134.771 257.438 134.797 257.438 134.849C257.438 134.849 257.438 134.849 257.438 134.823C257.438 134.797 257.438 134.771 257.438 134.718L257.412 134.561C257.412 134.588 257.412 134.614 257.412 134.614C257.412 134.588 257.412 134.561 257.412 134.509L257.307 133.725V133.673C257.307 133.673 257.307 133.673 257.307 133.647C257.15 132.889 257.046 132.418 256.967 132.052V132.026C256.889 131.66 256.81 131.425 256.706 131.085C256.654 130.954 256.627 130.85 256.575 130.693L256.471 130.432L256.418 130.353H256.392H256.418C256.418 130.379 256.392 130.432 256.392 130.458C256.366 130.51 256.34 130.562 256.288 130.615C256.288 130.615 256.288 130.615 256.261 130.641C256.209 130.693 256.183 130.719 256.131 130.771C256.078 130.824 256.026 130.85 255.974 130.902C255.922 130.928 255.869 130.98 255.791 131.007C255.686 131.059 255.582 131.111 255.477 131.137C255.399 131.163 255.294 131.216 255.19 131.242C255.111 131.268 255.007 131.294 254.928 131.32C254.824 131.346 254.693 131.373 254.562 131.399C254.406 131.425 254.275 131.451 254.118 131.477C253.961 131.503 253.831 131.529 253.648 131.556C253.465 131.582 253.282 131.608 253.099 131.608C252.916 131.634 252.733 131.634 252.524 131.66C252.341 131.686 252.132 131.686 251.949 131.686C251.74 131.686 251.557 131.712 251.347 131.712C251.165 131.712 250.982 131.712 250.799 131.712C250.642 131.712 250.511 131.712 250.354 131.712C250.197 131.712 250.041 131.712 249.884 131.712C249.727 131.712 249.57 131.712 249.387 131.712C249.256 131.712 249.126 131.712 249.021 131.712C248.917 131.712 248.786 131.712 248.681 131.712C248.603 131.712 248.498 131.712 248.42 131.712C248.315 131.712 248.211 131.712 248.08 131.686C247.976 131.686 247.871 131.686 247.74 131.66C247.61 131.66 247.505 131.634 247.374 131.634C247.244 131.634 247.087 131.608 246.956 131.608C246.852 131.608 246.747 131.582 246.643 131.582C246.538 131.582 246.433 131.556 246.329 131.556C246.224 131.556 246.094 131.529 245.989 131.529C245.858 131.529 245.754 131.503 245.623 131.503C245.492 131.503 245.362 131.477 245.257 131.477C245.048 131.451 244.839 131.425 244.63 131.399C243.898 131.32 243.166 131.216 242.408 131.111C242.251 131.085 242.121 131.059 241.964 131.033C241.833 131.007 241.676 130.98 241.546 130.954C241.415 130.928 241.284 130.902 241.153 130.902C241.075 130.876 240.971 130.876 240.892 130.85C240.761 130.824 240.657 130.798 240.526 130.798C240.448 130.771 240.369 130.771 240.291 130.745C240.212 130.719 240.108 130.719 240.03 130.693C239.925 130.667 239.847 130.667 239.742 130.641C239.664 130.615 239.559 130.615 239.481 130.588C239.402 130.562 239.324 130.562 239.245 130.536C239.167 130.51 239.062 130.51 238.984 130.484C238.879 130.458 238.775 130.432 238.67 130.432C238.592 130.405 238.487 130.405 238.409 130.379C238.304 130.353 238.226 130.327 238.121 130.327C238.043 130.301 237.991 130.301 237.912 130.275C237.886 130.275 237.834 130.249 237.808 130.249C237.703 130.222 237.625 130.196 237.52 130.17C237.416 130.144 237.285 130.118 237.18 130.092C237.128 130.066 237.05 130.066 236.997 130.039C236.867 130.013 236.736 129.961 236.579 129.935C236.449 129.909 236.318 129.857 236.187 129.83C236.056 129.804 235.9 129.752 235.769 129.726C235.612 129.674 235.481 129.647 235.325 129.595C235.142 129.543 234.985 129.491 234.802 129.438C234.619 129.386 234.436 129.334 234.279 129.281C234.096 129.229 233.939 129.177 233.756 129.099C233.547 129.02 233.338 128.968 233.129 128.889C232.92 128.811 232.737 128.733 232.528 128.654C232.293 128.576 232.083 128.471 231.874 128.393C231.717 128.34 231.561 128.262 231.404 128.184C231.169 128.079 230.959 127.975 230.724 127.87C230.698 127.87 230.672 127.844 230.672 127.844C230.515 127.765 230.358 127.687 230.201 127.609C229.966 127.478 229.757 127.347 229.548 127.217C229.417 127.138 229.26 127.034 229.13 126.955C228.973 126.851 228.816 126.72 228.659 126.615C228.529 126.511 228.424 126.432 228.319 126.328C228.241 126.276 228.189 126.197 228.11 126.145C227.98 126.014 227.849 125.857 227.744 125.727C227.588 125.518 227.431 125.308 227.326 125.099C227.326 125.099 227.326 125.073 227.3 125.073C227.143 124.786 227.065 124.472 227.039 124.184C227.039 124.158 227.039 124.132 227.039 124.106C227.013 123.766 227.091 123.4 227.248 123.06C227.274 123.008 227.3 122.93 227.352 122.878C227.692 122.276 228.267 121.701 229.13 121.126C229.156 121.1 229.182 121.1 229.208 121.074L229.051 121.179C228.816 121.335 228.633 121.466 228.476 121.597C228.189 121.806 227.98 121.963 227.771 122.12L227.744 122.146C227.718 122.172 227.666 122.198 227.64 122.224L227.614 122.25C227.588 122.276 227.561 122.302 227.509 122.329L227.431 122.407C227.222 122.59 227.013 122.773 226.803 122.93L226.725 123.008L226.594 123.113C226.516 123.191 226.437 123.27 226.359 123.348C226.228 123.479 226.098 123.609 225.967 123.74C225.941 123.766 225.915 123.792 225.862 123.845C225.81 123.897 225.784 123.923 225.732 123.975C225.653 124.054 225.601 124.132 225.523 124.184C225.444 124.263 225.366 124.341 225.287 124.446L225.261 124.472L225.235 124.498L225.078 124.681C225.052 124.707 225.052 124.733 225.026 124.733C225.026 124.733 225.026 124.733 225.026 124.759C224.712 125.178 224.503 125.596 224.373 126.014C224.137 126.72 224.163 127.373 224.425 128.027C224.503 128.105 224.529 128.184 224.582 128.262ZM255.634 145.069C255.582 145.121 255.53 145.148 255.477 145.2C255.347 145.278 255.19 145.357 255.007 145.435C254.928 145.461 254.824 145.487 254.745 145.513C254.536 145.566 254.301 145.644 254.04 145.696C253.857 145.723 253.674 145.775 253.465 145.801C253.203 145.827 252.942 145.879 252.654 145.906C252.341 145.932 252.027 145.958 251.661 145.984C251.243 146.01 250.799 146.036 250.328 146.036C249.727 146.036 249.1 146.036 248.42 146.036C246.094 145.984 243.401 145.801 240.631 145.435C239.951 145.357 239.245 145.252 238.566 145.148C238.33 145.121 238.095 145.069 237.86 145.017C237.468 144.938 237.05 144.886 236.658 144.808C236.083 144.703 235.508 144.572 234.933 144.468C234.436 144.363 233.939 144.259 233.469 144.128C232.998 144.024 232.528 143.893 232.057 143.762C231.561 143.631 231.064 143.475 230.567 143.344C230.384 143.292 230.228 143.239 230.045 143.187C229.731 143.083 229.443 142.978 229.13 142.873C228.555 142.664 228.006 142.481 227.483 142.246C227.169 142.115 226.856 141.985 226.542 141.828C226.202 141.671 225.862 141.514 225.549 141.331C224.503 140.782 223.588 140.181 222.83 139.528C222.255 139.031 221.785 138.482 221.419 137.933C221.027 137.306 220.792 136.653 220.713 135.947C220.713 135.842 220.687 135.712 220.687 135.581C220.687 135.555 220.687 135.529 220.687 135.502L220.661 136.339L220.635 136.731C220.635 136.862 220.635 136.966 220.661 137.071C220.687 137.698 220.713 138.142 220.739 138.534C220.739 138.587 220.739 138.639 220.739 138.665C220.765 138.874 220.792 139.083 220.818 139.293C220.818 139.319 220.818 139.319 220.818 139.345C220.818 139.397 220.844 139.449 220.844 139.528V139.554V139.58C220.844 139.606 220.844 139.606 220.844 139.632C220.844 139.685 220.87 139.737 220.87 139.763C220.896 139.868 220.896 139.972 220.922 140.103C220.922 140.181 220.948 140.233 220.948 140.312C220.948 140.338 220.948 140.364 220.975 140.39C220.975 140.416 220.975 140.443 221.001 140.469C221.001 140.495 221.027 140.495 221.027 140.521C221.184 141.044 221.445 141.54 221.759 142.011C222.308 142.821 223.092 143.579 224.059 144.233C224.765 144.729 225.549 145.174 226.411 145.592C227.405 146.062 228.476 146.507 229.6 146.873C230.123 147.056 230.646 147.212 231.195 147.369C231.613 147.5 232.057 147.605 232.502 147.735C233.26 147.918 234.018 148.101 234.802 148.258C234.906 148.284 235.037 148.31 235.142 148.336C236.004 148.519 236.867 148.676 237.729 148.807C239.454 149.068 241.18 149.277 242.826 149.408C243.245 149.434 243.663 149.46 244.081 149.487C245.754 149.591 247.322 149.617 248.655 149.565C248.838 149.565 248.995 149.565 249.178 149.539C249.701 149.513 250.171 149.487 250.616 149.434C251.06 149.382 251.478 149.33 251.844 149.251C252.158 149.199 252.419 149.121 252.654 149.042C252.89 148.964 253.073 148.885 253.177 148.781C253.203 148.781 253.203 148.755 253.229 148.755L253.595 148.336C253.909 147.918 254.144 147.605 254.327 147.343C254.38 147.291 254.406 147.212 254.458 147.16C254.484 147.108 254.51 147.082 254.536 147.056L254.562 147.03C254.641 146.925 254.693 146.82 254.772 146.716C254.902 146.533 255.007 146.35 255.111 146.167C255.164 146.062 255.216 145.958 255.294 145.853L255.373 145.696L255.477 145.513L255.608 145.252L255.634 145.069C255.634 145.043 255.66 145.043 255.634 145.069ZM249.204 151.316C248.42 151.421 247.479 151.499 246.407 151.525C244.212 151.578 241.519 151.395 238.723 151.029C238.435 151.003 238.148 150.95 237.86 150.898C236.658 150.715 235.429 150.506 234.227 150.245C233.573 150.088 232.894 149.931 232.266 149.774C231.221 149.513 230.228 149.199 229.26 148.859C227.875 148.363 226.594 147.788 225.496 147.16C224.791 146.742 224.163 146.298 223.641 145.827C222.883 145.174 222.334 144.442 221.994 143.658C221.994 143.631 221.968 143.605 221.968 143.579L222.046 143.762C222.334 144.416 222.543 144.834 222.674 145.148C222.7 145.174 222.7 145.226 222.726 145.252C222.883 145.566 223.066 145.879 223.249 146.193L223.405 146.454C223.484 146.559 223.536 146.664 223.615 146.768C223.719 146.925 223.824 147.082 223.928 147.239C224.007 147.343 224.085 147.474 224.163 147.578C224.216 147.657 224.294 147.761 224.346 147.84C224.346 147.84 224.346 147.84 224.373 147.866L224.399 147.892L224.477 147.997L224.503 148.023L224.529 148.049C224.895 148.467 225.314 148.833 225.784 149.199C226.594 149.826 227.561 150.349 228.633 150.846C229.391 151.186 230.175 151.499 231.012 151.761C232.266 152.179 233.573 152.519 234.88 152.78C240.265 153.904 245.806 153.93 247.479 153.277C247.505 153.277 247.531 153.25 247.557 153.25C247.557 153.25 247.584 153.25 247.584 153.224C247.662 153.172 247.74 153.146 247.819 153.094C247.949 153.015 248.106 152.937 248.263 152.858C248.368 152.806 248.498 152.728 248.603 152.675C248.707 152.597 248.838 152.545 248.943 152.466C248.969 152.466 248.969 152.44 248.995 152.44C249.204 152.309 249.387 152.179 249.544 152.074C249.779 151.917 249.988 151.787 250.145 151.656C250.224 151.604 250.302 151.551 250.38 151.473C250.433 151.421 250.511 151.395 250.563 151.342L250.668 151.264C250.851 151.107 251.034 150.95 251.243 150.793H251.217C250.746 151.029 250.093 151.212 249.204 151.316Z" fill="#E91840"/>
<defs>
<radialGradient id="paint0_radial" cx="0" cy="0" r="1" gradientUnits="userSpaceOnUse" gradientTransform="translate(139.318 86.2835) scale(115.817 231.635)">
<stop stop-color="#C2951B"/>
<stop offset="1" stop-color="#9B7B16"/>
</radialGradient>
<linearGradient id="paint1_linear" x1="-10.8752" y1="154.805" x2="171.802" y2="-27.8716" gradientUnits="userSpaceOnUse">
<stop stop-color="#9B7B16"/>
<stop offset="1" stop-color="white"/>
</linearGradient>
<linearGradient id="paint2_linear" x1="21.0588" y1="57.8396" x2="64.4254" y2="57.8396" gradientUnits="userSpaceOnUse">
<stop stop-color="#F4E8D9"/>
<stop offset="0.2807" stop-color="#C08329"/>
<stop offset="0.5351" stop-color="#EBCC85"/>
<stop offset="0.547" stop-color="#EDD089"/>
<stop offset="0.7524" stop-color="#F4E8D9"/>
<stop offset="1" stop-color="#C08329"/>
</linearGradient>
<linearGradient id="paint3_linear" x1="21.0563" y1="75.6135" x2="64.423" y2="75.6135" gradientUnits="userSpaceOnUse">
<stop stop-color="#F4E8D9"/>
<stop offset="0.2807" stop-color="#C08329"/>
<stop offset="0.5351" stop-color="#EBCC85"/>
<stop offset="0.547" stop-color="#EDD089"/>
<stop offset="0.7524" stop-color="#F4E8D9"/>
<stop offset="1" stop-color="#C08329"/>
</linearGradient>
<linearGradient id="paint4_linear" x1="21.0569" y1="75.6135" x2="64.4234" y2="75.6135" gradientUnits="userSpaceOnUse">
<stop stop-color="#F4E8D9"/>
<stop offset="0.2807" stop-color="#C08329"/>
<stop offset="0.5351" stop-color="#EBCC85"/>
<stop offset="0.547" stop-color="#EDD089"/>
<stop offset="0.7524" stop-color="#F4E8D9"/>
<stop offset="1" stop-color="#C08329"/>
</linearGradient>
<linearGradient id="paint5_linear" x1="21.0571" y1="57.8391" x2="64.4237" y2="57.8391" gradientUnits="userSpaceOnUse">
<stop stop-color="#F4E8D9"/>
<stop offset="0.2807" stop-color="#C08329"/>
<stop offset="0.5351" stop-color="#EBCC85"/>
<stop offset="0.547" stop-color="#EDD089"/>
<stop offset="0.7524" stop-color="#F4E8D9"/>
<stop offset="1" stop-color="#C08329"/>
</linearGradient>
<linearGradient id="paint6_linear" x1="21.0569" y1="66.7262" x2="64.4234" y2="66.7262" gradientUnits="userSpaceOnUse">
<stop stop-color="#F4E8D9"/>
<stop offset="0.2807" stop-color="#C08329"/>
<stop offset="0.5351" stop-color="#EBCC85"/>
<stop offset="0.547" stop-color="#EDD089"/>
<stop offset="0.7524" stop-color="#F4E8D9"/>
<stop offset="1" stop-color="#C08329"/>
</linearGradient>
<linearGradient id="paint7_linear" x1="21.0564" y1="66.7262" x2="64.4229" y2="66.7262" gradientUnits="userSpaceOnUse">
<stop stop-color="#F4E8D9"/>
<stop offset="0.2807" stop-color="#C08329"/>
<stop offset="0.5351" stop-color="#EBCC85"/>
<stop offset="0.547" stop-color="#EDD089"/>
<stop offset="0.7524" stop-color="#F4E8D9"/>
<stop offset="1" stop-color="#C08329"/>
</linearGradient>
<linearGradient id="paint8_linear" x1="21.057" y1="75.6418" x2="64.4235" y2="75.6418" gradientUnits="userSpaceOnUse">
<stop stop-color="#F4E8D9"/>
<stop offset="0.2807" stop-color="#C08329"/>
<stop offset="0.5351" stop-color="#EBCC85"/>
<stop offset="0.547" stop-color="#EDD089"/>
<stop offset="0.7524" stop-color="#F4E8D9"/>
<stop offset="1" stop-color="#C08329"/>
</linearGradient>
<linearGradient id="paint9_linear" x1="21.057" y1="57.8107" x2="64.4235" y2="57.8107" gradientUnits="userSpaceOnUse">
<stop stop-color="#F4E8D9"/>
<stop offset="0.2807" stop-color="#C08329"/>
<stop offset="0.5351" stop-color="#EBCC85"/>
<stop offset="0.547" stop-color="#EDD089"/>
<stop offset="0.7524" stop-color="#F4E8D9"/>
<stop offset="1" stop-color="#C08329"/>
</linearGradient>
<linearGradient id="paint10_linear" x1="21.0573" y1="66.7263" x2="64.4239" y2="66.7263" gradientUnits="userSpaceOnUse">
<stop stop-color="#F4E8D9"/>
<stop offset="0.2807" stop-color="#C08329"/>
<stop offset="0.5351" stop-color="#EBCC85"/>
<stop offset="0.547" stop-color="#EDD089"/>
<stop offset="0.7524" stop-color="#F4E8D9"/>
<stop offset="1" stop-color="#C08329"/>
</linearGradient>
<linearGradient id="paint11_linear" x1="21.0052" y1="62.4907" x2="64.4847" y2="62.4907" gradientUnits="userSpaceOnUse">
<stop stop-color="#F4E8D9"/>
<stop offset="0.2807" stop-color="#C08329"/>
<stop offset="0.5351" stop-color="#EBCC85"/>
<stop offset="0.547" stop-color="#EDD089"/>
<stop offset="0.7524" stop-color="#F4E8D9"/>
<stop offset="1" stop-color="#C08329"/>
</linearGradient>
</defs>
</svg>
