<svg width="198" height="198" viewBox="0 0 198 198" fill="none" xmlns="http://www.w3.org/2000/svg">
<g id="tickIcon">
<path id="border" d="M98.7538 197.508C153.294 197.508 197.508 153.294 197.508 98.7538C197.508 44.2136 153.294 0 98.7538 0C44.2136 0 0 44.2136 0 98.7538C0 153.294 44.2136 197.508 98.7538 197.508Z" fill="#00FFA9" fill-opacity="0.56"/>
<path id="bg-tick" d="M98.7538 181.049C144.204 181.049 181.049 144.204 181.049 98.7538C181.049 53.3036 144.204 16.459 98.7538 16.459C53.3036 16.459 16.459 53.3036 16.459 98.7538C16.459 144.204 53.3036 181.049 98.7538 181.049Z" fill="#00FFA9"/>
<path id="tick" d="M84.6395 131.977C84.479 131.977 84.3183 131.973 84.1574 131.966C82.7373 131.897 81.3488 131.522 80.0871 130.867C78.8255 130.211 77.7205 129.291 76.8481 128.168L63.0742 110.459C61.4704 108.392 60.7519 105.773 61.0763 103.177C61.4007 100.581 62.7415 98.22 64.8047 96.6114L65.3001 96.2257C67.3672 94.6219 69.986 93.9035 72.582 94.2279C75.1781 94.5523 77.5395 95.893 79.1484 97.9561C79.9247 98.9543 80.9075 99.7729 82.0295 100.356C83.1516 100.939 84.3864 101.273 85.6494 101.334C86.9124 101.396 88.1738 101.184 89.3472 100.713C90.5207 100.242 91.5784 99.5224 92.4481 98.6045L120.416 69.0814C121.307 68.1406 122.375 67.3846 123.559 66.8565C124.742 66.3284 126.018 66.0386 127.313 66.0036C128.609 65.9686 129.899 66.1891 131.109 66.6526C132.319 67.1161 133.426 67.8134 134.367 68.7048L134.823 69.1374C136.723 70.9373 137.83 73.4181 137.901 76.0342C137.971 78.6502 137 81.1872 135.2 83.087L91.8009 128.896C90.8795 129.869 89.7692 130.645 88.5379 131.175C87.3065 131.705 85.98 131.978 84.6395 131.977V131.977Z" fill="white"/>
</g>
</svg>
