<svg width="40" height="40" viewBox="0 0 40 40" fill="none" xmlns="http://www.w3.org/2000/svg">
<circle cx="20" cy="20" r="18.72" fill="white" stroke="#373737" stroke-width="1.44"/>
<path d="M17.9104 20.4336C17.9104 21.9571 17.6503 23.0891 17.13 23.8297C16.6097 24.5704 15.7964 24.9407 14.6901 24.9407C13.5979 24.9407 12.7894 24.5797 12.2644 23.8579C11.7394 23.1313 11.4675 22.0485 11.4487 20.6094V18.8727C11.4487 17.368 11.7089 16.25 12.2292 15.5188C12.7495 14.7875 13.5651 14.4219 14.6761 14.4219C15.7776 14.4219 16.5886 14.7758 17.1089 15.4836C17.6292 16.1868 17.8964 17.2743 17.9104 18.7461V20.4336ZM16.6097 18.6547C16.6097 17.5532 16.455 16.7516 16.1456 16.25C15.8362 15.7438 15.3464 15.4907 14.6761 15.4907C14.0104 15.4907 13.5253 15.7415 13.2206 16.243C12.9159 16.7446 12.7589 17.5157 12.7495 18.5563V20.6375C12.7495 21.7438 12.9089 22.5618 13.2276 23.0915C13.5511 23.6165 14.0386 23.879 14.6901 23.879C15.3323 23.879 15.8081 23.6305 16.1175 23.1336C16.4315 22.6368 16.5956 21.854 16.6097 20.7852V18.6547ZM19.4644 16.5313C19.4644 15.9172 19.6589 15.411 20.0479 15.0125C20.4417 14.6141 20.9456 14.4149 21.5597 14.4149C22.1831 14.4149 22.687 14.6165 23.0714 15.0196C23.4604 15.418 23.655 15.936 23.655 16.5735V17.0727C23.655 17.6915 23.4581 18.1977 23.0644 18.5915C22.6753 18.9805 22.1784 19.175 21.5737 19.175C20.9644 19.175 20.4604 18.9805 20.062 18.5915C19.6636 18.1977 19.4644 17.675 19.4644 17.0235V16.5313ZM20.4347 17.0727C20.4347 17.4383 20.5378 17.7407 20.744 17.9797C20.9503 18.2141 21.2269 18.3313 21.5737 18.3313C21.9065 18.3313 22.1737 18.2165 22.3753 17.9868C22.5815 17.7571 22.6847 17.443 22.6847 17.0446V16.5313C22.6847 16.1657 22.5839 15.8633 22.3823 15.6243C22.1808 15.3852 21.9065 15.2657 21.5597 15.2657C21.2128 15.2657 20.9386 15.3852 20.737 15.6243C20.5354 15.8633 20.4347 16.175 20.4347 16.5594V17.0727ZM24.4495 22.2899C24.4495 21.6758 24.644 21.1719 25.0331 20.7782C25.4269 20.3797 25.9308 20.1805 26.5448 20.1805C27.1589 20.1805 27.6628 20.3774 28.0565 20.7711C28.4503 21.1649 28.6472 21.6875 28.6472 22.3391V22.8383C28.6472 23.4524 28.4503 23.9586 28.0565 24.3571C27.6675 24.7508 27.1683 24.9477 26.5589 24.9477C25.9495 24.9477 25.4456 24.7532 25.0472 24.3641C24.6487 23.9704 24.4495 23.4477 24.4495 22.7961V22.2899ZM25.4198 22.8383C25.4198 23.2086 25.5229 23.5133 25.7292 23.7524C25.9354 23.9868 26.212 24.104 26.5589 24.104C26.8964 24.104 27.1659 23.9891 27.3675 23.7594C27.569 23.525 27.6698 23.2086 27.6698 22.8102V22.2899C27.6698 21.9196 27.5667 21.6172 27.3604 21.3829C27.1589 21.1485 26.887 21.0313 26.5448 21.0313C26.212 21.0313 25.9401 21.1485 25.7292 21.3829C25.5229 21.6125 25.4198 21.9243 25.4198 22.318V22.8383ZM21.869 24.0266L21.1308 23.5625L26.13 15.561L26.8683 16.025L21.869 24.0266Z" fill="#373737"/>
</svg>
