<svg width="42" height="43" viewBox="0 0 42 43" fill="none" xmlns="http://www.w3.org/2000/svg">
<g clip-path="url(#clip0)">
<path d="M32.9977 6.50303C33.0828 5.87516 32.6428 5.29719 32.0149 5.2121L21.7831 3.82549C21.1553 3.7404 20.5773 4.18041 20.4922 4.80828C20.4071 5.43615 20.8471 6.01412 21.475 6.09921L30.5699 7.33176L29.3373 16.4266C29.2523 17.0545 29.6923 17.6325 30.3201 17.7176C30.948 17.8027 31.526 17.3627 31.6111 16.7348L32.9977 6.50303ZM5.17101 28.11L32.5558 7.26179L31.1659 5.43614L3.78113 26.2843L5.17101 28.11Z" fill="#373737"/>
<path d="M9.14976 37.3269C9.06467 37.9548 9.50468 38.5327 10.1326 38.6178L20.3643 40.0044C20.9922 40.0895 21.5701 39.6495 21.6552 39.0216C21.7403 38.3938 21.3003 37.8158 20.6724 37.7307L11.5776 36.4982L12.8101 27.4033C12.8952 26.7754 12.4552 26.1974 11.8273 26.1123C11.1994 26.0273 10.6215 26.4673 10.5364 27.0951L9.14976 37.3269ZM10.9816 38.3938L38.3663 17.5456L36.9764 15.72L9.59168 36.5681L10.9816 38.3938Z" fill="#373737"/>
</g>
<defs>
<clipPath id="clip0">
<rect width="40.1539" height="41.3011" fill="white" transform="translate(0.84375 0.836182) rotate(-0.412346)"/>
</clipPath>
</defs>
</svg>
