<svg width="49" height="69" viewBox="0 0 49 69" fill="none" xmlns="http://www.w3.org/2000/svg">
<g id="Group">
<g id="Group_2">
<g id="Group_3">
<g id="Group_4">
<path id="Vector" d="M34.1573 9.49758C34.1573 11.4141 33.6036 13.2029 32.5814 14.6936C30.8778 17.249 27.9817 18.9526 24.6597 18.9526C21.3377 18.9526 18.4415 17.249 16.7379 14.6936C15.7584 13.2029 15.1621 11.4141 15.1621 9.49758C15.1621 8.81614 15.2473 8.1347 15.3751 7.45326C16.312 3.19425 20.1026 0 24.6171 0C29.0465 0 32.7518 3.02389 33.8166 7.15512C34.0721 7.92174 34.1573 8.68837 34.1573 9.49758Z" fill="#243021"/>
<path id="Vector_2" d="M34.0889 9.4955C34.0889 11.4121 33.5352 13.2008 32.5131 14.6915H16.6696C15.69 13.2008 15.0938 11.4121 15.0938 9.4955C15.0938 8.81406 15.1789 8.13263 15.3067 7.45118C16.5844 6.30125 19.2676 4.68283 24.5061 4.68283C28.5522 4.68283 31.7465 6.25866 33.7482 7.15305C34.0037 7.91967 34.0889 8.68629 34.0889 9.4955Z" fill="#F94B22"/>
</g>
<path id="Vector_3" d="M24.2244 39.9497C33.3979 39.9497 40.8345 32.5131 40.8345 23.3396C40.8345 14.1661 33.3979 6.72949 24.2244 6.72949C15.0509 6.72949 7.61426 14.1661 7.61426 23.3396C7.61426 32.5131 15.0509 39.9497 24.2244 39.9497Z" fill="#243021"/>
<g id="Group_5">
<g id="Group_6">
<g id="Group_7">
<g id="Group_8">
<g id="Group_9">
<g id="Group_10">
<path id="Vector_4" d="M8.24929 68.9974H40.7029L43.7694 60.7349C44.2379 59.4998 43.599 58.0943 42.3639 57.6258L31.8016 53.665L29.3314 51.2373L24.4761 58.4351L19.4079 51.2373L17.108 53.665L6.54569 57.6258C5.31058 58.0943 4.67172 59.4998 5.14021 60.7349L8.24929 68.9974Z" fill="#F94B22"/>
</g>
</g>
</g>
<path id="Vector_5" d="M19.4727 53.3219C19.4727 53.5774 19.4727 53.8329 19.4727 54.1311C19.6004 60.8177 29.6091 60.8603 29.822 54.1737C29.822 53.9181 29.822 53.62 29.822 53.3645H19.4727V53.3219Z" fill="white"/>
<g id="Group_11">
<path id="Vector_6" d="M26.2255 63.1193C26.2255 63.8434 25.6293 64.4396 24.9052 64.4396C24.1812 64.4396 23.585 63.8434 23.585 63.1193C23.585 62.3953 24.1812 61.799 24.9052 61.799C25.6293 61.799 26.2255 62.3953 26.2255 63.1193Z" fill="#DC3024"/>
<path id="Vector_7" d="M24.8369 68.5708C25.5661 68.5708 26.1572 67.9797 26.1572 67.2505C26.1572 66.5213 25.5661 65.9302 24.8369 65.9302C24.1077 65.9302 23.5166 66.5213 23.5166 67.2505C23.5166 67.9797 24.1077 68.5708 24.8369 68.5708Z" fill="#DC3024"/>
</g>
</g>
<g id="Group_12">
<g id="Group_13">
<path id="Vector_8" d="M29.3929 43.9521V54.8977C29.3929 56.8143 28.1578 58.5179 26.3265 59.1141C24.921 59.54 23.5155 59.54 22.0675 59.1141C20.2361 58.5604 19.001 56.8143 19.001 54.8977V43.9521H29.3929Z" fill="#F9B587"/>
<path id="Vector_9" d="M29.4177 44.4658V52.9412C25.3717 55.9225 21.1979 54.3041 19.0684 53.1115V44.4658H29.4177Z" fill="#F5896A"/>
<path id="Vector_10" d="M39.7933 28.1097C39.7933 28.3227 39.7933 28.5782 39.7933 28.7912C39.7933 29.0467 39.7933 29.3022 39.7507 29.5578C39.2396 41.6108 32.6382 51.1509 24.5461 51.1509C16.965 51.1509 10.7043 42.8033 9.51178 31.8576C9.4266 31.091 9.38401 30.367 9.34142 29.5578C9.34142 29.3022 9.34142 29.0467 9.29883 28.7912C9.29883 28.5782 9.29883 28.3227 9.29883 28.1097C9.29883 25.171 9.68214 22.3601 10.321 19.7621C10.3636 19.5491 11.0024 17.1641 11.045 16.9511C19.7334 15.4605 28.6347 15.5031 37.3231 17.0363L38.3878 17.2067C39.197 19.975 39.7933 24.9581 39.7933 28.1097Z" fill="#F9B587"/>
<path id="Vector_11" d="M21.8975 36.3288C21.8975 36.3288 22.153 34.54 24.5806 34.54C26.9657 34.54 27.349 36.3288 27.349 36.3288H21.8975Z" fill="#F5896A"/>
<g id="Mouth">
<g id="Mouthx">
<path id="Vector_12" d="M29.8733 40.4953C29.8733 40.8504 29.8305 41.1611 29.7878 41.4718C29.6167 42.5371 29.1464 43.4692 28.4622 44.2238C27.4787 45.3335 26.1103 45.9993 24.5709 45.9993C23.0315 45.9993 21.6204 45.3335 20.6797 44.2238C19.9955 43.4692 19.5251 42.5371 19.3541 41.4718C19.3113 41.1611 19.2686 40.806 19.2686 40.4953V40.4509H29.9161C29.8733 40.4953 29.8733 40.4953 29.8733 40.4953Z" fill="#920E08"/>
<path id="Vector_13" d="M28.6409 44.3091C27.6183 45.3659 26.1955 46 24.5949 46C22.9942 46 21.527 45.3659 20.5488 44.3091C21.527 43.4213 22.9942 42.8295 24.5949 42.8295C26.1955 42.8295 27.6628 43.3791 28.6409 44.3091Z" fill="#EB5C66"/>
</g>
<path id="Vector_14" d="M29.8735 40.4122C29.8735 40.7292 29.8309 41.0066 29.7883 41.284H19.3537C19.3111 41.0066 19.2686 40.6896 19.2686 40.4122V40.3725H29.8735C29.8735 40.4122 29.8735 40.4122 29.8735 40.4122Z" fill="white"/>
</g>
<path id="Vector_15" d="M33.368 30.5361C33.368 31.7712 32.6866 32.7508 31.8774 32.7508C31.0682 32.7508 30.3867 31.7712 30.3867 30.5361C30.3867 29.301 31.0682 28.3214 31.8774 28.3214C32.7292 28.2788 33.368 29.301 33.368 30.5361Z" fill="#243021"/>
<path id="Vector_16" d="M18.9501 30.5361C18.9501 31.7712 18.2686 32.7508 17.4594 32.7508C16.6502 32.7508 15.9688 31.7712 15.9688 30.5361C15.9688 29.301 16.6502 28.3214 17.4594 28.3214C18.2686 28.2788 18.9501 29.301 18.9501 30.5361Z" fill="#243021"/>
<g id="eyesBrown">
<g id="Group_14">
<path id="Vector_17" d="M20.9682 25.0419V26.4048C20.9682 26.4048 16.2408 24.3605 13.0039 27.5973C13.0039 27.5973 14.1964 23.892 20.9682 25.0419Z" fill="#243021"/>
</g>
<g id="Group_15">
<path id="Vector_18" d="M28.4336 25.0419V26.4048C28.4336 26.4048 33.1611 24.3605 36.3979 27.5973C36.3979 27.5973 35.2054 23.892 28.4336 25.0419Z" fill="#243021"/>
</g>
</g>
</g>
<path id="Vector_19" d="M9.30786 28.7905C9.30786 28.7905 12.0336 21.5076 20.9775 20.9965C29.964 20.4854 37.9284 21.1669 38.4395 16.9505C38.8228 13.884 23.5755 14.3525 15.1853 14.8635C12.5873 15.0339 11.0115 15.5876 9.47822 18.143L9.1375 18.9948C8.32829 20.6558 7.98757 27.7683 9.30786 28.7905Z" fill="#243021"/>
<path id="Vector_20" d="M35.0371 18.7834C35.0371 18.7834 35.0371 25.2571 39.7646 27.344C39.7646 27.344 44.1088 23.2979 37.9758 16.015L35.0371 18.7834Z" fill="#243021"/>
</g>
<g id="Group_16">
<g id="Group_17">
<path id="Vector_21" opacity="0.3" d="M21.9477 30.5374C21.5644 32.5391 20.4144 35.0094 17.1776 35.3075C16.9646 35.3501 16.7517 35.3501 16.5387 35.3501C15.6017 35.3501 14.7925 35.1797 14.1537 34.9242C13.1315 34.4557 12.4075 33.6891 11.9816 32.8373C11.726 32.3262 11.5131 31.7725 11.3853 31.2614C10.9594 29.4727 11.1724 27.8116 11.1724 27.8116H22.2032C22.118 27.7691 22.2458 29.0468 21.9477 30.5374Z" fill="white"/>
<path id="Vector_22" opacity="0.4" d="M17.0106 27.7685L11.9849 32.7941C11.7294 32.283 11.5164 31.7294 11.3887 31.2183L14.8385 27.7685H17.0106Z" fill="white"/>
<path id="Vector_23" opacity="0.4" d="M22.0118 30.5374L17.2417 35.3075C17.0287 35.3501 16.8158 35.3501 16.6028 35.3501C15.6658 35.3501 14.8566 35.1797 14.2178 34.9242L21.3303 27.8116H22.2247C22.1821 27.7691 22.3099 29.0468 22.0118 30.5374Z" fill="white"/>
<g id="Group_18">
<path id="Vector_24" d="M16.5876 35.819C14.884 35.819 13.5211 35.2654 12.5416 34.158C10.4121 31.8156 10.7102 27.8973 10.7528 27.7269C10.7528 27.4714 10.9657 27.301 11.2213 27.301H22.2521C22.4651 27.301 22.678 27.4714 22.7206 27.6843C22.7206 27.8547 23.1891 31.6026 21.1448 33.9451C19.9948 35.1802 18.5042 35.819 16.5876 35.819ZM11.6046 28.238C11.6046 29.2602 11.6898 31.9008 13.1804 33.5192C13.9896 34.4136 15.1396 34.8821 16.545 34.8821C18.206 34.8821 19.4837 34.371 20.3356 33.3914C21.7836 31.773 21.7836 29.2176 21.741 28.238H11.6046Z" fill="#243021"/>
</g>
</g>
<g id="Group_19">
<path id="Vector_25" opacity="0.3" d="M37.5111 30.5374C37.1278 32.5391 35.9779 35.0094 32.7411 35.3075C32.5281 35.3501 32.3152 35.3501 32.1022 35.3501C31.1652 35.3501 30.356 35.1797 29.7172 34.9242C28.695 34.4557 27.971 33.6891 27.5451 32.8373C27.2895 32.3262 27.0766 31.7725 26.9488 31.2614C26.5229 29.4727 26.7359 27.8116 26.7359 27.8116H37.7667C37.6815 27.7691 37.8093 29.0468 37.5111 30.5374Z" fill="white"/>
<path id="Vector_26" opacity="0.4" d="M32.5067 27.7685L27.481 32.7941C27.2255 32.283 27.0125 31.7294 26.8848 31.2183L30.3346 27.7685H32.5067Z" fill="white"/>
<path id="Vector_27" opacity="0.4" d="M37.5088 30.5374L32.7387 35.3075C32.5258 35.3501 32.3128 35.3501 32.0999 35.3501C31.1629 35.3501 30.3537 35.1797 29.7148 34.9242L36.8274 27.8116H37.7218C37.6792 27.7691 37.807 29.0468 37.5088 30.5374Z" fill="white"/>
<g id="Group_20">
<path id="Vector_28" d="M32.0837 35.819C30.3801 35.819 29.0172 35.2654 28.0377 34.158C25.9082 31.8156 26.2063 27.8973 26.2489 27.7269C26.2489 27.4714 26.4618 27.301 26.7174 27.301H37.7482C37.9611 27.301 38.1741 27.4714 38.2167 27.6843C38.2167 27.8547 38.6852 31.6026 36.6409 33.9451C35.4909 35.1802 34.0003 35.819 32.0837 35.819ZM27.1007 28.238C27.1007 29.2602 27.1859 31.9008 28.6765 33.5192C29.4857 34.4136 30.6357 34.8821 32.0411 34.8821C33.7021 34.8821 34.9798 34.371 35.8316 33.3914C37.2797 31.773 37.2797 29.2176 37.2371 28.238H27.1007Z" fill="#243021"/>
</g>
</g>
<g id="Group_21">
<path id="Vector_29" d="M26.4794 28.3634C24.3499 27.2987 22.4759 28.3208 22.4333 28.3634L21.9648 27.5542C22.05 27.5116 24.3073 26.2765 26.9053 27.5542L26.4794 28.3634Z" fill="#243021"/>
</g>
<path id="Vector_30" d="M37.3291 27.2993L40.9067 24.8291C40.9067 24.8291 41.4177 24.9994 41.3752 25.7235L38.0531 28.1085L37.3291 27.2993Z" fill="#243021"/>
<path id="Vector_31" d="M11.5281 27.2993L7.9505 24.8291C7.9505 24.8291 7.43942 24.9994 7.48201 25.7235L10.804 28.1085L11.5281 27.2993Z" fill="#243021"/>
</g>
<g id="Group_22">
<path id="Vector_32" d="M19.0263 51.2373C19.0263 51.2373 16.3005 52.9835 13.7451 55.9222L17.4505 64.3125L22.0928 59.1165C22.0928 59.1165 18.8985 54.8149 19.0263 51.2373Z" fill="white"/>
<path id="Vector_33" d="M29.4102 51.2373C29.4102 51.2373 31.9656 52.7706 34.521 55.7093L30.9861 64.3551L26.3438 59.1165C26.3438 59.1165 29.538 54.8149 29.4102 51.2373Z" fill="white"/>
</g>
<g id="Group_23">
<g id="Group_24">
<path id="Vector_34" d="M10.392 68.9944L6.09037 57.8784C6.09037 57.8784 0.638851 60.7319 0 68.9944H10.392Z" fill="#F94B22"/>
</g>
</g>
<g id="Group_25">
<g id="Group_26">
<path id="Vector_35" d="M38.6084 68.9944L42.91 57.8784C42.91 57.8784 48.3615 60.7319 49.0004 68.9944H38.6084Z" fill="#F94B22"/>
</g>
</g>
</g>
</g>
</g>
<g id="Group_27">
<g id="Group_28">
<path id="Vector_36" d="M44.9085 32.8775C44.7808 34.0275 44.1419 34.9644 43.2049 35.4755L43.1198 36.1996C42.9068 38.1161 41.2032 39.479 39.2867 39.266L38.1367 39.1383L39.6274 25.2965L40.7773 25.4243C42.6939 25.6372 44.0567 27.3408 43.8438 29.2574L43.7586 29.9814C44.5678 30.6629 45.0363 31.7276 44.9085 32.8775Z" fill="#082E43"/>
</g>
<g id="Group_29">
<path id="Vector_37" d="M10.9031 39.1383L9.75315 39.266C7.8366 39.479 6.133 38.0735 5.92005 36.1996L5.83487 35.4755C4.89789 34.9644 4.25904 34.0275 4.13127 32.8775C4.0035 31.7276 4.47199 30.7054 5.23861 29.9814L5.15343 29.2574C4.94048 27.3408 6.34595 25.6372 8.21991 25.4243L9.36985 25.2965L10.9031 39.1383Z" fill="#082E43"/>
</g>
<g id="Group_30">
<path id="Vector_38" d="M42.2368 26.4453H41.172C41.172 17.331 33.7614 9.96294 24.6897 9.96294C15.618 9.96294 8.20733 17.3736 8.20733 26.4453H7.14258C7.14258 16.7773 15.0217 8.89819 24.6897 8.89819C34.3576 8.89819 42.2368 16.7348 42.2368 26.4453Z" fill="#082E43"/>
</g>
<g id="Group_31">
<path id="Vector_39" d="M22.1864 49.4881C15.2868 49.4881 11.9222 46.0809 10.3464 43.1848C8.6428 40.1183 8.55762 37.0518 8.55762 36.9241L9.62237 36.8815C9.62237 36.9241 9.70755 39.8202 11.326 42.6737C13.4555 46.4642 17.1182 48.3808 22.229 48.3808V49.4881H22.1864Z" fill="#082E43"/>
</g>
<path id="Vector_40" d="M25.1397 50.0837H22.0732C21.3492 50.0837 20.7529 49.4874 20.7529 48.7634C20.7529 48.0393 21.3492 47.4431 22.0732 47.4431H25.1397C25.8637 47.4431 26.46 48.0393 26.46 48.7634C26.5026 49.4874 25.9063 50.0837 25.1397 50.0837Z" fill="#082E43"/>
</g>
</g>
</g>
</svg>
