<svg width="85" height="29" viewBox="0 0 85 29" fill="none" xmlns="http://www.w3.org/2000/svg">
<path d="M85 15.2088C84.9202 17.4762 84.522 20.1397 83.0875 22.6231C81.3337 25.7544 78.3847 27.374 74.5987 27.6979C67.6643 28.2738 62.8425 24.4586 61.3281 18.3401C60.4115 14.705 60.4513 11.1057 61.9258 7.54251C64.2771 1.85592 69.3782 -0.69954 75.3559 0.164337C78.8626 0.668179 81.1342 2.82761 82.6885 5.59905C84.2827 8.47838 85 11.5377 85 15.2088ZM79.2217 14.381C79.2616 13.0853 79.0621 11.8256 78.7828 10.5658C78.5443 9.59405 78.1852 8.65835 77.6674 7.79448C76.7107 6.13888 75.3559 5.02313 73.1641 5.05913C70.8926 5.13111 69.0989 5.9949 67.9436 7.83047C67.027 9.27018 66.7081 10.8538 66.5486 12.4734C66.3096 15.0288 66.5089 17.5842 67.8638 19.8877C68.9402 21.7594 70.6931 22.875 73.1242 22.875C75.4756 22.839 77.0299 21.7234 78.0256 19.8877C78.9424 18.1241 79.1818 16.2886 79.2217 14.381Z" fill="#44A5FE"/>
<path d="M24.2932 28.6225C23.4396 28.5861 22.6672 27.8588 22.0169 26.9497C21.3259 25.9678 20.9599 24.8768 20.4722 23.7858C20.2283 23.1676 19.8625 22.913 19.0901 22.913C15.5536 22.9493 12.0578 22.9493 8.52133 22.913C7.8709 22.913 7.54574 23.0948 7.34252 23.6039C6.81404 24.7676 6.4076 25.9314 5.67591 26.986C4.57837 28.5861 2.78981 29.0225 1.00126 28.0406C0.106934 27.5314 -0.218234 26.6587 0.147613 25.4586C0.635408 23.8949 1.40769 22.4765 2.05812 20.9856C4.90354 14.7305 7.70836 8.512 10.5944 2.25713C11.4888 0.329625 12.1798 -0.0339646 14.3342 0.0023772C15.1878 0.0023772 15.7976 0.329626 16.326 0.911529C16.9764 1.67523 17.3422 2.54804 17.7488 3.42077C20.8787 10.3303 24.0087 17.2399 27.1387 24.1495C27.3012 24.5494 27.5045 24.9494 27.6265 25.3495C28.1549 27.386 27.0574 28.6225 24.2932 28.6225ZM13.887 9.42124C12.5862 12.0759 11.4073 14.5488 10.1879 16.9854C9.90336 17.5308 10.1067 17.6399 10.7164 17.6399C12.8302 17.6035 14.9845 17.6035 17.0984 17.6399C17.6673 17.6399 17.9113 17.5672 17.6268 16.9854C16.3667 14.5488 15.1878 12.0759 13.887 9.42124Z" fill="#43A5FE"/>
<path d="M45.102 28.5863C43.111 28.5863 40.9066 28.6225 38.9156 28.6225C38.1437 28.6225 37.3716 28.55 36.6402 28.2964C35.4619 27.8978 34.9337 27.1369 34.8118 26.0498C34.568 23.767 34.7712 21.4842 34.8118 19.2013C34.8524 14.4908 34.8524 9.78004 34.9337 5.06948C34.9744 3.91001 34.8524 2.7142 35.4212 1.59098C36.0307 0.431339 37.0871 -0.148396 38.5093 0.0327923C39.8908 0.177726 40.4596 0.721293 40.744 2.09829C40.9878 3.22151 40.8659 4.34481 40.8253 5.43185C40.6222 11.157 40.7846 16.8823 40.6222 22.6074C40.5815 23.3322 40.7846 23.5859 41.6785 23.5859C44.9697 23.6945 44.4129 23.5496 47.7041 23.5859C48.3542 23.5859 52.8115 23.7308 53.421 23.8757C54.7213 24.1293 55.412 24.7453 55.4932 25.6512C55.6152 27.0644 55.0869 27.8254 53.7055 28.2239C52.7709 28.5139 51.7957 28.5863 50.8206 28.5863C48.789 28.6225 47.0524 28.55 45.102 28.5863Z" fill="#43A5FE"/>
</svg>
