<svg width="137" height="104" viewBox="0 0 137 104" fill="none" xmlns="http://www.w3.org/2000/svg">
<path d="M68.5 101C104.675 101 134 79.062 134 52C134 24.938 104.675 3 68.5 3C32.3253 3 3 24.938 3 52C3 79.062 32.3253 101 68.5 101Z" stroke="#0066CC" stroke-width="6"/>
<path d="M120 53.5348C119.908 56.149 119.449 59.2198 117.795 62.083C115.773 65.6932 112.373 67.5605 108.008 67.934C100.013 68.598 94.4537 64.1993 92.7077 57.145C91.651 52.9539 91.6969 48.8042 93.3969 44.696C96.1078 38.1397 101.989 35.1934 108.881 36.1894C112.924 36.7703 115.543 39.26 117.335 42.4553C119.173 45.775 120 49.3022 120 53.5348ZM113.338 52.5804C113.384 51.0865 113.154 49.6342 112.832 48.1817C112.557 47.0613 112.143 45.9825 111.546 44.9865C110.443 43.0777 108.881 41.7913 106.354 41.8328C103.735 41.9158 101.667 42.9117 100.335 45.028C99.2782 46.6879 98.9106 48.5137 98.7267 50.381C98.4511 53.3273 98.6809 56.2735 100.243 58.9293C101.484 61.0872 103.505 62.3735 106.308 62.3735C109.019 62.332 110.811 61.0457 111.959 58.9293C113.016 56.896 113.292 54.7797 113.338 52.5804Z" fill="#0066CC"/>
<path d="M50.0086 69C49.0245 68.9581 48.134 68.1195 47.3842 67.0714C46.5875 65.9393 46.1656 64.6814 45.6033 63.4236C45.322 62.7108 44.9003 62.4173 44.0098 62.4173C39.9324 62.4592 35.9019 62.4592 31.8246 62.4173C31.0747 62.4173 30.6998 62.6269 30.4655 63.2139C29.8562 64.5556 29.3876 65.8973 28.544 67.1132C27.2786 68.9581 25.2165 69.4612 23.1544 68.3291C22.1233 67.7421 21.7484 66.7359 22.1702 65.3522C22.7326 63.5494 23.623 61.9141 24.3729 60.1951C27.6535 52.9834 30.8873 45.8138 34.2147 38.6023C35.2459 36.38 36.0426 35.9608 38.5265 36.0027C39.5106 36.0027 40.2137 36.38 40.8229 37.0509C41.5728 37.9314 41.9945 38.9377 42.4633 39.9439C46.0719 47.9102 49.6806 55.8766 53.2893 63.8429C53.4767 64.304 53.7111 64.7652 53.8517 65.2264C54.461 67.5744 53.1956 69 50.0086 69ZM38.0109 46.8621C36.5112 49.9228 35.152 52.7739 33.7461 55.5831C33.418 56.2119 33.6524 56.3377 34.3554 56.3377C36.7925 56.2958 39.2763 56.2958 41.7134 56.3377C42.3694 56.3377 42.6507 56.2539 42.3227 55.5831C40.8698 52.7739 39.5107 49.9228 38.0109 46.8621Z" fill="#0066CC"/>
<path fill-rule="evenodd" clip-rule="evenodd" d="M76.4498 44.5737C74.9182 45.7987 72.481 46.7367 69.1661 47.3909L69.1551 47.3931L69.1441 47.3951C64.1933 48.3137 60.7746 49.087 58.5976 49.753C57.6223 50.0514 56.9582 50.3099 56.5336 50.5236C56.7871 50.6287 57.128 50.7497 57.5731 50.8831C59.1168 51.346 61.4309 51.8205 64.3702 52.3461C66.2619 52.6843 68.3971 53.0407 70.699 53.4249C75.4331 54.215 80.8724 55.1229 86.3495 56.2326C94.4798 57.8799 102.917 60.012 109.692 62.9817C111.842 63.7237 113.525 64.5391 114.672 65.4397C115.854 66.3674 116.562 67.4697 116.422 68.6707C116.286 69.8301 115.389 70.7936 114.207 71.5614C113.013 72.3365 111.384 73.0102 109.442 73.5843C101.712 75.8696 87.7807 76.9324 71.0344 75.3372L67.6188 75.0118L70.0086 73.2096C73.4421 70.6204 74.4733 67.2829 74.4733 67.2829L70.9431 63.3778C70.9431 63.3778 65.1517 60.9184 61.1498 59.8008C58.0462 58.9341 54.6767 58.118 51.245 57.2868C50.2663 57.0498 49.2825 56.8115 48.2984 56.5705C43.8972 55.4926 39.5025 54.3625 35.7146 53.0694C31.9591 51.7872 28.6061 50.2822 26.4394 48.3849C24.1734 46.4006 23.2387 44.0055 24.3581 41.2366C25.4256 38.5959 28.3201 35.7166 33.2541 32.4694C38.1557 29.1307 44.5902 28.0333 50.9195 28.2717C57.2485 28.5101 63.6116 30.0853 68.5744 32.2296C71.0584 33.3028 73.2378 34.5385 74.8991 35.8557C76.5445 37.1602 77.7825 38.6259 78.1775 40.1579C78.5907 41.7606 78.042 43.3002 76.4498 44.5737ZM50.9018 30.7421C45.128 30.5246 39.5773 31.5371 35.4441 34.3563L35.434 34.3631L35.4237 34.3699C30.6258 37.5262 28.2522 40.0563 27.4413 42.0622C26.6815 43.9418 27.2598 45.4319 28.8239 46.8016C30.4875 48.2583 33.282 49.5758 36.9166 50.8167C40.5188 52.0464 44.7567 53.1397 49.1559 54.2171C50.114 54.4518 51.0806 54.6858 52.0487 54.9203C55.492 55.7542 58.9556 56.593 62.1344 57.4807C66.1936 58.6143 72.7289 61.3802 72.7289 61.3802L77.6962 67.3244C77.6962 67.3244 76.6836 71.1241 74.5297 73.1604C89.4996 74.3018 101.571 73.2219 108.17 71.2711C109.928 70.7515 111.218 70.1926 112.062 69.6447C112.917 69.0894 113.175 68.6394 113.21 68.343C113.24 68.0884 113.134 67.6928 112.415 67.1289C111.676 66.5487 110.398 65.8876 108.408 65.206L108.33 65.1793L108.256 65.1465C101.86 62.3323 93.7326 60.259 85.6547 58.6223C80.2423 57.5257 74.9529 56.6432 70.2587 55.86C67.9299 55.4715 65.7476 55.1074 63.7695 54.7538C60.8349 54.2291 58.3078 53.7195 56.5146 53.1818C55.6304 52.9167 54.7987 52.6088 54.1708 52.2288C53.5587 51.8583 52.8092 51.2041 52.9263 50.2915C53.0302 49.4813 53.7833 48.9288 54.4293 48.5718C55.1359 48.1814 56.1044 47.8132 57.2922 47.4499C59.6798 46.7195 63.2712 45.915 68.2471 44.9916C71.2796 44.3921 73.0958 43.606 74.0767 42.8215C74.9981 42.0845 75.2201 41.3282 75.0156 40.5351C74.7928 39.6712 74.0247 38.641 72.6299 37.5351C71.2511 36.4419 69.3564 35.3527 67.0868 34.3721C62.5424 32.4086 56.6802 30.9598 50.9018 30.7421Z" fill="white"/>
<path d="M56.0065 50.2505C56.0065 50.2505 56.0085 50.2519 56.0117 50.2549L56.0065 50.2505ZM69.1661 47.3909C72.481 46.7367 74.9182 45.7987 76.4498 44.5737C78.042 43.3002 78.5907 41.7606 78.1775 40.1579C77.7825 38.6259 76.5445 37.1602 74.8991 35.8557C73.2378 34.5385 71.0584 33.3028 68.5744 32.2296C63.6116 30.0853 57.2485 28.5101 50.9195 28.2717C44.5902 28.0333 38.1557 29.1307 33.2541 32.4694C28.3201 35.7166 25.4256 38.5959 24.3581 41.2366C23.2387 44.0055 24.1734 46.4006 26.4394 48.3849C28.6061 50.2822 31.9591 51.7873 35.7146 53.0694C39.5025 54.3625 43.8972 55.4926 48.2984 56.5705C49.2825 56.8115 50.2663 57.0498 51.245 57.2868C54.6767 58.118 58.0462 58.9341 61.1498 59.8008C65.1517 60.9184 70.9431 63.3778 70.9431 63.3778L74.4733 67.2829C74.4733 67.2829 73.4421 70.6204 70.0086 73.2096L67.6188 75.0118L71.0344 75.3372C87.7807 76.9324 101.712 75.8696 109.442 73.5843C111.384 73.0102 113.013 72.3365 114.207 71.5614C115.389 70.7936 116.286 69.8301 116.422 68.6707C116.562 67.4697 115.854 66.3674 114.672 65.4397C113.525 64.5391 111.842 63.7237 109.692 62.9817C102.917 60.012 94.4798 57.8799 86.3495 56.2326C80.8724 55.1229 75.4331 54.215 70.699 53.4249C68.3971 53.0407 66.2619 52.6843 64.3702 52.3461C61.4309 51.8205 59.1168 51.346 57.5731 50.8831C57.128 50.7497 56.7871 50.6287 56.5336 50.5236C56.9582 50.3099 57.6223 50.0514 58.5976 49.753C60.7746 49.087 64.1933 48.3137 69.1441 47.3951L69.1551 47.3931L69.1661 47.3909ZM35.4441 34.3563C39.5773 31.5371 45.128 30.5246 50.9018 30.7421C56.6802 30.9598 62.5424 32.4086 67.0868 34.3721C69.3564 35.3527 71.2511 36.4419 72.6299 37.5351C74.0247 38.641 74.7928 39.6712 75.0156 40.5351C75.2201 41.3282 74.9981 42.0845 74.0767 42.8215C73.0958 43.606 71.2796 44.3921 68.2471 44.9916C63.2712 45.915 59.6798 46.7195 57.2922 47.4499C56.1044 47.8132 55.1359 48.1814 54.4293 48.5718C53.7833 48.9288 53.0302 49.4813 52.9263 50.2915C52.8092 51.2041 53.5587 51.8583 54.1708 52.2288C54.7987 52.6088 55.6304 52.9167 56.5146 53.1818C58.3078 53.7195 60.8349 54.2291 63.7695 54.7538C65.7476 55.1074 67.9299 55.4715 70.2587 55.86C74.9529 56.6432 80.2423 57.5257 85.6547 58.6223C93.7326 60.259 101.86 62.3323 108.256 65.1465L108.33 65.1793L108.408 65.206C110.398 65.8876 111.676 66.5487 112.415 67.1289C113.134 67.6928 113.24 68.0884 113.21 68.343C113.175 68.6394 112.917 69.0894 112.062 69.6447C111.218 70.1926 109.928 70.7515 108.17 71.2711C101.571 73.2219 89.4996 74.3017 74.5297 73.1604C76.6836 71.1241 77.6962 67.3244 77.6962 67.3244L72.7289 61.3802C72.7289 61.3802 66.1936 58.6143 62.1344 57.4807C58.9556 56.593 55.492 55.7542 52.0487 54.9203C51.0806 54.6858 50.114 54.4518 49.1559 54.2171C44.7567 53.1397 40.5188 52.0464 36.9166 50.8167C33.282 49.5758 30.4875 48.2583 28.8239 46.8016C27.2598 45.4319 26.6815 43.9418 27.4413 42.0622C28.2522 40.0563 30.6258 37.5262 35.4237 34.3699L35.434 34.3631L35.4441 34.3563Z" stroke="white" stroke-width="1.5" stroke-miterlimit="1" stroke-linecap="round"/>
<path d="M56.0065 50.2505C56.0065 50.2505 56.0085 50.2519 56.0117 50.2549L56.0065 50.2505ZM69.1661 47.3909C72.481 46.7367 74.9182 45.7987 76.4498 44.5737C78.042 43.3002 78.5907 41.7606 78.1775 40.1579C77.7825 38.6259 76.5445 37.1602 74.8991 35.8557C73.2378 34.5385 71.0584 33.3028 68.5744 32.2296C63.6116 30.0853 57.2485 28.5101 50.9195 28.2717C44.5902 28.0333 38.1557 29.1307 33.2541 32.4694C28.3201 35.7166 25.4256 38.5959 24.3581 41.2366C23.2387 44.0055 24.1734 46.4006 26.4394 48.3849C28.6061 50.2822 31.9591 51.7873 35.7146 53.0694C39.5025 54.3625 43.8972 55.4926 48.2984 56.5705C49.2825 56.8115 50.2663 57.0498 51.245 57.2868C54.6767 58.118 58.0462 58.9341 61.1498 59.8008C65.1517 60.9184 70.9431 63.3778 70.9431 63.3778L74.4733 67.2829C74.4733 67.2829 73.4421 70.6204 70.0086 73.2096L67.6188 75.0118L71.0344 75.3372C87.7807 76.9324 101.712 75.8696 109.442 73.5843C111.384 73.0102 113.013 72.3365 114.207 71.5614C115.389 70.7936 116.286 69.8301 116.422 68.6707C116.562 67.4697 115.854 66.3674 114.672 65.4397C113.525 64.5391 111.842 63.7237 109.692 62.9817C102.917 60.012 94.4798 57.8799 86.3495 56.2326C80.8724 55.1229 75.4331 54.215 70.699 53.4249C68.3971 53.0407 66.2619 52.6843 64.3702 52.3461C61.4309 51.8205 59.1168 51.346 57.5731 50.8831C57.128 50.7497 56.7871 50.6287 56.5336 50.5236C56.9582 50.3099 57.6223 50.0514 58.5976 49.753C60.7746 49.087 64.1933 48.3137 69.1441 47.3951L69.1551 47.3931L69.1661 47.3909ZM35.4441 34.3563C39.5773 31.5371 45.128 30.5246 50.9018 30.7421C56.6802 30.9598 62.5424 32.4086 67.0868 34.3721C69.3564 35.3527 71.2511 36.4419 72.6299 37.5351C74.0247 38.641 74.7928 39.6712 75.0156 40.5351C75.2201 41.3282 74.9981 42.0845 74.0767 42.8215C73.0958 43.606 71.2796 44.3921 68.2471 44.9916C63.2712 45.915 59.6798 46.7195 57.2922 47.4499C56.1044 47.8132 55.1359 48.1814 54.4293 48.5718C53.7833 48.9288 53.0302 49.4813 52.9263 50.2915C52.8092 51.2041 53.5587 51.8583 54.1708 52.2288C54.7987 52.6088 55.6304 52.9167 56.5146 53.1818C58.3078 53.7195 60.8349 54.2291 63.7695 54.7538C65.7476 55.1074 67.9299 55.4715 70.2587 55.86C74.9529 56.6432 80.2423 57.5257 85.6547 58.6223C93.7326 60.259 101.86 62.3323 108.256 65.1465L108.33 65.1793L108.408 65.206C110.398 65.8876 111.676 66.5487 112.415 67.1289C113.134 67.6928 113.24 68.0884 113.21 68.343C113.175 68.6394 112.917 69.0894 112.062 69.6447C111.218 70.1926 109.928 70.7515 108.17 71.2711C101.571 73.2219 89.4996 74.3017 74.5297 73.1604C76.6836 71.1241 77.6962 67.3244 77.6962 67.3244L72.7289 61.3802C72.7289 61.3802 66.1936 58.6143 62.1344 57.4807C58.9556 56.593 55.492 55.7542 52.0487 54.9203C51.0806 54.6858 50.114 54.4518 49.1559 54.2171C44.7567 53.1397 40.5188 52.0464 36.9166 50.8167C33.282 49.5758 30.4875 48.2583 28.8239 46.8016C27.2598 45.4319 26.6815 43.9418 27.4413 42.0622C28.2522 40.0563 30.6258 37.5262 35.4237 34.3699L35.434 34.3631L35.4441 34.3563Z" stroke="url(#paint0_linear)" stroke-opacity="0.26" stroke-width="1.5" stroke-miterlimit="1" stroke-linecap="round"/>
<path d="M74 68.9582C71.7045 68.9582 69.1629 69 66.8674 69C65.9774 69 65.0872 68.9164 64.244 68.624C62.8855 68.1644 62.2765 67.2871 62.136 66.0338C61.8549 63.4018 62.0892 60.7699 62.136 58.1379C62.1828 52.7069 62.1828 47.2757 62.2765 41.8447C62.3234 40.5079 62.1828 39.1292 62.8386 37.8342C63.5413 36.4972 64.7593 35.8288 66.3989 36.0377C67.9917 36.2048 68.6475 36.8315 68.9754 38.4191C69.2565 39.7141 69.116 41.0092 69.0692 42.2625C68.835 48.8633 69.0223 55.4642 68.835 62.0649C68.7881 62.9005 69.0223 63.193 70.0529 63.193C73.8474 63.3183 73.2055 63.1512 77 63.193C77.7496 63.193 82.8886 63.3601 83.5913 63.5272C85.0904 63.8196 85.8868 64.5298 85.9804 65.5742C86.121 67.2035 85.512 68.0809 83.9193 68.5404C82.8418 68.8747 81.7174 68.9582 80.5932 68.9582C78.2509 69 76.2486 68.9164 74 68.9582Z" fill="#0066CC" fill-opacity="0.8"/>
<path d="M56.1217 50.0101C56.1217 50.0101 56.1237 50.0115 56.1269 50.0145L56.1217 50.0101ZM69.2813 47.1505C72.5962 46.4963 75.0334 45.5583 76.565 44.3333C78.1572 43.0598 78.7059 41.5202 78.2927 39.9175C77.8977 38.3855 76.6597 36.9198 75.0143 35.6153C73.353 34.2981 71.1736 33.0624 68.6896 31.9892C63.7268 29.8449 57.3637 28.2697 51.0347 28.0313C44.7054 27.7929 38.2709 28.8903 33.3693 32.229C28.4353 35.4762 25.5408 38.3555 24.4733 40.9962C23.3539 43.7651 24.2886 46.1602 26.5546 48.1445C28.7213 50.0418 32.0743 51.5469 35.8298 52.829C39.6177 54.1221 44.0124 55.2522 48.4136 56.3301C49.3977 56.5711 50.3815 56.8094 51.3602 57.0464C54.7919 57.8776 58.1614 58.6937 61.265 59.5604C65.2669 60.678 71.0583 63.1374 71.0583 63.1374L74.5885 67.0425C74.5885 67.0425 73.5573 70.38 70.1238 72.9692L67.734 74.7714L71.1496 75.0968C87.8959 76.692 101.827 75.6292 109.557 73.3439C111.499 72.7698 113.128 72.0961 114.322 71.321C115.504 70.5532 116.401 69.5897 116.537 68.4303C116.677 67.2293 115.969 66.127 114.787 65.1993C113.64 64.2987 111.957 63.4833 109.807 62.7413C103.032 59.7716 94.595 57.6395 86.4647 55.9922C80.9876 54.8825 75.5483 53.9746 70.8142 53.1845C68.5123 52.8003 66.3771 52.4439 64.4854 52.1057C61.5461 51.5801 59.232 51.1056 57.6883 50.6427C57.2432 50.5093 56.9023 50.3883 56.6488 50.2832C57.0734 50.0695 57.7375 49.811 58.7128 49.5126C60.8898 48.8466 64.3085 48.0733 69.2593 47.1547L69.2703 47.1527L69.2813 47.1505ZM35.5593 34.1159C39.6925 31.2967 45.2432 30.2842 51.017 30.5017C56.7954 30.7194 62.6576 32.1682 67.202 34.1317C69.4716 35.1123 71.3663 36.2015 72.7451 37.2947C74.1399 38.4006 74.908 39.4308 75.1308 40.2947C75.3353 41.0878 75.1133 41.8441 74.1919 42.5811C73.211 43.3656 71.3948 44.1517 68.3623 44.7512C63.3864 45.6746 59.795 46.4791 57.4074 47.2095C56.2196 47.5728 55.2511 47.941 54.5445 48.3314C53.8985 48.6884 53.1454 49.2409 53.0415 50.0511C52.9244 50.9637 53.6739 51.6179 54.286 51.9884C54.9139 52.3684 55.7456 52.6763 56.6298 52.9414C58.423 53.4791 60.9501 53.9887 63.8847 54.5134C65.8628 54.867 68.0451 55.2311 70.3739 55.6196C75.0681 56.4028 80.3575 57.2853 85.7699 58.3819C93.8478 60.0186 101.975 62.0919 108.371 64.9061L108.445 64.9389L108.523 64.9656C110.513 65.6472 111.791 66.3083 112.53 66.8885C113.249 67.4524 113.355 67.848 113.325 68.1026C113.29 68.399 113.032 68.849 112.177 69.4043C111.333 69.9522 110.043 70.5111 108.285 71.0307C101.686 72.9815 89.6148 74.0613 74.6449 72.92C76.7988 70.8837 77.8114 67.084 77.8114 67.084L72.8441 61.1398C72.8441 61.1398 66.3088 58.3739 62.2496 57.2403C59.0708 56.3526 55.6072 55.5138 52.1639 54.6799C51.1958 54.4454 50.2292 54.2114 49.2711 53.9767C44.8719 52.8993 40.634 51.806 37.0318 50.5763C33.3972 49.3354 30.6027 48.0179 28.9391 46.5612C27.375 45.1915 26.7967 43.7014 27.5565 41.8218C28.3674 39.8159 30.741 37.2858 35.5389 34.1295L35.5492 34.1227L35.5593 34.1159Z" stroke="url(#paint1_linear)" stroke-opacity="0.6" stroke-width="2" stroke-miterlimit="1" stroke-linecap="round"/>
<path d="M67.255 74.9563C94.5106 51.635 -4.98623 59.5843 32.5929 31.4373C50.034 17.9057 89.6349 39.1054 65.2703 44.8279C27.1893 53.2654 78.5174 51.4521 103.571 63.6695C119.468 69.6524 98.9608 77.9766 67.255 74.9563Z" fill="#0C4DA2" fill-opacity="0.05"/>
<defs>
<linearGradient id="paint0_linear" x1="72.8634" y1="30.2857" x2="68.5939" y2="75.1047" gradientUnits="userSpaceOnUse">
<stop offset="0.9997" stop-color="#0066CC"/>
<stop offset="0.9998" stop-color="white" stop-opacity="0.6"/>
<stop offset="0.9999" stop-color="#0066CC"/>
<stop offset="1" stop-color="#0066CC"/>
</linearGradient>
<linearGradient id="paint1_linear" x1="72.9786" y1="30.0453" x2="68.7091" y2="74.8643" gradientUnits="userSpaceOnUse">
<stop offset="0.9999" stop-color="#0C4DA2"/>
<stop offset="1" stop-color="#0C4DA2" stop-opacity="0"/>
</linearGradient>
</defs>
</svg>
