<svg width="166" height="30" viewBox="0 0 166 30" fill="none" xmlns="http://www.w3.org/2000/svg">
<path d="M94.9434 8V10.2168H98.1074V20.793H94.9434V23H103.879V20.793H100.852V8H94.9434ZM112.99 23H115.744V22.834C115.607 22.5671 115.503 22.248 115.432 21.877C115.36 21.5059 115.324 21.0371 115.324 20.4707V15.9395C115.324 15.3275 115.21 14.7904 114.982 14.3281C114.755 13.8594 114.439 13.472 114.035 13.166C113.632 12.86 113.153 12.6289 112.6 12.4727C112.053 12.3164 111.46 12.2383 110.822 12.2383C110.113 12.2383 109.481 12.3294 108.928 12.5117C108.381 12.6875 107.919 12.9284 107.541 13.2344C107.157 13.5404 106.864 13.8952 106.662 14.2988C106.467 14.7025 106.369 15.1289 106.369 15.5781H109.084C109.084 15.3893 109.11 15.2168 109.162 15.0605C109.221 14.9043 109.309 14.7708 109.426 14.6602C109.556 14.5365 109.725 14.4421 109.934 14.377C110.142 14.3053 110.389 14.2695 110.676 14.2695C111.001 14.2695 111.285 14.3118 111.525 14.3965C111.773 14.4746 111.978 14.5885 112.141 14.7383C112.297 14.8815 112.414 15.054 112.492 15.2559C112.57 15.4512 112.609 15.6725 112.609 15.9199V16.5449H111.096C110.314 16.5449 109.621 16.6165 109.016 16.7598C108.417 16.8965 107.912 17.0983 107.502 17.3652C107.046 17.6582 106.704 18.0326 106.477 18.4883C106.249 18.9375 106.135 19.4551 106.135 20.041C106.135 20.4967 106.226 20.9199 106.408 21.3105C106.59 21.6947 106.844 22.0267 107.17 22.3066C107.495 22.5866 107.883 22.8047 108.332 22.9609C108.788 23.1172 109.286 23.1953 109.826 23.1953C110.158 23.1953 110.467 23.1628 110.754 23.0977C111.04 23.0391 111.304 22.9544 111.545 22.8438C111.779 22.7396 111.994 22.6159 112.189 22.4727C112.385 22.3294 112.557 22.1764 112.707 22.0137C112.74 22.2025 112.779 22.3815 112.824 22.5508C112.87 22.7201 112.925 22.8698 112.99 23ZM110.402 21.0957C110.148 21.0957 109.924 21.0664 109.729 21.0078C109.54 20.9427 109.38 20.8581 109.25 20.7539C109.12 20.6432 109.019 20.5098 108.947 20.3535C108.882 20.1908 108.85 20.015 108.85 19.8262C108.85 19.5853 108.895 19.3639 108.986 19.1621C109.077 18.9538 109.217 18.7747 109.406 18.625C109.595 18.4818 109.839 18.3711 110.139 18.293C110.438 18.2083 110.799 18.166 111.223 18.166H112.609V19.9824C112.531 20.1191 112.424 20.2559 112.287 20.3926C112.15 20.5228 111.988 20.64 111.799 20.7441C111.61 20.8483 111.398 20.9329 111.164 20.998C110.93 21.0632 110.676 21.0957 110.402 21.0957ZM118.439 27.0625H121.154V22.082C121.278 22.2188 121.408 22.3424 121.545 22.4531C121.682 22.5638 121.825 22.6647 121.975 22.7559C122.229 22.8991 122.502 23.0065 122.795 23.0781C123.094 23.1562 123.42 23.1953 123.771 23.1953C124.436 23.1953 125.025 23.0586 125.539 22.7852C126.053 22.5117 126.486 22.1341 126.838 21.6523C127.183 21.1771 127.443 20.6107 127.619 19.9531C127.801 19.2956 127.893 18.5827 127.893 17.8145V17.6094C127.893 16.8086 127.801 16.0794 127.619 15.4219C127.443 14.7578 127.18 14.1882 126.828 13.7129C126.477 13.2441 126.044 12.8828 125.529 12.6289C125.015 12.3685 124.423 12.2383 123.752 12.2383C123.426 12.2383 123.12 12.2741 122.834 12.3457C122.554 12.4108 122.297 12.5052 122.062 12.6289C121.867 12.7331 121.685 12.8568 121.516 13C121.346 13.1367 121.19 13.293 121.047 13.4688L120.949 12.4336H118.439V27.0625ZM125.178 17.6094V17.8145C125.178 18.2507 125.139 18.6641 125.061 19.0547C124.982 19.4388 124.859 19.7773 124.689 20.0703C124.52 20.3633 124.299 20.5944 124.025 20.7637C123.758 20.9329 123.433 21.0176 123.049 21.0176C122.808 21.0176 122.59 20.9948 122.395 20.9492C122.199 20.8971 122.027 20.8255 121.877 20.7344C121.721 20.6367 121.581 20.5195 121.457 20.3828C121.34 20.2461 121.239 20.0931 121.154 19.9238V15.5098C121.245 15.3275 121.353 15.168 121.477 15.0312C121.607 14.8945 121.757 14.7806 121.926 14.6895C122.076 14.6113 122.242 14.5527 122.424 14.5137C122.606 14.4681 122.808 14.4453 123.029 14.4453C123.413 14.4453 123.739 14.5267 124.006 14.6895C124.279 14.8522 124.504 15.0736 124.68 15.3535C124.849 15.64 124.973 15.9785 125.051 16.3691C125.135 16.7533 125.178 17.1667 125.178 17.6094ZM135.393 9.8457H132.678V12.4336H130.266V14.4355H132.678V19.2402C132.678 19.9368 132.769 20.5358 132.951 21.0371C133.133 21.5319 133.394 21.9388 133.732 22.2578C134.064 22.5833 134.465 22.8242 134.934 22.9805C135.409 23.1302 135.936 23.2051 136.516 23.2051C136.815 23.2051 137.118 23.1888 137.424 23.1562C137.736 23.1302 138.036 23.0911 138.322 23.0391C138.609 22.987 138.879 22.9219 139.133 22.8438C139.387 22.7591 139.608 22.6615 139.797 22.5508L139.533 20.6855C139.41 20.7181 139.26 20.7507 139.084 20.7832C138.915 20.8158 138.732 20.8451 138.537 20.8711C138.335 20.9036 138.124 20.9297 137.902 20.9492C137.688 20.9688 137.476 20.9785 137.268 20.9785C136.981 20.9785 136.721 20.946 136.486 20.8809C136.258 20.8158 136.063 20.7051 135.9 20.5488C135.738 20.3991 135.611 20.1973 135.52 19.9434C135.435 19.6829 135.393 19.3607 135.393 18.9766V14.4355H139.338V12.4336H135.393V9.8457ZM142.053 17.6191V17.8242C142.053 18.599 142.163 19.3151 142.385 19.9727C142.606 20.6237 142.932 21.1901 143.361 21.6719C143.785 22.1536 144.305 22.5312 144.924 22.8047C145.549 23.0716 146.258 23.2051 147.053 23.2051C147.84 23.2051 148.544 23.0716 149.162 22.8047C149.781 22.5312 150.301 22.1536 150.725 21.6719C151.148 21.1901 151.47 20.6237 151.691 19.9727C151.913 19.3151 152.023 18.599 152.023 17.8242V17.6191C152.023 16.8509 151.913 16.1413 151.691 15.4902C151.47 14.8327 151.148 14.263 150.725 13.7812C150.295 13.2995 149.771 12.9219 149.152 12.6484C148.534 12.375 147.827 12.2383 147.033 12.2383C146.239 12.2383 145.533 12.375 144.914 12.6484C144.302 12.9219 143.785 13.2995 143.361 13.7812C142.932 14.263 142.606 14.8327 142.385 15.4902C142.163 16.1413 142.053 16.8509 142.053 17.6191ZM144.768 17.8242V17.6191C144.768 17.1895 144.81 16.7826 144.895 16.3984C144.979 16.0143 145.113 15.6758 145.295 15.3828C145.477 15.0898 145.712 14.8587 145.998 14.6895C146.285 14.5202 146.63 14.4355 147.033 14.4355C147.443 14.4355 147.792 14.5202 148.078 14.6895C148.365 14.8587 148.599 15.0898 148.781 15.3828C148.957 15.6758 149.087 16.0143 149.172 16.3984C149.257 16.7826 149.299 17.1895 149.299 17.6191V17.8242C149.299 18.2669 149.257 18.6836 149.172 19.0742C149.087 19.4583 148.957 19.7936 148.781 20.0801C148.599 20.373 148.365 20.6042 148.078 20.7734C147.792 20.9427 147.45 21.0273 147.053 21.0273C146.643 21.0273 146.291 20.9427 145.998 20.7734C145.712 20.6042 145.477 20.373 145.295 20.0801C145.113 19.7936 144.979 19.4583 144.895 19.0742C144.81 18.6836 144.768 18.2669 144.768 17.8242ZM154.475 27.0625H157.189V22.082C157.313 22.2188 157.443 22.3424 157.58 22.4531C157.717 22.5638 157.86 22.6647 158.01 22.7559C158.264 22.8991 158.537 23.0065 158.83 23.0781C159.13 23.1562 159.455 23.1953 159.807 23.1953C160.471 23.1953 161.06 23.0586 161.574 22.7852C162.089 22.5117 162.521 22.1341 162.873 21.6523C163.218 21.1771 163.479 20.6107 163.654 19.9531C163.837 19.2956 163.928 18.5827 163.928 17.8145V17.6094C163.928 16.8086 163.837 16.0794 163.654 15.4219C163.479 14.7578 163.215 14.1882 162.863 13.7129C162.512 13.2441 162.079 12.8828 161.564 12.6289C161.05 12.3685 160.458 12.2383 159.787 12.2383C159.462 12.2383 159.156 12.2741 158.869 12.3457C158.589 12.4108 158.332 12.5052 158.098 12.6289C157.902 12.7331 157.72 12.8568 157.551 13C157.382 13.1367 157.225 13.293 157.082 13.4688L156.984 12.4336H154.475V27.0625ZM161.213 17.6094V17.8145C161.213 18.2507 161.174 18.6641 161.096 19.0547C161.018 19.4388 160.894 19.7773 160.725 20.0703C160.555 20.3633 160.334 20.5944 160.061 20.7637C159.794 20.9329 159.468 21.0176 159.084 21.0176C158.843 21.0176 158.625 20.9948 158.43 20.9492C158.234 20.8971 158.062 20.8255 157.912 20.7344C157.756 20.6367 157.616 20.5195 157.492 20.3828C157.375 20.2461 157.274 20.0931 157.189 19.9238V15.5098C157.281 15.3275 157.388 15.168 157.512 15.0312C157.642 14.8945 157.792 14.7806 157.961 14.6895C158.111 14.6113 158.277 14.5527 158.459 14.5137C158.641 14.4681 158.843 14.4453 159.064 14.4453C159.449 14.4453 159.774 14.5267 160.041 14.6895C160.314 14.8522 160.539 15.0736 160.715 15.3535C160.884 15.64 161.008 15.9785 161.086 16.3691C161.171 16.7533 161.213 17.1667 161.213 17.6094Z" fill="#43A5FE"/>
<path d="M85.0001 16.2087C84.9203 18.4761 84.5221 21.1396 83.0876 23.623C81.3338 26.7543 78.3848 28.3739 74.5988 28.6978C67.6644 29.2737 62.8426 25.4585 61.3282 19.34C60.4116 15.7049 60.4514 12.1056 61.9259 8.54245C64.2772 2.85586 69.3784 0.300399 75.3561 1.16428C78.8628 1.66812 81.1343 3.82755 82.6886 6.59899C84.2828 9.47832 85.0001 12.5376 85.0001 16.2087ZM79.2218 15.3809C79.2617 14.0852 79.0622 12.8255 78.7829 11.5657C78.5444 10.594 78.1853 9.65829 77.6675 8.79442C76.7108 7.13882 75.356 6.02307 73.1642 6.05907C70.8927 6.13105 69.0991 6.99484 67.9438 8.83041C67.0272 10.2701 66.7082 11.8537 66.5487 13.4733C66.3097 16.0287 66.509 18.5841 67.8639 20.8876C68.9403 22.7593 70.6932 23.8749 73.1243 23.8749C75.4757 23.8389 77.03 22.7233 78.0257 20.8876C78.9425 19.124 79.1819 17.2885 79.2218 15.3809Z" fill="#44A5FE"/>
<path d="M24.2932 29.6225C23.4396 29.5861 22.6672 28.8588 22.0169 27.9497C21.3259 26.9678 20.9599 25.8768 20.4722 24.7858C20.2283 24.1676 19.8625 23.913 19.0901 23.913C15.5536 23.9493 12.0578 23.9493 8.52133 23.913C7.8709 23.913 7.54574 24.0948 7.34252 24.6039C6.81404 25.7676 6.4076 26.9314 5.67591 27.986C4.57837 29.5861 2.78981 30.0225 1.00126 29.0406C0.106933 28.5314 -0.218235 27.6587 0.147612 26.4586C0.635407 24.8949 1.40769 23.4765 2.05812 21.9856C4.90354 15.7305 7.70836 9.512 10.5944 3.25713C11.4888 1.32962 12.1798 0.966035 14.3342 1.00238C15.1878 1.00238 15.7976 1.32963 16.326 1.91153C16.9764 2.67523 17.3422 3.54804 17.7488 4.42077C20.8787 11.3303 24.0087 18.2399 27.1387 25.1495C27.3012 25.5494 27.5045 25.9494 27.6265 26.3495C28.1549 28.386 27.0574 29.6225 24.2932 29.6225ZM13.887 10.4212C12.5862 13.0759 11.4073 15.5488 10.1879 17.9854C9.90336 18.5308 10.1067 18.6399 10.7164 18.6399C12.8302 18.6035 14.9845 18.6035 17.0984 18.6399C17.6673 18.6399 17.9113 18.5672 17.6268 17.9854C16.3667 15.5488 15.1878 13.0759 13.887 10.4212Z" fill="#43A5FE"/>
<path d="M45.102 29.5864C43.111 29.5864 40.9066 29.6226 38.9156 29.6226C38.1437 29.6226 37.3716 29.5501 36.6402 29.2965C35.4619 28.8979 34.9337 28.137 34.8118 27.0499C34.568 24.7671 34.7712 22.4843 34.8118 20.2014C34.8524 15.4909 34.8524 10.7802 34.9337 6.0696C34.9744 4.91013 34.8524 3.71432 35.4212 2.5911C36.0307 1.43146 37.0871 0.851726 38.5093 1.03291C39.8908 1.17785 40.4596 1.72141 40.744 3.09841C40.9878 4.22163 40.8659 5.34493 40.8253 6.43197C40.6222 12.1571 40.7846 17.8824 40.6222 23.6075C40.5815 24.3323 40.7846 24.586 41.6785 24.586C44.9697 24.6946 44.4129 24.5497 47.7041 24.586C48.3542 24.586 52.8115 24.7309 53.421 24.8758C54.7213 25.1294 55.412 25.7454 55.4932 26.6513C55.6152 28.0645 55.0869 28.8255 53.7055 29.224C52.7709 29.514 51.7957 29.5864 50.8206 29.5864C48.789 29.6226 47.0524 29.5501 45.102 29.5864Z" fill="#43A5FE"/>
</svg>
