<svg width="166" height="30" viewBox="0 0 166 30" fill="none" xmlns="http://www.w3.org/2000/svg">
<path d="M96.416 27.0625H99.1309V22.082C99.2546 22.2188 99.3848 22.3424 99.5215 22.4531C99.6582 22.5638 99.8014 22.6647 99.9512 22.7559C100.205 22.8991 100.479 23.0065 100.771 23.0781C101.071 23.1562 101.396 23.1953 101.748 23.1953C102.412 23.1953 103.001 23.0586 103.516 22.7852C104.03 22.5117 104.463 22.1341 104.814 21.6523C105.16 21.1771 105.42 20.6107 105.596 19.9531C105.778 19.2956 105.869 18.5827 105.869 17.8145V17.6094C105.869 16.8086 105.778 16.0794 105.596 15.4219C105.42 14.7578 105.156 14.1882 104.805 13.7129C104.453 13.2441 104.02 12.8828 103.506 12.6289C102.992 12.3685 102.399 12.2383 101.729 12.2383C101.403 12.2383 101.097 12.2741 100.811 12.3457C100.531 12.4108 100.273 12.5052 100.039 12.6289C99.8438 12.7331 99.6615 12.8568 99.4922 13C99.3229 13.1367 99.1667 13.293 99.0234 13.4688L98.9258 12.4336H96.416V27.0625ZM103.154 17.6094V17.8145C103.154 18.2507 103.115 18.6641 103.037 19.0547C102.959 19.4388 102.835 19.7773 102.666 20.0703C102.497 20.3633 102.275 20.5944 102.002 20.7637C101.735 20.9329 101.41 21.0176 101.025 21.0176C100.785 21.0176 100.566 20.9948 100.371 20.9492C100.176 20.8971 100.003 20.8255 99.8535 20.7344C99.6973 20.6367 99.5573 20.5195 99.4336 20.3828C99.3164 20.2461 99.2155 20.0931 99.1309 19.9238V15.5098C99.222 15.3275 99.3294 15.168 99.4531 15.0312C99.5833 14.8945 99.7331 14.7806 99.9023 14.6895C100.052 14.6113 100.218 14.5527 100.4 14.5137C100.583 14.4681 100.785 14.4453 101.006 14.4453C101.39 14.4453 101.715 14.5267 101.982 14.6895C102.256 14.8522 102.48 15.0736 102.656 15.3535C102.826 15.64 102.949 15.9785 103.027 16.3691C103.112 16.7533 103.154 17.1667 103.154 17.6094ZM111.104 13.8887V8H108.389V23H111.104V15.373C111.208 15.2363 111.322 15.1126 111.445 15.002C111.576 14.8913 111.719 14.7969 111.875 14.7188C112.044 14.6276 112.233 14.5592 112.441 14.5137C112.65 14.4681 112.874 14.4453 113.115 14.4453C113.428 14.4453 113.708 14.4876 113.955 14.5723C114.202 14.6504 114.414 14.7741 114.59 14.9434C114.766 15.1126 114.899 15.334 114.99 15.6074C115.088 15.8809 115.137 16.2064 115.137 16.584V23H117.852V16.6035C117.852 15.8288 117.757 15.168 117.568 14.6211C117.386 14.0677 117.129 13.6152 116.797 13.2637C116.465 12.9121 116.068 12.6549 115.605 12.4922C115.143 12.3229 114.635 12.2383 114.082 12.2383C113.704 12.2383 113.346 12.2936 113.008 12.4043C112.669 12.515 112.36 12.6712 112.08 12.873C111.898 13.0033 111.722 13.1562 111.553 13.332C111.39 13.5013 111.24 13.6868 111.104 13.8887ZM120.029 17.6191V17.8242C120.029 18.599 120.14 19.3151 120.361 19.9727C120.583 20.6237 120.908 21.1901 121.338 21.6719C121.761 22.1536 122.282 22.5312 122.9 22.8047C123.525 23.0716 124.235 23.2051 125.029 23.2051C125.817 23.2051 126.52 23.0716 127.139 22.8047C127.757 22.5312 128.278 22.1536 128.701 21.6719C129.124 21.1901 129.447 20.6237 129.668 19.9727C129.889 19.3151 130 18.599 130 17.8242V17.6191C130 16.8509 129.889 16.1413 129.668 15.4902C129.447 14.8327 129.124 14.263 128.701 13.7812C128.271 13.2995 127.747 12.9219 127.129 12.6484C126.51 12.375 125.804 12.2383 125.01 12.2383C124.215 12.2383 123.509 12.375 122.891 12.6484C122.279 12.9219 121.761 13.2995 121.338 13.7812C120.908 14.263 120.583 14.8327 120.361 15.4902C120.14 16.1413 120.029 16.8509 120.029 17.6191ZM122.744 17.8242V17.6191C122.744 17.1895 122.786 16.7826 122.871 16.3984C122.956 16.0143 123.089 15.6758 123.271 15.3828C123.454 15.0898 123.688 14.8587 123.975 14.6895C124.261 14.5202 124.606 14.4355 125.01 14.4355C125.42 14.4355 125.768 14.5202 126.055 14.6895C126.341 14.8587 126.576 15.0898 126.758 15.3828C126.934 15.6758 127.064 16.0143 127.148 16.3984C127.233 16.7826 127.275 17.1895 127.275 17.6191V17.8242C127.275 18.2669 127.233 18.6836 127.148 19.0742C127.064 19.4583 126.934 19.7936 126.758 20.0801C126.576 20.373 126.341 20.6042 126.055 20.7734C125.768 20.9427 125.426 21.0273 125.029 21.0273C124.619 21.0273 124.268 20.9427 123.975 20.7734C123.688 20.6042 123.454 20.373 123.271 20.0801C123.089 19.7936 122.956 19.4583 122.871 19.0742C122.786 18.6836 122.744 18.2669 122.744 17.8242ZM132.412 23H135.137V15.4902C135.228 15.347 135.329 15.2168 135.439 15.0996C135.55 14.9824 135.674 14.8815 135.811 14.7969C135.98 14.6797 136.172 14.5918 136.387 14.5332C136.608 14.4746 136.849 14.4453 137.109 14.4453C137.422 14.4453 137.702 14.4779 137.949 14.543C138.197 14.6016 138.408 14.709 138.584 14.8652C138.76 15.0215 138.893 15.2363 138.984 15.5098C139.082 15.7767 139.131 16.1185 139.131 16.5352V23H141.846V16.4961C141.846 15.7279 141.755 15.0768 141.572 14.543C141.396 14.0026 141.149 13.5599 140.83 13.2148C140.505 12.8763 140.12 12.6289 139.678 12.4727C139.235 12.3164 138.747 12.2383 138.213 12.2383C137.796 12.2383 137.402 12.2969 137.031 12.4141C136.66 12.5312 136.318 12.7005 136.006 12.9219C135.824 13.0521 135.651 13.1986 135.488 13.3613C135.326 13.5241 135.176 13.7031 135.039 13.8984L134.873 12.4336H132.412V23ZM149.551 23.1953C150.573 23.1953 151.458 22.9967 152.207 22.5996C152.956 22.2025 153.503 21.7598 153.848 21.2715L152.49 19.8066C152.178 20.2103 151.771 20.513 151.27 20.7148C150.768 20.9167 150.251 21.0176 149.717 21.0176C149.339 21.0176 148.991 20.959 148.672 20.8418C148.353 20.7246 148.07 20.5586 147.822 20.3438C147.581 20.1354 147.389 19.9043 147.246 19.6504C147.103 19.39 146.986 19.0482 146.895 18.625V18.5957H154.062V17.4434C154.062 16.6686 153.955 15.9622 153.74 15.3242C153.525 14.6797 153.213 14.1296 152.803 13.6738C152.386 13.2181 151.878 12.8665 151.279 12.6191C150.687 12.3652 150.01 12.2383 149.248 12.2383C148.512 12.2383 147.832 12.3717 147.207 12.6387C146.582 12.9056 146.042 13.2799 145.586 13.7617C145.13 14.2435 144.775 14.8197 144.521 15.4902C144.268 16.1543 144.141 16.89 144.141 17.6973V18.0879C144.141 18.7975 144.268 19.4648 144.521 20.0898C144.782 20.7083 145.15 21.2454 145.625 21.7012C146.1 22.1634 146.67 22.528 147.334 22.7949C147.998 23.0618 148.737 23.1953 149.551 23.1953ZM149.229 14.4355C149.574 14.4355 149.876 14.4909 150.137 14.6016C150.404 14.7057 150.628 14.849 150.811 15.0312C150.993 15.2201 151.136 15.4414 151.24 15.6953C151.344 15.9492 151.396 16.2194 151.396 16.5059V16.7207H146.943C147.008 16.3757 147.106 16.0632 147.236 15.7832C147.367 15.5033 147.529 15.2624 147.725 15.0605C147.913 14.8587 148.135 14.7057 148.389 14.6016C148.643 14.4909 148.923 14.4355 149.229 14.4355Z" fill="#43A5FE"/>
<path d="M85.0001 16.2087C84.9203 18.4761 84.5221 21.1396 83.0876 23.623C81.3338 26.7543 78.3848 28.3739 74.5988 28.6978C67.6644 29.2737 62.8426 25.4585 61.3282 19.34C60.4116 15.7049 60.4514 12.1056 61.9259 8.54245C64.2772 2.85586 69.3784 0.300399 75.3561 1.16428C78.8628 1.66812 81.1343 3.82755 82.6886 6.59899C84.2828 9.47832 85.0001 12.5376 85.0001 16.2087ZM79.2218 15.3809C79.2617 14.0852 79.0622 12.8255 78.7829 11.5657C78.5444 10.594 78.1853 9.65829 77.6675 8.79442C76.7108 7.13882 75.356 6.02307 73.1642 6.05907C70.8927 6.13105 69.0991 6.99484 67.9438 8.83041C67.0272 10.2701 66.7082 11.8537 66.5487 13.4733C66.3097 16.0287 66.509 18.5841 67.8639 20.8876C68.9403 22.7593 70.6932 23.8749 73.1243 23.8749C75.4757 23.8389 77.03 22.7233 78.0257 20.8876C78.9425 19.124 79.1819 17.2885 79.2218 15.3809Z" fill="#44A5FE"/>
<path d="M24.2932 29.6225C23.4396 29.5861 22.6672 28.8588 22.0169 27.9497C21.3259 26.9678 20.9599 25.8768 20.4722 24.7858C20.2283 24.1676 19.8625 23.913 19.0901 23.913C15.5536 23.9493 12.0578 23.9493 8.52133 23.913C7.8709 23.913 7.54574 24.0948 7.34252 24.6039C6.81404 25.7676 6.4076 26.9314 5.67591 27.986C4.57837 29.5861 2.78981 30.0225 1.00126 29.0406C0.106933 28.5314 -0.218235 27.6587 0.147612 26.4586C0.635407 24.8949 1.40769 23.4765 2.05812 21.9856C4.90354 15.7305 7.70836 9.512 10.5944 3.25713C11.4888 1.32962 12.1798 0.966035 14.3342 1.00238C15.1878 1.00238 15.7976 1.32963 16.326 1.91153C16.9764 2.67523 17.3422 3.54804 17.7488 4.42077C20.8787 11.3303 24.0087 18.2399 27.1387 25.1495C27.3012 25.5494 27.5045 25.9494 27.6265 26.3495C28.1549 28.386 27.0574 29.6225 24.2932 29.6225ZM13.887 10.4212C12.5862 13.0759 11.4073 15.5488 10.1879 17.9854C9.90336 18.5308 10.1067 18.6399 10.7164 18.6399C12.8302 18.6035 14.9845 18.6035 17.0984 18.6399C17.6673 18.6399 17.9113 18.5672 17.6268 17.9854C16.3667 15.5488 15.1878 13.0759 13.887 10.4212Z" fill="#43A5FE"/>
<path d="M45.102 29.5864C43.111 29.5864 40.9066 29.6226 38.9156 29.6226C38.1437 29.6226 37.3716 29.5501 36.6402 29.2965C35.4619 28.8979 34.9337 28.137 34.8118 27.0499C34.568 24.7671 34.7712 22.4843 34.8118 20.2014C34.8524 15.4909 34.8524 10.7802 34.9337 6.0696C34.9744 4.91013 34.8524 3.71432 35.4212 2.5911C36.0307 1.43146 37.0871 0.851726 38.5093 1.03291C39.8908 1.17785 40.4596 1.72141 40.744 3.09841C40.9878 4.22163 40.8659 5.34493 40.8253 6.43197C40.6222 12.1571 40.7846 17.8824 40.6222 23.6075C40.5815 24.3323 40.7846 24.586 41.6785 24.586C44.9697 24.6946 44.4129 24.5497 47.7041 24.586C48.3542 24.586 52.8115 24.7309 53.421 24.8758C54.7213 25.1294 55.412 25.7454 55.4932 26.6513C55.6152 28.0645 55.0869 28.8255 53.7055 29.224C52.7709 29.514 51.7957 29.5864 50.8206 29.5864C48.789 29.6226 47.0524 29.5501 45.102 29.5864Z" fill="#43A5FE"/>
</svg>
