<svg width="166" height="30" viewBox="0 0 166 30" fill="none" xmlns="http://www.w3.org/2000/svg">
<path d="M101.504 23.1953C102.526 23.1953 103.411 22.9967 104.16 22.5996C104.909 22.2025 105.456 21.7598 105.801 21.2715L104.443 19.8066C104.131 20.2103 103.724 20.513 103.223 20.7148C102.721 20.9167 102.204 21.0176 101.67 21.0176C101.292 21.0176 100.944 20.959 100.625 20.8418C100.306 20.7246 100.023 20.5586 99.7754 20.3438C99.5345 20.1354 99.3424 19.9043 99.1992 19.6504C99.056 19.39 98.9388 19.0482 98.8477 18.625V18.5957H106.016V17.4434C106.016 16.6686 105.908 15.9622 105.693 15.3242C105.479 14.6797 105.166 14.1296 104.756 13.6738C104.339 13.2181 103.831 12.8665 103.232 12.6191C102.64 12.3652 101.963 12.2383 101.201 12.2383C100.465 12.2383 99.7852 12.3717 99.1602 12.6387C98.5352 12.9056 97.9948 13.2799 97.5391 13.7617C97.0833 14.2435 96.7285 14.8197 96.4746 15.4902C96.2207 16.1543 96.0938 16.89 96.0938 17.6973V18.0879C96.0938 18.7975 96.2207 19.4648 96.4746 20.0898C96.735 20.7083 97.1029 21.2454 97.5781 21.7012C98.0534 22.1634 98.623 22.528 99.2871 22.7949C99.9512 23.0618 100.69 23.1953 101.504 23.1953ZM101.182 14.4355C101.527 14.4355 101.829 14.4909 102.09 14.6016C102.357 14.7057 102.581 14.849 102.764 15.0312C102.946 15.2201 103.089 15.4414 103.193 15.6953C103.298 15.9492 103.35 16.2194 103.35 16.5059V16.7207H98.8965C98.9616 16.3757 99.0592 16.0632 99.1895 15.7832C99.3197 15.5033 99.4824 15.2624 99.6777 15.0605C99.8665 14.8587 100.088 14.7057 100.342 14.6016C100.596 14.4909 100.876 14.4355 101.182 14.4355ZM114.99 23H117.744V22.834C117.607 22.5671 117.503 22.248 117.432 21.877C117.36 21.5059 117.324 21.0371 117.324 20.4707V15.9395C117.324 15.3275 117.21 14.7904 116.982 14.3281C116.755 13.8594 116.439 13.472 116.035 13.166C115.632 12.86 115.153 12.6289 114.6 12.4727C114.053 12.3164 113.46 12.2383 112.822 12.2383C112.113 12.2383 111.481 12.3294 110.928 12.5117C110.381 12.6875 109.919 12.9284 109.541 13.2344C109.157 13.5404 108.864 13.8952 108.662 14.2988C108.467 14.7025 108.369 15.1289 108.369 15.5781H111.084C111.084 15.3893 111.11 15.2168 111.162 15.0605C111.221 14.9043 111.309 14.7708 111.426 14.6602C111.556 14.5365 111.725 14.4421 111.934 14.377C112.142 14.3053 112.389 14.2695 112.676 14.2695C113.001 14.2695 113.285 14.3118 113.525 14.3965C113.773 14.4746 113.978 14.5885 114.141 14.7383C114.297 14.8815 114.414 15.054 114.492 15.2559C114.57 15.4512 114.609 15.6725 114.609 15.9199V16.5449H113.096C112.314 16.5449 111.621 16.6165 111.016 16.7598C110.417 16.8965 109.912 17.0983 109.502 17.3652C109.046 17.6582 108.704 18.0326 108.477 18.4883C108.249 18.9375 108.135 19.4551 108.135 20.041C108.135 20.4967 108.226 20.9199 108.408 21.3105C108.59 21.6947 108.844 22.0267 109.17 22.3066C109.495 22.5866 109.883 22.8047 110.332 22.9609C110.788 23.1172 111.286 23.1953 111.826 23.1953C112.158 23.1953 112.467 23.1628 112.754 23.0977C113.04 23.0391 113.304 22.9544 113.545 22.8438C113.779 22.7396 113.994 22.6159 114.189 22.4727C114.385 22.3294 114.557 22.1764 114.707 22.0137C114.74 22.2025 114.779 22.3815 114.824 22.5508C114.87 22.7201 114.925 22.8698 114.99 23ZM112.402 21.0957C112.148 21.0957 111.924 21.0664 111.729 21.0078C111.54 20.9427 111.38 20.8581 111.25 20.7539C111.12 20.6432 111.019 20.5098 110.947 20.3535C110.882 20.1908 110.85 20.015 110.85 19.8262C110.85 19.5853 110.895 19.3639 110.986 19.1621C111.077 18.9538 111.217 18.7747 111.406 18.625C111.595 18.4818 111.839 18.3711 112.139 18.293C112.438 18.2083 112.799 18.166 113.223 18.166H114.609V19.9824C114.531 20.1191 114.424 20.2559 114.287 20.3926C114.15 20.5228 113.988 20.64 113.799 20.7441C113.61 20.8483 113.398 20.9329 113.164 20.998C112.93 21.0632 112.676 21.0957 112.402 21.0957ZM127.988 12.2383C127.279 12.2383 126.624 12.4108 126.025 12.7559C125.426 13.0944 124.912 13.5632 124.482 14.1621L124.463 13.9277L124.355 12.4336H121.826V23H124.541V16.6523C124.665 16.3529 124.821 16.0924 125.01 15.8711C125.199 15.6497 125.426 15.4674 125.693 15.3242C125.915 15.2005 126.165 15.1094 126.445 15.0508C126.732 14.9857 127.051 14.9531 127.402 14.9531C127.741 14.9531 128.096 14.9759 128.467 15.0215C128.844 15.0605 129.212 15.1224 129.57 15.207L129.971 12.502C129.756 12.4368 129.473 12.3783 129.121 12.3262C128.776 12.2676 128.398 12.2383 127.988 12.2383Z" fill="#43A5FE"/>
<path d="M85.0001 16.2087C84.9203 18.4761 84.5221 21.1396 83.0876 23.623C81.3338 26.7543 78.3848 28.3739 74.5988 28.6978C67.6644 29.2737 62.8426 25.4585 61.3282 19.34C60.4116 15.7049 60.4514 12.1056 61.9259 8.54245C64.2772 2.85586 69.3784 0.300399 75.3561 1.16428C78.8628 1.66812 81.1343 3.82755 82.6886 6.59899C84.2828 9.47832 85.0001 12.5376 85.0001 16.2087ZM79.2218 15.3809C79.2617 14.0852 79.0622 12.8255 78.7829 11.5657C78.5444 10.594 78.1853 9.65829 77.6675 8.79442C76.7108 7.13882 75.356 6.02307 73.1642 6.05907C70.8927 6.13105 69.0991 6.99484 67.9438 8.83041C67.0272 10.2701 66.7082 11.8537 66.5487 13.4733C66.3097 16.0287 66.509 18.5841 67.8639 20.8876C68.9403 22.7593 70.6932 23.8749 73.1243 23.8749C75.4757 23.8389 77.03 22.7233 78.0257 20.8876C78.9425 19.124 79.1819 17.2885 79.2218 15.3809Z" fill="#44A5FE"/>
<path d="M24.2932 29.6225C23.4396 29.5861 22.6672 28.8588 22.0169 27.9497C21.3259 26.9678 20.9599 25.8768 20.4722 24.7858C20.2283 24.1676 19.8625 23.913 19.0901 23.913C15.5536 23.9493 12.0578 23.9493 8.52133 23.913C7.8709 23.913 7.54574 24.0948 7.34252 24.6039C6.81404 25.7676 6.4076 26.9314 5.67591 27.986C4.57837 29.5861 2.78981 30.0225 1.00126 29.0406C0.106933 28.5314 -0.218235 27.6587 0.147612 26.4586C0.635407 24.8949 1.40769 23.4765 2.05812 21.9856C4.90354 15.7305 7.70836 9.512 10.5944 3.25713C11.4888 1.32962 12.1798 0.966035 14.3342 1.00238C15.1878 1.00238 15.7976 1.32963 16.326 1.91153C16.9764 2.67523 17.3422 3.54804 17.7488 4.42077C20.8787 11.3303 24.0087 18.2399 27.1387 25.1495C27.3012 25.5494 27.5045 25.9494 27.6265 26.3495C28.1549 28.386 27.0574 29.6225 24.2932 29.6225ZM13.887 10.4212C12.5862 13.0759 11.4073 15.5488 10.1879 17.9854C9.90336 18.5308 10.1067 18.6399 10.7164 18.6399C12.8302 18.6035 14.9845 18.6035 17.0984 18.6399C17.6673 18.6399 17.9113 18.5672 17.6268 17.9854C16.3667 15.5488 15.1878 13.0759 13.887 10.4212Z" fill="#43A5FE"/>
<path d="M45.102 29.5864C43.111 29.5864 40.9066 29.6226 38.9156 29.6226C38.1437 29.6226 37.3716 29.5501 36.6402 29.2965C35.4619 28.8979 34.9337 28.137 34.8118 27.0499C34.568 24.7671 34.7712 22.4843 34.8118 20.2014C34.8524 15.4909 34.8524 10.7802 34.9337 6.0696C34.9744 4.91013 34.8524 3.71432 35.4212 2.5911C36.0307 1.43146 37.0871 0.851726 38.5093 1.03291C39.8908 1.17785 40.4596 1.72141 40.744 3.09841C40.9878 4.22163 40.8659 5.34493 40.8253 6.43197C40.6222 12.1571 40.7846 17.8824 40.6222 23.6075C40.5815 24.3323 40.7846 24.586 41.6785 24.586C44.9697 24.6946 44.4129 24.5497 47.7041 24.586C48.3542 24.586 52.8115 24.7309 53.421 24.8758C54.7213 25.1294 55.412 25.7454 55.4932 26.6513C55.6152 28.0645 55.0869 28.8255 53.7055 29.224C52.7709 29.514 51.7957 29.5864 50.8206 29.5864C48.789 29.6226 47.0524 29.5501 45.102 29.5864Z" fill="#43A5FE"/>
</svg>
