<svg width="137" height="104" viewBox="0 0 137 104" fill="none" xmlns="http://www.w3.org/2000/svg">
<ellipse cx="68.5" cy="52" rx="65.5" ry="49" stroke="#43A5FE" stroke-opacity="0.76" stroke-width="6"/>
<path d="M120 53.5348C119.908 56.149 119.449 59.2198 117.795 62.083C115.773 65.6932 112.373 67.5605 108.008 67.934C100.013 68.598 94.4537 64.1993 92.7077 57.145C91.651 52.9539 91.6969 48.8042 93.3969 44.696C96.1078 38.1397 101.989 35.1934 108.881 36.1894C112.924 36.7703 115.543 39.26 117.335 42.4553C119.173 45.775 120 49.3022 120 53.5348ZM113.338 52.5804C113.384 51.0865 113.154 49.6342 112.832 48.1817C112.557 47.0613 112.143 45.9825 111.546 44.9865C110.443 43.0777 108.881 41.7913 106.354 41.8328C103.735 41.9158 101.667 42.9117 100.335 45.028C99.2782 46.6879 98.9106 48.5137 98.7267 50.381C98.4511 53.3273 98.6809 56.2735 100.243 58.9293C101.484 61.0872 103.505 62.3735 106.308 62.3735C109.019 62.332 110.811 61.0457 111.959 58.9293C113.016 56.896 113.292 54.7797 113.338 52.5804Z" fill="#44A5FE"/>
<path d="M50.0086 69C49.0245 68.9581 48.134 68.1195 47.3842 67.0714C46.5875 65.9393 46.1656 64.6814 45.6033 63.4236C45.322 62.7108 44.9003 62.4173 44.0098 62.4173C39.9324 62.4592 35.9019 62.4592 31.8246 62.4173C31.0747 62.4173 30.6998 62.6269 30.4655 63.2139C29.8562 64.5556 29.3876 65.8973 28.544 67.1132C27.2786 68.9581 25.2165 69.4612 23.1544 68.3291C22.1233 67.7421 21.7484 66.7359 22.1702 65.3522C22.7326 63.5494 23.623 61.9141 24.3729 60.1951C27.6535 52.9834 30.8873 45.8138 34.2147 38.6023C35.2459 36.38 36.0426 35.9608 38.5265 36.0027C39.5106 36.0027 40.2137 36.38 40.8229 37.0509C41.5728 37.9314 41.9945 38.9377 42.4633 39.9439C46.0719 47.9102 49.6806 55.8766 53.2893 63.8429C53.4767 64.304 53.7111 64.7652 53.8517 65.2264C54.461 67.5744 53.1956 69 50.0086 69ZM38.0109 46.8621C36.5112 49.9228 35.152 52.7739 33.7461 55.5831C33.418 56.2119 33.6524 56.3377 34.3554 56.3377C36.7925 56.2958 39.2763 56.2958 41.7134 56.3377C42.3694 56.3377 42.6507 56.2539 42.3227 55.5831C40.8698 52.7739 39.5107 49.9228 38.0109 46.8621Z" fill="#43A5FE"/>
<path fill-rule="evenodd" clip-rule="evenodd" d="M76.4499 44.5737C74.9183 45.7987 72.4811 46.7367 69.1662 47.3909L69.1552 47.3931L69.1442 47.3951C64.1934 48.3137 60.7747 49.087 58.5977 49.753C57.6224 50.0514 56.9583 50.3099 56.5337 50.5236C56.7872 50.6287 57.1281 50.7497 57.5732 50.8831C59.1169 51.346 61.431 51.8205 64.3703 52.3461C66.262 52.6843 68.3972 53.0407 70.6991 53.4249C75.4332 54.215 80.8725 55.1229 86.3496 56.2326C94.4799 57.8799 102.917 60.012 109.692 62.9817C111.842 63.7237 113.525 64.5391 114.672 65.4397C115.854 66.3674 116.562 67.4697 116.422 68.6707C116.286 69.8301 115.389 70.7936 114.207 71.5614C113.013 72.3365 111.384 73.0102 109.442 73.5843C101.712 75.8696 87.7808 76.9324 71.0345 75.3372L67.6189 75.0118L70.0087 73.2096C73.4422 70.6204 74.4734 67.2829 74.4734 67.2829L70.9432 63.3778C70.9432 63.3778 65.1518 60.9184 61.1499 59.8008C58.0463 58.9341 54.6768 58.118 51.2451 57.2868C50.2664 57.0498 49.2826 56.8115 48.2985 56.5705C43.8973 55.4926 39.5026 54.3625 35.7147 53.0694C31.9592 51.7872 28.6062 50.2822 26.4395 48.3849C24.1735 46.4006 23.2388 44.0055 24.3582 41.2366C25.4257 38.5959 28.3202 35.7166 33.2542 32.4694C38.1558 29.1307 44.5903 28.0333 50.9196 28.2717C57.2486 28.5101 63.6117 30.0853 68.5745 32.2296C71.0585 33.3028 73.2379 34.5385 74.8992 35.8557C76.5446 37.1602 77.7826 38.6259 78.1776 40.1579C78.5908 41.7606 78.0421 43.3002 76.4499 44.5737ZM50.9019 30.7421C45.1281 30.5246 39.5774 31.5371 35.4442 34.3563L35.4341 34.3631L35.4238 34.3699C30.6259 37.5262 28.2523 40.0563 27.4414 42.0622C26.6816 43.9418 27.2599 45.4319 28.824 46.8016C30.4876 48.2583 33.2821 49.5758 36.9167 50.8167C40.5189 52.0464 44.7568 53.1397 49.156 54.2171C50.1141 54.4518 51.0807 54.6858 52.0488 54.9203C55.4921 55.7542 58.9557 56.593 62.1345 57.4807C66.1937 58.6143 72.729 61.3802 72.729 61.3802L77.6963 67.3244C77.6963 67.3244 76.6837 71.1241 74.5298 73.1604C89.4997 74.3018 101.571 73.2219 108.17 71.2711C109.928 70.7515 111.218 70.1926 112.062 69.6447C112.917 69.0894 113.175 68.6394 113.21 68.343C113.24 68.0884 113.134 67.6928 112.415 67.1289C111.676 66.5487 110.398 65.8876 108.408 65.206L108.33 65.1793L108.256 65.1465C101.86 62.3323 93.7327 60.259 85.6548 58.6223C80.2424 57.5257 74.953 56.6432 70.2588 55.86C67.93 55.4715 65.7477 55.1074 63.7696 54.7538C60.835 54.2291 58.3079 53.7195 56.5147 53.1818C55.6305 52.9167 54.7988 52.6088 54.1709 52.2288C53.5588 51.8583 52.8093 51.2041 52.9264 50.2915C53.0303 49.4813 53.7834 48.9288 54.4294 48.5718C55.136 48.1814 56.1045 47.8132 57.2923 47.4499C59.6799 46.7195 63.2713 45.915 68.2472 44.9916C71.2797 44.3921 73.0959 43.606 74.0768 42.8215C74.9982 42.0845 75.2202 41.3282 75.0157 40.5351C74.7929 39.6712 74.0248 38.641 72.63 37.5351C71.2512 36.4419 69.3565 35.3527 67.0869 34.3721C62.5425 32.4086 56.6803 30.9598 50.9019 30.7421Z" fill="white"/>
<path d="M56.0066 50.2505C56.0066 50.2505 56.0086 50.2519 56.0118 50.2549M69.1662 47.3909C72.4811 46.7367 74.9183 45.7987 76.4499 44.5737C78.0421 43.3002 78.5908 41.7606 78.1776 40.1579C77.7826 38.6259 76.5446 37.1602 74.8992 35.8557C73.2379 34.5385 71.0585 33.3028 68.5745 32.2296C63.6117 30.0853 57.2486 28.5101 50.9196 28.2717C44.5903 28.0333 38.1558 29.1307 33.2542 32.4694C28.3202 35.7166 25.4257 38.5959 24.3582 41.2366C23.2388 44.0055 24.1735 46.4006 26.4395 48.3849C28.6062 50.2822 31.9592 51.7873 35.7147 53.0694C39.5026 54.3625 43.8973 55.4926 48.2985 56.5705C49.2826 56.8115 50.2664 57.0498 51.2451 57.2868C54.6768 58.118 58.0463 58.9341 61.1499 59.8008C65.1518 60.9184 70.9432 63.3778 70.9432 63.3778L74.4734 67.2829C74.4734 67.2829 73.4422 70.6204 70.0087 73.2096L67.6189 75.0118L71.0345 75.3372C87.7808 76.9324 101.712 75.8696 109.442 73.5843C111.384 73.0102 113.013 72.3365 114.207 71.5614C115.389 70.7936 116.286 69.8301 116.422 68.6707C116.562 67.4697 115.854 66.3674 114.672 65.4397C113.525 64.5391 111.842 63.7237 109.692 62.9817C102.917 60.012 94.4799 57.8799 86.3496 56.2326C80.8725 55.1229 75.4332 54.215 70.6991 53.4249C68.3972 53.0407 66.262 52.6843 64.3703 52.3461C61.431 51.8205 59.1169 51.346 57.5732 50.8831C57.1281 50.7497 56.7872 50.6287 56.5337 50.5236C56.9583 50.3099 57.6224 50.0514 58.5977 49.753C60.7747 49.087 64.1934 48.3137 69.1442 47.3951L69.1552 47.3931L69.1662 47.3909ZM35.4442 34.3563C39.5774 31.5371 45.1281 30.5246 50.9019 30.7421C56.6803 30.9598 62.5425 32.4086 67.0869 34.3721C69.3565 35.3527 71.2512 36.4419 72.63 37.5351C74.0248 38.641 74.7929 39.6712 75.0157 40.5351C75.2202 41.3282 74.9982 42.0845 74.0768 42.8215C73.0959 43.606 71.2797 44.3921 68.2472 44.9916C63.2713 45.915 59.6799 46.7195 57.2923 47.4499C56.1045 47.8132 55.136 48.1814 54.4294 48.5718C53.7834 48.9288 53.0303 49.4813 52.9264 50.2915C52.8093 51.2041 53.5588 51.8583 54.1709 52.2288C54.7988 52.6088 55.6305 52.9167 56.5147 53.1818C58.3079 53.7195 60.835 54.2291 63.7696 54.7538C65.7477 55.1074 67.93 55.4715 70.2588 55.86C74.953 56.6432 80.2424 57.5257 85.6548 58.6223C93.7327 60.259 101.86 62.3323 108.256 65.1465L108.33 65.1793L108.408 65.206C110.398 65.8876 111.676 66.5487 112.415 67.1289C113.134 67.6928 113.24 68.0884 113.21 68.343C113.175 68.6394 112.917 69.0894 112.062 69.6447C111.218 70.1926 109.928 70.7515 108.17 71.2711C101.571 73.2219 89.4997 74.3017 74.5298 73.1604C76.6837 71.1241 77.6963 67.3244 77.6963 67.3244L72.729 61.3802C72.729 61.3802 66.1937 58.6143 62.1345 57.4807C58.9557 56.593 55.4921 55.7542 52.0488 54.9203C51.0807 54.6858 50.1141 54.4518 49.156 54.2171C44.7568 53.1397 40.5189 52.0464 36.9167 50.8167C33.2821 49.5758 30.4876 48.2583 28.824 46.8016C27.2599 45.4319 26.6816 43.9418 27.4414 42.0622C28.2523 40.0563 30.6259 37.5262 35.4238 34.3699L35.4341 34.3631L35.4442 34.3563Z" stroke="white" stroke-width="1.5" stroke-miterlimit="1" stroke-linecap="round"/>
<path d="M56.0066 50.2505C56.0066 50.2505 56.0086 50.2519 56.0118 50.2549M69.1662 47.3909C72.4811 46.7367 74.9183 45.7987 76.4499 44.5737C78.0421 43.3002 78.5908 41.7606 78.1776 40.1579C77.7826 38.6259 76.5446 37.1602 74.8992 35.8557C73.2379 34.5385 71.0585 33.3028 68.5745 32.2296C63.6117 30.0853 57.2486 28.5101 50.9196 28.2717C44.5903 28.0333 38.1558 29.1307 33.2542 32.4694C28.3202 35.7166 25.4257 38.5959 24.3582 41.2366C23.2388 44.0055 24.1735 46.4006 26.4395 48.3849C28.6062 50.2822 31.9592 51.7873 35.7147 53.0694C39.5026 54.3625 43.8973 55.4926 48.2985 56.5705C49.2826 56.8115 50.2664 57.0498 51.2451 57.2868C54.6768 58.118 58.0463 58.9341 61.1499 59.8008C65.1518 60.9184 70.9432 63.3778 70.9432 63.3778L74.4734 67.2829C74.4734 67.2829 73.4422 70.6204 70.0087 73.2096L67.6189 75.0118L71.0345 75.3372C87.7808 76.9324 101.712 75.8696 109.442 73.5843C111.384 73.0102 113.013 72.3365 114.207 71.5614C115.389 70.7936 116.286 69.8301 116.422 68.6707C116.562 67.4697 115.854 66.3674 114.672 65.4397C113.525 64.5391 111.842 63.7237 109.692 62.9817C102.917 60.012 94.4799 57.8799 86.3496 56.2326C80.8725 55.1229 75.4332 54.215 70.6991 53.4249C68.3972 53.0407 66.262 52.6843 64.3703 52.3461C61.431 51.8205 59.1169 51.346 57.5732 50.8831C57.1281 50.7497 56.7872 50.6287 56.5337 50.5236C56.9583 50.3099 57.6224 50.0514 58.5977 49.753C60.7747 49.087 64.1934 48.3137 69.1442 47.3951L69.1552 47.3931L69.1662 47.3909ZM35.4442 34.3563C39.5774 31.5371 45.1281 30.5246 50.9019 30.7421C56.6803 30.9598 62.5425 32.4086 67.0869 34.3721C69.3565 35.3527 71.2512 36.4419 72.63 37.5351C74.0248 38.641 74.7929 39.6712 75.0157 40.5351C75.2202 41.3282 74.9982 42.0845 74.0768 42.8215C73.0959 43.606 71.2797 44.3921 68.2472 44.9916C63.2713 45.915 59.6799 46.7195 57.2923 47.4499C56.1045 47.8132 55.136 48.1814 54.4294 48.5718C53.7834 48.9288 53.0303 49.4813 52.9264 50.2915C52.8093 51.2041 53.5588 51.8583 54.1709 52.2288C54.7988 52.6088 55.6305 52.9167 56.5147 53.1818C58.3079 53.7195 60.835 54.2291 63.7696 54.7538C65.7477 55.1074 67.93 55.4715 70.2588 55.86C74.953 56.6432 80.2424 57.5257 85.6548 58.6223C93.7327 60.259 101.86 62.3323 108.256 65.1465L108.33 65.1793L108.408 65.206C110.398 65.8876 111.676 66.5487 112.415 67.1289C113.134 67.6928 113.24 68.0884 113.21 68.343C113.175 68.6394 112.917 69.0894 112.062 69.6447C111.218 70.1926 109.928 70.7515 108.17 71.2711C101.571 73.2219 89.4997 74.3017 74.5298 73.1604C76.6837 71.1241 77.6963 67.3244 77.6963 67.3244L72.729 61.3802C72.729 61.3802 66.1937 58.6143 62.1345 57.4807C58.9557 56.593 55.4921 55.7542 52.0488 54.9203C51.0807 54.6858 50.1141 54.4518 49.156 54.2171C44.7568 53.1397 40.5189 52.0464 36.9167 50.8167C33.2821 49.5758 30.4876 48.2583 28.824 46.8016C27.2599 45.4319 26.6816 43.9418 27.4414 42.0622C28.2523 40.0563 30.6259 37.5262 35.4238 34.3699L35.4341 34.3631L35.4442 34.3563Z" stroke="url(#paint0_linear)" stroke-opacity="0.26" stroke-width="1.5" stroke-miterlimit="1" stroke-linecap="round"/>
<path d="M56.0066 50.2505C56.0066 50.2505 56.0086 50.2519 56.0118 50.2549M69.1662 47.3909C72.4811 46.7367 74.9183 45.7987 76.4499 44.5737C78.0421 43.3002 78.5908 41.7606 78.1776 40.1579C77.7826 38.6259 76.5446 37.1602 74.8992 35.8557C73.2379 34.5385 71.0585 33.3028 68.5745 32.2296C63.6117 30.0853 57.2486 28.5101 50.9196 28.2717C44.5903 28.0333 38.1558 29.1307 33.2542 32.4694C28.3202 35.7166 25.4257 38.5959 24.3582 41.2366C23.2388 44.0055 24.1735 46.4006 26.4395 48.3849C28.6062 50.2822 31.9592 51.7873 35.7147 53.0694C39.5026 54.3625 43.8973 55.4926 48.2985 56.5705C49.2826 56.8115 50.2664 57.0498 51.2451 57.2868C54.6768 58.118 58.0463 58.9341 61.1499 59.8008C65.1518 60.9184 70.9432 63.3778 70.9432 63.3778L74.4734 67.2829C74.4734 67.2829 73.4422 70.6204 70.0087 73.2096L67.6189 75.0118L71.0345 75.3372C87.7808 76.9324 101.712 75.8696 109.442 73.5843C111.384 73.0102 113.013 72.3365 114.207 71.5614C115.389 70.7936 116.286 69.8301 116.422 68.6707C116.562 67.4697 115.854 66.3674 114.672 65.4397C113.525 64.5391 111.842 63.7237 109.692 62.9817C102.917 60.012 94.4799 57.8799 86.3496 56.2326C80.8725 55.1229 75.4332 54.215 70.6991 53.4249C68.3972 53.0407 66.262 52.6843 64.3703 52.3461C61.431 51.8205 59.1169 51.346 57.5732 50.8831C57.1281 50.7497 56.7872 50.6287 56.5337 50.5236C56.9583 50.3099 57.6224 50.0514 58.5977 49.753C60.7747 49.087 64.1934 48.3137 69.1442 47.3951L69.1552 47.3931L69.1662 47.3909ZM35.4442 34.3563C39.5774 31.5371 45.1281 30.5246 50.9019 30.7421C56.6803 30.9598 62.5425 32.4086 67.0869 34.3721C69.3565 35.3527 71.2512 36.4419 72.63 37.5351C74.0248 38.641 74.7929 39.6712 75.0157 40.5351C75.2202 41.3282 74.9982 42.0845 74.0768 42.8215C73.0959 43.606 71.2797 44.3921 68.2472 44.9916C63.2713 45.915 59.6799 46.7195 57.2923 47.4499C56.1045 47.8132 55.136 48.1814 54.4294 48.5718C53.7834 48.9288 53.0303 49.4813 52.9264 50.2915C52.8093 51.2041 53.5588 51.8583 54.1709 52.2288C54.7988 52.6088 55.6305 52.9167 56.5147 53.1818C58.3079 53.7195 60.835 54.2291 63.7696 54.7538C65.7477 55.1074 67.93 55.4715 70.2588 55.86C74.953 56.6432 80.2424 57.5257 85.6548 58.6223C93.7327 60.259 101.86 62.3323 108.256 65.1465L108.33 65.1793L108.408 65.206C110.398 65.8876 111.676 66.5487 112.415 67.1289C113.134 67.6928 113.24 68.0884 113.21 68.343C113.175 68.6394 112.917 69.0894 112.062 69.6447C111.218 70.1926 109.928 70.7515 108.17 71.2711C101.571 73.2219 89.4997 74.3017 74.5298 73.1604C76.6837 71.1241 77.6963 67.3244 77.6963 67.3244L72.729 61.3802C72.729 61.3802 66.1937 58.6143 62.1345 57.4807C58.9557 56.593 55.4921 55.7542 52.0488 54.9203C51.0807 54.6858 50.1141 54.4518 49.156 54.2171C44.7568 53.1397 40.5189 52.0464 36.9167 50.8167C33.2821 49.5758 30.4876 48.2583 28.824 46.8016C27.2599 45.4319 26.6816 43.9418 27.4414 42.0622C28.2523 40.0563 30.6259 37.5262 35.4238 34.3699L35.4341 34.3631L35.4442 34.3563Z" stroke="url(#paint1_linear)" stroke-opacity="0.55" stroke-width="1.5" stroke-miterlimit="1" stroke-linecap="round"/>
<path d="M69.3322 75.175C96.5878 51.8537 -2.90907 59.803 34.6701 31.656C52.1112 18.1244 91.7121 39.3241 67.3475 45.0466C29.2665 53.4841 80.5946 51.6708 105.648 63.8882C121.545 69.8711 101.038 78.1953 69.3322 75.175Z" fill="#43A5FE" fill-opacity="0.05"/>
<path d="M74 68.9582C71.7045 68.9582 69.1629 69 66.8674 69C65.9774 69 65.0872 68.9164 64.244 68.624C62.8855 68.1644 62.2765 67.2871 62.136 66.0338C61.8549 63.4018 62.0892 60.7699 62.136 58.1379C62.1828 52.7069 62.1828 47.2757 62.2765 41.8447C62.3234 40.5079 62.1828 39.1292 62.8386 37.8342C63.5413 36.4972 64.7593 35.8288 66.3989 36.0377C67.9917 36.2048 68.6475 36.8315 68.9754 38.4191C69.2565 39.7141 69.116 41.0092 69.0692 42.2625C68.835 48.8633 69.0223 55.4642 68.835 62.0649C68.7881 62.9005 69.0223 63.193 70.0529 63.193C73.8474 63.3183 73.2055 63.1512 77 63.193C77.7496 63.193 82.8886 63.3601 83.5913 63.5272C85.0904 63.8196 85.8868 64.5298 85.9804 65.5742C86.121 67.2035 85.512 68.0809 83.9193 68.5404C82.8418 68.8747 81.7174 68.9582 80.5932 68.9582C78.2509 69 76.2486 68.9164 74 68.9582Z" fill="#43A5FE"/>
<defs>
<linearGradient id="paint0_linear" x1="72.8635" y1="30.2857" x2="68.594" y2="75.1047" gradientUnits="userSpaceOnUse">
<stop offset="0.9998" stop-color="#43A5FE"/>
<stop offset="0.9999" stop-color="#43A5FE"/>
<stop offset="1" stop-color="white" stop-opacity="0.6"/>
</linearGradient>
<linearGradient id="paint1_linear" x1="72.8635" y1="30.2857" x2="68.594" y2="75.1047" gradientUnits="userSpaceOnUse">
<stop stop-color="white" stop-opacity="0"/>
<stop offset="0.0001" stop-color="#8DC9FF"/>
</linearGradient>
</defs>
</svg>
