<svg width="191" height="30" viewBox="0 0 191 30" fill="none" xmlns="http://www.w3.org/2000/svg">
<g clip-path="url(#clip0)">
<path d="M96.416 27.0625H99.1309V22.082C99.2546 22.2188 99.3848 22.3424 99.5215 22.4531C99.6582 22.5638 99.8014 22.6647 99.9512 22.7559C100.205 22.8991 100.479 23.0065 100.771 23.0781C101.071 23.1562 101.396 23.1953 101.748 23.1953C102.412 23.1953 103.001 23.0586 103.516 22.7852C104.03 22.5117 104.463 22.1341 104.814 21.6523C105.16 21.1771 105.42 20.6107 105.596 19.9531C105.778 19.2956 105.869 18.5827 105.869 17.8145V17.6094C105.869 16.8086 105.778 16.0794 105.596 15.4219C105.42 14.7578 105.156 14.1882 104.805 13.7129C104.453 13.2441 104.02 12.8828 103.506 12.6289C102.992 12.3685 102.399 12.2383 101.729 12.2383C101.403 12.2383 101.097 12.2741 100.811 12.3457C100.531 12.4108 100.273 12.5052 100.039 12.6289C99.8438 12.7331 99.6615 12.8568 99.4922 13C99.3229 13.1367 99.1667 13.293 99.0234 13.4688L98.9258 12.4336H96.416V27.0625ZM103.154 17.6094V17.8145C103.154 18.2507 103.115 18.6641 103.037 19.0547C102.959 19.4388 102.835 19.7773 102.666 20.0703C102.497 20.3633 102.275 20.5944 102.002 20.7637C101.735 20.9329 101.41 21.0176 101.025 21.0176C100.785 21.0176 100.566 20.9948 100.371 20.9492C100.176 20.8971 100.003 20.8255 99.8535 20.7344C99.6973 20.6367 99.5573 20.5195 99.4336 20.3828C99.3164 20.2461 99.2155 20.0931 99.1309 19.9238V15.5098C99.222 15.3275 99.3294 15.168 99.4531 15.0312C99.5833 14.8945 99.7331 14.7806 99.9023 14.6895C100.052 14.6113 100.218 14.5527 100.4 14.5137C100.583 14.4681 100.785 14.4453 101.006 14.4453C101.39 14.4453 101.715 14.5267 101.982 14.6895C102.256 14.8522 102.48 15.0736 102.656 15.3535C102.826 15.64 102.949 15.9785 103.027 16.3691C103.112 16.7533 103.154 17.1667 103.154 17.6094ZM115.977 12.2383C115.267 12.2383 114.613 12.4108 114.014 12.7559C113.415 13.0944 112.9 13.5632 112.471 14.1621L112.451 13.9277L112.344 12.4336H109.814V23H112.529V16.6523C112.653 16.3529 112.809 16.0924 112.998 15.8711C113.187 15.6497 113.415 15.4674 113.682 15.3242C113.903 15.2005 114.154 15.1094 114.434 15.0508C114.72 14.9857 115.039 14.9531 115.391 14.9531C115.729 14.9531 116.084 14.9759 116.455 15.0215C116.833 15.0605 117.201 15.1224 117.559 15.207L117.959 12.502C117.744 12.4368 117.461 12.3783 117.109 12.3262C116.764 12.2676 116.387 12.2383 115.977 12.2383ZM120.029 17.6191V17.8242C120.029 18.599 120.14 19.3151 120.361 19.9727C120.583 20.6237 120.908 21.1901 121.338 21.6719C121.761 22.1536 122.282 22.5312 122.9 22.8047C123.525 23.0716 124.235 23.2051 125.029 23.2051C125.817 23.2051 126.52 23.0716 127.139 22.8047C127.757 22.5312 128.278 22.1536 128.701 21.6719C129.124 21.1901 129.447 20.6237 129.668 19.9727C129.889 19.3151 130 18.599 130 17.8242V17.6191C130 16.8509 129.889 16.1413 129.668 15.4902C129.447 14.8327 129.124 14.263 128.701 13.7812C128.271 13.2995 127.747 12.9219 127.129 12.6484C126.51 12.375 125.804 12.2383 125.01 12.2383C124.215 12.2383 123.509 12.375 122.891 12.6484C122.279 12.9219 121.761 13.2995 121.338 13.7812C120.908 14.263 120.583 14.8327 120.361 15.4902C120.14 16.1413 120.029 16.8509 120.029 17.6191ZM122.744 17.8242V17.6191C122.744 17.1895 122.786 16.7826 122.871 16.3984C122.956 16.0143 123.089 15.6758 123.271 15.3828C123.454 15.0898 123.688 14.8587 123.975 14.6895C124.261 14.5202 124.606 14.4355 125.01 14.4355C125.42 14.4355 125.768 14.5202 126.055 14.6895C126.341 14.8587 126.576 15.0898 126.758 15.3828C126.934 15.6758 127.064 16.0143 127.148 16.3984C127.233 16.7826 127.275 17.1895 127.275 17.6191V17.8242C127.275 18.2669 127.233 18.6836 127.148 19.0742C127.064 19.4583 126.934 19.7936 126.758 20.0801C126.576 20.373 126.341 20.6042 126.055 20.7734C125.768 20.9427 125.426 21.0273 125.029 21.0273C124.619 21.0273 124.268 20.9427 123.975 20.7734C123.688 20.6042 123.454 20.373 123.271 20.0801C123.089 19.7936 122.956 19.4583 122.871 19.0742C122.786 18.6836 122.744 18.2669 122.744 17.8242ZM132.129 17.6387V17.8438C132.129 18.612 132.223 19.3249 132.412 19.9824C132.601 20.6335 132.874 21.1966 133.232 21.6719C133.584 22.1471 134.014 22.5215 134.521 22.7949C135.036 23.0618 135.615 23.1953 136.26 23.1953C136.852 23.1953 137.373 23.0814 137.822 22.8535C138.271 22.6257 138.662 22.3066 138.994 21.8965L139.131 23H141.582V8H138.857V13.3809C138.532 13.0163 138.158 12.7363 137.734 12.541C137.318 12.3392 136.833 12.2383 136.279 12.2383C135.622 12.2383 135.036 12.3685 134.521 12.6289C134.014 12.8893 133.581 13.2572 133.223 13.7324C132.865 14.2077 132.591 14.7773 132.402 15.4414C132.22 16.1055 132.129 16.8379 132.129 17.6387ZM134.844 17.8438V17.6387C134.844 17.196 134.883 16.7826 134.961 16.3984C135.039 16.0078 135.163 15.666 135.332 15.373C135.501 15.0866 135.719 14.862 135.986 14.6992C136.26 14.5299 136.589 14.4453 136.973 14.4453C137.435 14.4453 137.819 14.5462 138.125 14.748C138.431 14.9434 138.675 15.2201 138.857 15.5781V19.8555C138.675 20.207 138.428 20.4837 138.115 20.6855C137.809 20.8874 137.422 20.9883 136.953 20.9883C136.569 20.9883 136.243 20.9069 135.977 20.7441C135.71 20.5814 135.492 20.3568 135.322 20.0703C135.153 19.7904 135.029 19.4616 134.951 19.084C134.88 18.6999 134.844 18.2865 134.844 17.8438ZM151.318 23H153.779V12.4336H151.055V19.8457C150.97 20.015 150.869 20.168 150.752 20.3047C150.635 20.4414 150.501 20.5586 150.352 20.6562C150.176 20.7669 149.971 20.8516 149.736 20.9102C149.508 20.9688 149.251 20.998 148.965 20.998C148.646 20.998 148.376 20.959 148.154 20.8809C147.933 20.8027 147.754 20.6725 147.617 20.4902C147.48 20.3145 147.38 20.0801 147.314 19.7871C147.256 19.4941 147.227 19.1328 147.227 18.7031V12.4336H144.512V18.6836C144.512 19.4844 144.6 20.1712 144.775 20.7441C144.958 21.3105 145.212 21.776 145.537 22.1406C145.863 22.5117 146.253 22.7819 146.709 22.9512C147.165 23.1204 147.666 23.2051 148.213 23.2051C148.812 23.2051 149.362 23.0553 149.863 22.7559C150.371 22.4564 150.804 22.043 151.162 21.5156L151.318 23ZM161.113 21.0273C160.677 21.0273 160.316 20.9395 160.029 20.7637C159.749 20.5879 159.528 20.3535 159.365 20.0605C159.196 19.7741 159.079 19.4421 159.014 19.0645C158.949 18.6803 158.916 18.2832 158.916 17.873V17.5801C158.916 17.1764 158.949 16.7858 159.014 16.4082C159.085 16.0306 159.206 15.6953 159.375 15.4023C159.538 15.1094 159.759 14.875 160.039 14.6992C160.319 14.5234 160.674 14.4355 161.104 14.4355C161.396 14.4355 161.667 14.4876 161.914 14.5918C162.161 14.6895 162.373 14.8229 162.549 14.9922C162.725 15.1615 162.858 15.3633 162.949 15.5977C163.04 15.832 163.079 16.0794 163.066 16.3398H165.625C165.638 15.7148 165.534 15.1517 165.312 14.6504C165.091 14.1426 164.782 13.7096 164.385 13.3516C163.981 13 163.503 12.7266 162.949 12.5312C162.396 12.3359 161.794 12.2383 161.143 12.2383C160.329 12.2383 159.613 12.3783 158.994 12.6582C158.382 12.9382 157.868 13.319 157.451 13.8008C157.035 14.2826 156.722 14.849 156.514 15.5C156.305 16.1445 156.201 16.8379 156.201 17.5801V17.873C156.201 18.6152 156.305 19.3118 156.514 19.9629C156.729 20.6074 157.044 21.1706 157.461 21.6523C157.871 22.1341 158.385 22.515 159.004 22.7949C159.622 23.0684 160.342 23.2051 161.162 23.2051C161.768 23.2051 162.34 23.1107 162.881 22.9219C163.428 22.7266 163.906 22.4596 164.316 22.1211C164.727 21.7826 165.049 21.3789 165.283 20.9102C165.524 20.4414 165.638 19.9336 165.625 19.3867H163.066C163.079 19.6341 163.034 19.8587 162.93 20.0605C162.832 20.2624 162.692 20.4349 162.51 20.5781C162.327 20.7214 162.116 20.832 161.875 20.9102C161.634 20.9883 161.38 21.0273 161.113 21.0273ZM173.428 9.8457H170.713V12.4336H168.301V14.4355H170.713V19.2402C170.713 19.9368 170.804 20.5358 170.986 21.0371C171.169 21.5319 171.429 21.9388 171.768 22.2578C172.1 22.5833 172.5 22.8242 172.969 22.9805C173.444 23.1302 173.971 23.2051 174.551 23.2051C174.85 23.2051 175.153 23.1888 175.459 23.1562C175.771 23.1302 176.071 23.0911 176.357 23.0391C176.644 22.987 176.914 22.9219 177.168 22.8438C177.422 22.7591 177.643 22.6615 177.832 22.5508L177.568 20.6855C177.445 20.7181 177.295 20.7507 177.119 20.7832C176.95 20.8158 176.768 20.8451 176.572 20.8711C176.37 20.9036 176.159 20.9297 175.938 20.9492C175.723 20.9688 175.511 20.9785 175.303 20.9785C175.016 20.9785 174.756 20.946 174.521 20.8809C174.294 20.8158 174.098 20.7051 173.936 20.5488C173.773 20.3991 173.646 20.1973 173.555 19.9434C173.47 19.6829 173.428 19.3607 173.428 18.9766V14.4355H177.373V12.4336H173.428V9.8457ZM187.275 20.0996C187.275 20.2624 187.233 20.4121 187.148 20.5488C187.07 20.6855 186.95 20.806 186.787 20.9102C186.618 21.0143 186.4 21.099 186.133 21.1641C185.872 21.2227 185.566 21.252 185.215 21.252C184.922 21.252 184.635 21.2227 184.355 21.1641C184.082 21.1055 183.838 21.0111 183.623 20.8809C183.408 20.7572 183.232 20.5944 183.096 20.3926C182.959 20.1842 182.881 19.9368 182.861 19.6504H180.273C180.273 20.0801 180.378 20.5098 180.586 20.9395C180.801 21.3626 181.113 21.7402 181.523 22.0723C181.934 22.4108 182.441 22.6842 183.047 22.8926C183.659 23.1009 184.362 23.2051 185.156 23.2051C185.879 23.2051 186.533 23.127 187.119 22.9707C187.705 22.8079 188.206 22.5833 188.623 22.2969C189.033 22.0104 189.349 21.6719 189.57 21.2812C189.798 20.8841 189.912 20.4512 189.912 19.9824C189.912 19.4746 189.798 19.0384 189.57 18.6738C189.349 18.3027 189.04 17.987 188.643 17.7266C188.245 17.4727 187.773 17.2643 187.227 17.1016C186.68 16.9388 186.087 16.8053 185.449 16.7012C185.007 16.6361 184.642 16.5612 184.355 16.4766C184.069 16.3854 183.844 16.2845 183.682 16.1738C183.512 16.0697 183.395 15.9525 183.33 15.8223C183.265 15.6855 183.232 15.5391 183.232 15.3828C183.232 15.2266 183.268 15.0801 183.34 14.9434C183.418 14.8001 183.529 14.6764 183.672 14.5723C183.828 14.4551 184.03 14.3639 184.277 14.2988C184.525 14.2337 184.814 14.2012 185.146 14.2012C185.537 14.2012 185.869 14.25 186.143 14.3477C186.423 14.4453 186.644 14.5755 186.807 14.7383C186.924 14.862 187.012 15.002 187.07 15.1582C187.129 15.3079 187.158 15.4707 187.158 15.6465H189.873C189.873 15.1582 189.766 14.7057 189.551 14.2891C189.336 13.8724 189.027 13.5111 188.623 13.2051C188.213 12.9056 187.715 12.6712 187.129 12.502C186.543 12.3262 185.882 12.2383 185.146 12.2383C184.443 12.2383 183.812 12.3262 183.252 12.502C182.692 12.6777 182.217 12.9154 181.826 13.2148C181.436 13.5143 181.136 13.8626 180.928 14.2598C180.719 14.6569 180.615 15.0736 180.615 15.5098C180.615 15.959 180.716 16.3561 180.918 16.7012C181.126 17.0462 181.413 17.349 181.777 17.6094C182.142 17.8763 182.578 18.1042 183.086 18.293C183.6 18.4753 184.167 18.6283 184.785 18.752C185.273 18.8431 185.677 18.9342 185.996 19.0254C186.315 19.1165 186.572 19.2142 186.768 19.3184C186.956 19.429 187.087 19.5462 187.158 19.6699C187.236 19.7936 187.275 19.9368 187.275 20.0996Z" fill="#43A5FE"/>
<path d="M85.0001 16.2087C84.9203 18.4761 84.5221 21.1396 83.0876 23.623C81.3338 26.7543 78.3848 28.3739 74.5988 28.6978C67.6644 29.2737 62.8426 25.4585 61.3282 19.34C60.4116 15.7049 60.4514 12.1056 61.9259 8.54245C64.2772 2.85586 69.3784 0.300399 75.3561 1.16428C78.8628 1.66812 81.1343 3.82755 82.6886 6.59899C84.2828 9.47832 85.0001 12.5376 85.0001 16.2087ZM79.2218 15.3809C79.2617 14.0852 79.0622 12.8255 78.7829 11.5657C78.5444 10.594 78.1853 9.65829 77.6675 8.79442C76.7108 7.13882 75.356 6.02307 73.1642 6.05907C70.8927 6.13105 69.0991 6.99484 67.9438 8.83041C67.0272 10.2701 66.7082 11.8537 66.5487 13.4733C66.3097 16.0287 66.509 18.5841 67.8639 20.8876C68.9403 22.7593 70.6932 23.8749 73.1243 23.8749C75.4757 23.8389 77.03 22.7233 78.0257 20.8876C78.9425 19.124 79.1819 17.2885 79.2218 15.3809Z" fill="#44A5FE"/>
<path d="M24.2932 29.6225C23.4396 29.5861 22.6672 28.8588 22.0169 27.9497C21.3259 26.9678 20.9599 25.8768 20.4722 24.7858C20.2283 24.1676 19.8625 23.913 19.0901 23.913C15.5536 23.9493 12.0578 23.9493 8.52133 23.913C7.8709 23.913 7.54574 24.0948 7.34252 24.6039C6.81404 25.7676 6.4076 26.9314 5.67591 27.986C4.57837 29.5861 2.78981 30.0225 1.00126 29.0406C0.106933 28.5314 -0.218235 27.6587 0.147612 26.4586C0.635407 24.8949 1.40769 23.4765 2.05812 21.9856C4.90354 15.7305 7.70836 9.512 10.5944 3.25713C11.4888 1.32962 12.1798 0.966035 14.3342 1.00238C15.1878 1.00238 15.7976 1.32963 16.326 1.91153C16.9764 2.67523 17.3422 3.54804 17.7488 4.42077C20.8787 11.3303 24.0087 18.2399 27.1387 25.1495C27.3012 25.5494 27.5045 25.9494 27.6265 26.3495C28.1549 28.386 27.0574 29.6225 24.2932 29.6225ZM13.887 10.4212C12.5862 13.0759 11.4073 15.5488 10.1879 17.9854C9.90336 18.5308 10.1067 18.6399 10.7164 18.6399C12.8302 18.6035 14.9845 18.6035 17.0984 18.6399C17.6673 18.6399 17.9113 18.5672 17.6268 17.9854C16.3667 15.5488 15.1878 13.0759 13.887 10.4212Z" fill="#43A5FE"/>
<path d="M45.102 29.5864C43.111 29.5864 40.9066 29.6226 38.9156 29.6226C38.1437 29.6226 37.3716 29.5501 36.6402 29.2965C35.4619 28.8979 34.9337 28.137 34.8118 27.0499C34.568 24.7671 34.7712 22.4843 34.8118 20.2014C34.8524 15.4909 34.8524 10.7802 34.9337 6.0696C34.9744 4.91013 34.8524 3.71432 35.4212 2.5911C36.0307 1.43146 37.0871 0.851726 38.5093 1.03291C39.8908 1.17785 40.4596 1.72141 40.744 3.09841C40.9878 4.22163 40.8659 5.34493 40.8253 6.43197C40.6222 12.1571 40.7846 17.8824 40.6222 23.6075C40.5815 24.3323 40.7846 24.586 41.6785 24.586C44.9697 24.6946 44.4129 24.5497 47.7041 24.586C48.3542 24.586 52.8115 24.7309 53.421 24.8758C54.7213 25.1294 55.412 25.7454 55.4932 26.6513C55.6152 28.0645 55.0869 28.8255 53.7055 29.224C52.7709 29.514 51.7957 29.5864 50.8206 29.5864C48.789 29.6226 47.0524 29.5501 45.102 29.5864Z" fill="#43A5FE"/>
</g>
<defs>
<clipPath id="clip0">
<rect width="191" height="30" fill="white"/>
</clipPath>
</defs>
</svg>
