<svg width="54" height="54" viewBox="0 0 54 54" fill="none" xmlns="http://www.w3.org/2000/svg">
<circle cx="27" cy="27" r="26" stroke="#EB5822" stroke-width="2"/>
<path d="M24.0977 27.9355C24.0977 30.0514 23.7363 31.6237 23.0137 32.6523C22.291 33.681 21.1615 34.1953 19.625 34.1953C18.1081 34.1953 16.985 33.694 16.2559 32.6914C15.5267 31.6823 15.1491 30.1784 15.123 28.1797V25.7676C15.123 23.6777 15.4844 22.125 16.207 21.1094C16.9297 20.0938 18.0625 19.5859 19.6055 19.5859C21.1354 19.5859 22.2617 20.0775 22.9844 21.0605C23.707 22.0371 24.0781 23.5475 24.0977 25.5918V27.9355ZM22.291 25.4648C22.291 23.9349 22.0762 22.8216 21.6465 22.125C21.2168 21.4219 20.5365 21.0703 19.6055 21.0703C18.681 21.0703 18.0072 21.4186 17.584 22.1152C17.1608 22.8118 16.9427 23.8828 16.9297 25.3281V28.2188C16.9297 29.7552 17.151 30.8913 17.5938 31.627C18.043 32.3561 18.7201 32.7207 19.625 32.7207C20.5169 32.7207 21.1777 32.3757 21.6074 31.6855C22.0436 30.9954 22.2715 29.9082 22.291 28.4238V25.4648ZM26.2559 22.5156C26.2559 21.6628 26.526 20.9596 27.0664 20.4062C27.6133 19.8529 28.3132 19.5762 29.166 19.5762C30.0319 19.5762 30.7318 19.8561 31.2656 20.416C31.806 20.9694 32.0762 21.6888 32.0762 22.5742V23.2676C32.0762 24.127 31.8027 24.8301 31.2559 25.377C30.7155 25.9173 30.0254 26.1875 29.1855 26.1875C28.3392 26.1875 27.6393 25.9173 27.0859 25.377C26.5326 24.8301 26.2559 24.1042 26.2559 23.1992V22.5156ZM27.6035 23.2676C27.6035 23.7754 27.7467 24.1953 28.0332 24.5273C28.3197 24.8529 28.7038 25.0156 29.1855 25.0156C29.6478 25.0156 30.0189 24.8561 30.2988 24.5371C30.5853 24.2181 30.7285 23.7819 30.7285 23.2285V22.5156C30.7285 22.0078 30.5885 21.5879 30.3086 21.2559C30.0286 20.9238 29.6478 20.7578 29.166 20.7578C28.6842 20.7578 28.3034 20.9238 28.0234 21.2559C27.7435 21.5879 27.6035 22.0208 27.6035 22.5547V23.2676ZM33.1797 30.5137C33.1797 29.6608 33.4499 28.9609 33.9902 28.4141C34.5371 27.8607 35.237 27.584 36.0898 27.584C36.9427 27.584 37.6426 27.8574 38.1895 28.4043C38.7363 28.9512 39.0098 29.6771 39.0098 30.582V31.2754C39.0098 32.1283 38.7363 32.8314 38.1895 33.3848C37.6491 33.9316 36.9557 34.2051 36.1094 34.2051C35.263 34.2051 34.5632 33.9349 34.0098 33.3945C33.4564 32.8477 33.1797 32.1217 33.1797 31.2168V30.5137ZM34.5273 31.2754C34.5273 31.7897 34.6706 32.2129 34.957 32.5449C35.2435 32.8704 35.6276 33.0332 36.1094 33.0332C36.5781 33.0332 36.9525 32.8737 37.2324 32.5547C37.5124 32.2292 37.6523 31.7897 37.6523 31.2363V30.5137C37.6523 29.9993 37.5091 29.5794 37.2227 29.2539C36.9427 28.9284 36.5651 28.7656 36.0898 28.7656C35.6276 28.7656 35.25 28.9284 34.957 29.2539C34.6706 29.5729 34.5273 30.0059 34.5273 30.5527V31.2754ZM29.5957 32.9258L28.5703 32.2812L35.5137 21.168L36.5391 21.8125L29.5957 32.9258Z" fill="#F5A31B"/>
</svg>
