<svg width="49" height="49" viewBox="0 0 49 49" fill="none" xmlns="http://www.w3.org/2000/svg">
<path d="M15.3691 24.0805L16.1235 23.7734L15.4194 23.3641C11.6012 21.1449 9.49484 18.2109 8.81612 14.619L8.81576 14.6171C8.14348 11.1497 9.4812 7.73435 12.1953 5.1296C14.9104 2.52385 18.9925 0.745245 23.7449 0.590552L23.7473 0.590462C33.4185 0.218679 39.6596 6.58803 39.7343 12.6174L39.7343 12.6197C39.8097 16.7566 38.0151 20.1026 34.0542 22.7467L34.0507 22.7491C33.7919 22.9259 33.5794 23.092 33.4383 23.2562C33.2985 23.4189 33.16 23.6643 33.2498 23.9544C33.3261 24.2007 33.5368 24.3534 33.6948 24.4496C33.8702 24.5564 34.0991 24.6608 34.3511 24.7704L34.3511 24.7705L34.3609 24.7745C42.684 28.134 47.0197 33.5719 47.8598 40.905C48.0798 42.8887 47.3866 44.5897 46.0283 45.8039C44.6624 47.025 42.5974 47.775 40.0562 47.775H39.9939H39.9317H39.8694H39.8072H39.7449H39.6827H39.6204H39.5582H39.4959H39.4337H39.3714H39.3092H39.2469H39.1846H39.1224H39.0601H38.9978H38.9356H38.8733H38.811H38.7487H38.6864H38.6242H38.5619H38.4996H38.4373H38.375H38.3127H38.2505H38.1882H38.1259H38.0636H38.0013H37.939H37.8767H37.8144H37.7521H37.6898H37.6275H37.5652H37.5029H37.4406H37.3782H37.3159H37.2536H37.1913H37.129H37.0667H37.0044H36.942H36.8797H36.8174H36.7551H36.6927H36.6304H36.5681H36.5057H36.4434H36.3811H36.3187H36.2564H36.1941H36.1317H36.0694H36.007H35.9447H35.8824H35.82H35.7577H35.6953H35.633H35.5706H35.5083H35.4459H35.3836H35.3212H35.2588H35.1965H35.1341H35.0718H35.0094H34.947H34.8847H34.8223H34.7599H34.6976H34.6352H34.5728H34.5105H34.4481H34.3857H34.3233H34.261H34.1986H34.1362H34.0738H34.0114H33.9491H33.8867H33.8243H33.7619H33.6995H33.6371H33.5747H33.5124H33.45H33.3876H33.3252H33.2628H33.2004H33.138H33.0756H33.0132H32.9508H32.8884H32.826H32.7636H32.7012H32.6388H32.5764H32.514H32.4516H32.3892H32.3268H32.2643H32.2019H32.1395H32.0771H32.0147H31.9523H31.8899H31.8275H31.765H31.7026H31.6402H31.5778H31.5154H31.4529H31.3905H31.3281H31.2657H31.2032H31.1408H31.0784H31.016H30.9535H30.8911H30.8287H30.7663H30.7038H30.6414H30.579H30.5165H30.4541H30.3917H30.3292H30.2668H30.2044H30.1419H30.0795H30.017H29.9546H29.8922H29.8297H29.7673H29.7048H29.6424H29.58H29.5175H29.4551H29.3926H29.3302H29.2677H29.2053H29.1428H29.0804H29.018H28.9555H28.8931H28.8306H28.7682H28.7057H28.6433H28.5808H28.5183H28.4559H28.3934H28.331H28.2685H28.2061H28.1436H28.0812H28.0187H27.9563H27.8938H27.8313H27.7689H27.7064H27.644H27.5815H27.5191H27.4566H27.3941H27.3317H27.2692H27.2068H27.1443H27.0818H27.0194H26.9569H26.8944H26.832H26.7695H26.7071H26.6446H26.5821H26.5197H26.4572H26.3947H26.3323H26.2698H26.2073H26.1449H26.0824H26.0199H25.9575H25.895H25.8325H25.7701H25.7076H25.6451H25.5827H25.5202H25.4577H25.3953H25.3328H25.2703H25.2079H25.1454H25.0829H25.0204H24.958H24.8955H24.833H24.7706H24.7081H24.6456H24.5832H24.5207H24.4582H24.3958H24.3333H24.2708H24.2083H24.1459H24.0834H24.0209H23.9585H23.896H23.8335H23.7711H23.7086H23.6461H23.5836H23.5212H23.4587H23.3962H23.3338H23.2713H23.2088H23.1464H23.0839H23.0214H22.9589H22.8965H22.834H22.7715H22.7091H22.6466H22.5841H22.5217H22.4592H22.3967H22.3343H22.2718H22.2093H22.1469H22.0844H22.0219H21.9595H21.897H21.8345H21.7721H21.7096H21.6471H21.5847H21.5222H21.4597H21.3973H21.3348H21.2724H21.2099H21.1474H21.085H21.0225H20.9601H20.8976H20.8351H20.7727H20.7102H20.6477H20.5853H20.5228H20.4604H20.3979H20.3355H20.273H20.2105H20.1481H20.0856H20.0232H19.9607H19.8983H19.8358H19.7734H19.7109H19.6485H19.586H19.5235H19.4611H19.3986H19.3362H19.2737H19.2113H19.1488H19.0864H19.024H18.9615H18.8991H18.8366H18.7742H18.7117H18.6493H18.5868H18.5244H18.462H18.3995H18.3371H18.2746H18.2122H18.1498H18.0873H18.0249H17.9624H17.9H17.8376H17.7751H17.7127H17.6503H17.5878H17.5254H17.463H17.4005H17.3381H17.2757H17.2133H17.1508H17.0884H17.026H16.9636H16.9011H16.8387H16.7763H16.7139H16.6514H16.589H16.5266H16.4642H16.4018H16.3393H16.2769H16.2145H16.1521H16.0897H16.0273H15.9649H15.9025H15.84H15.7776H15.7152H15.6528H15.5904H15.528H15.4656H15.4032H15.3408H15.2784H15.216H15.1536H15.0912H15.0288H14.9664H14.904H14.8416H14.7792H14.7168H14.6544H14.5921H14.5297H14.4673H14.4049H14.3425H14.2801H14.2177H14.1554H14.093H14.0306H13.9682H13.9058H13.8435H13.7811H13.7187H13.6563H13.594H13.5316H13.4692H13.4069H13.3445H13.2821H13.2198H13.1574H13.095H13.0327H12.9703H12.908H12.8456H12.7832H12.7209H12.6585H12.5962H12.5338H12.4715H12.4091H12.3468H12.2844H12.2221H12.1598H12.0974H12.0351H11.9727H11.9104H11.8481H11.7857H11.7234H11.6611H11.5987H11.5364H11.4741H11.4117H11.3494H11.2871H11.2248H11.1625H11.1001H11.0378H10.9755H10.9132H10.8509H10.7886H10.7262H10.6639H10.6016H10.5393H10.477H10.4147H10.3524H10.2901H10.2278H10.1655H10.1032H10.0409H9.97863H9.91634H9.85405H9.79177H9.72948H9.6672H9.60491H9.54263H9.48035H9.41807H9.3558H9.29352H9.23125H9.16898H9.10671H9.04444H8.98218H8.91991H8.85765H8.79539H8.73313H8.67087H8.60861H8.54636H8.48411H8.42186H8.35961H8.29736H8.23512H8.17287H8.11063C5.87857 47.775 4.02022 47.1489 2.72846 46.1061C1.44321 45.0686 0.700502 43.6058 0.699988 41.8714C0.738583 37.6758 2.07322 34.189 4.54918 31.2754C7.0322 28.3535 10.6797 25.9889 15.3691 24.0805ZM44.2812 41.0718L44.2811 41.0703C43.7202 35.8306 40.9861 31.4291 35.5626 28.4669C28.9741 24.8146 21.8937 24.3649 14.8271 27.3775L14.8271 27.3775L14.8238 27.3789C8.08404 30.3234 4.28153 34.9781 4.0399 41.35L4.03985 41.3514C3.99794 42.5696 4.33525 43.5177 5.14219 44.1408C5.92148 44.7426 7.06552 44.9806 8.49864 44.9809C13.8119 45.0439 19.0466 45.044 24.2006 45.044H24.2308H24.261H24.2912H24.3214H24.3516H24.3818H24.4121H24.4423H24.4725H24.5027H24.5329H24.5632H24.5934H24.6236H24.6539H24.6841H24.7143H24.7446H24.7748H24.805H24.8353H24.8655H24.8958H24.926H24.9562H24.9865H25.0167H25.047H25.0773H25.1075H25.1378H25.168H25.1983H25.2285H25.2588H25.2891H25.3193H25.3496H25.3799H25.4101H25.4404H25.4707H25.501H25.5312H25.5615H25.5918H25.6221H25.6524H25.6826H25.7129H25.7432H25.7735H25.8038H25.8341H25.8644H25.8947H25.925H25.9553H25.9856H26.0159H26.0462H26.0765H26.1068H26.1371H26.1674H26.1977H26.228H26.2583H26.2886H26.3189H26.3492H26.3796H26.4099H26.4402H26.4705H26.5008H26.5311H26.5615H26.5918H26.6221H26.6524H26.6828H26.7131H26.7434H26.7738H26.8041H26.8344H26.8648H26.8951H26.9254H26.9558H26.9861H27.0165H27.0468H27.0771H27.1075H27.1378H27.1682H27.1985H27.2289H27.2592H27.2896H27.3199H27.3503H27.3806H27.411H27.4413H27.4717H27.5021H27.5324H27.5628H27.5931H27.6235H27.6539H27.6842H27.7146H27.745H27.7753H27.8057H27.8361H27.8664H27.8968H27.9272H27.9575H27.9879H28.0183H28.0487H28.079H28.1094H28.1398H28.1702H28.2006H28.2309H28.2613H28.2917H28.3221H28.3525H28.3829H28.4132H28.4436H28.474H28.5044H28.5348H28.5652H28.5956H28.626H28.6564H28.6868H28.7171H28.7475H28.7779H28.8083H28.8387H28.8691H28.8995H28.9299H28.9603H28.9907H29.0211H29.0515H29.0819H29.1123H29.1427H29.1731H29.2035H29.2339H29.2644H29.2948H29.3252H29.3556H29.386H29.4164H29.4468H29.4772H29.5076H29.538H29.5684H29.5989H29.6293H29.6597H29.6901H29.7205H29.7509H29.7813H29.8118H29.8422H29.8726H29.903H29.9334H29.9638H29.9943H30.0247H30.0551H30.0855H30.1159H30.1464H30.1768H30.2072H30.2376H30.2681H30.2985H30.3289H30.3593H30.3898H30.4202H30.4506H30.481H30.5115H30.5419H30.5723H30.6027H30.6332H30.6636H30.694H30.7244H30.7549H30.7853H30.8157H30.8462H30.8766H30.907H30.9374H30.9679H30.9983H31.0287H31.0592H31.0896H31.12H31.1505H31.1809H31.2113H31.2418H31.2722H31.3026H31.3331H31.3635H31.3939H31.4243H31.4548H31.4852H31.5156H31.5461H31.5765H31.6069H31.6374H31.6678H31.6982H31.7287H31.7591H31.7896H31.82H31.8504H31.8809H31.9113H31.9417H31.9722H32.0026H32.033H32.0635H32.0939H32.1243H32.1548H32.1852H32.2156H32.2461H32.2765H32.3069H32.3374H32.3678H32.3982H32.4287H32.4591H32.4895H32.52H32.5504H32.5808H32.6113H32.6417H32.6721H32.7026H32.733H32.7634H32.7938H32.8243H32.8547H32.8851H32.9156H32.946H32.9764H33.0069H33.0373H33.0677H33.0982H33.1286H33.159H33.1894H33.2199H33.2503H33.2807H33.3111H33.3416H33.372H33.4024H33.4329H33.4633H33.4937H33.5241H33.5546H33.585H33.6154H33.6458H33.6763H33.7067H33.7371H33.7675H33.7979H33.8284H33.8588H33.8892H33.9196H33.95H33.9805H34.0109H34.0413H34.0717H34.1021H34.1325H34.163H34.1934H34.2238H34.2542H34.2846H34.315H34.3455H34.3759H34.4063H34.4367H34.4671H34.4975H34.5279H34.5583H34.5887H34.6191H34.6495H34.68H34.7104H34.7408H34.7712H34.8016H34.832H34.8624H34.8928H34.9232H34.9536H34.984H35.0144H35.0448H35.0752H35.1056H35.136H35.1664H35.1968H35.2272H35.2576H35.2879H35.3183H35.3487H35.3791H35.4095H35.4399H35.4703H35.5007H35.5311H35.5615H35.5918H35.6222H35.6526H35.683H35.7134H35.7437H35.7741H35.8045H35.8349H35.8653H35.8956H35.926H35.9564H35.9868H36.0171H36.0475H36.0779H36.1082H36.1386H36.169H36.1993H36.2297H36.2601H36.2904H36.3208H36.3512H36.3815H36.4119H36.4422H36.4726H36.503H36.5333H36.5637H36.594H36.6244H36.6547H36.6851H36.7154H36.7458H36.7761H36.8065H36.8368H36.8672H36.8975H36.9278H36.9582H36.9885H37.0189H37.0492H37.0795H37.1099H37.1402H37.1705H37.2009H37.2312H37.2615H37.2919H37.3222H37.3525H37.3828H37.4132H37.4435H37.4738H37.5041H37.5344H37.5648H37.5951H37.6254H37.6557H37.686H37.7163H37.7466H37.7769H37.8072H37.8375H37.8678H37.8981H37.9284H37.9587H37.989H38.0193H38.0496H38.0799H38.1102H38.1405H38.1708H38.2011H38.2314H38.2617H38.2919H38.3222H38.3525H38.3828H38.4131H38.4433H38.4736H38.5039H38.5342H38.5644H38.5947H38.625H38.6552H38.6855H38.7158H38.746H38.7763H38.8065H38.8368H38.8671H38.8973H38.9276H38.9578H38.9881H39.0183H39.0485H39.0788H39.109H39.1393H39.1695H39.1998H39.23H39.2602H39.2905H39.3207H39.3509H39.3811H39.4114H39.4416H39.4718H39.502H39.5322H39.5625H39.5927H39.6229H39.6531H39.6833H39.7135H39.7437C41.2358 45.044 42.4396 44.7201 43.2446 44.0341C44.0687 43.3318 44.4088 42.3077 44.2812 41.0718ZM36.1603 13.1169C36.1603 7.59585 30.675 3.13262 24.2006 3.13262C21.0225 3.13262 18.0247 4.26832 15.8165 6.05094C13.6107 7.83166 12.1627 10.2859 12.1627 12.9277C12.1627 18.3251 17.6506 22.785 24.1206 22.7858C30.5826 22.8493 36.1603 18.5235 36.1603 13.1169Z" fill="#050505" stroke="white" stroke-width="0.8"/>
</svg>
